<svg xmlns="http://www.w3.org/2000/svg" style="isolation:isolate" width="894" height="300"><defs><clipPath id="a"><path d="M0 0h894v300H0z"/></clipPath></defs><g clip-path="url(#a)"><clipPath id="b"><path fill="#FFF" d="M-160-357h1200V643H-160z"/></clipPath><g clip-path="url(#b)"><clipPath id="c"><path d="M-171 682h1200V-318H-171V682z" fill="#FFF"/></clipPath><g clip-path="url(#c)"><path d="M381.03 198.19h11.009c12.279 0 22.006-.766 29.18-2.302 7.173-1.534 13.23-4.155 18.169-7.857 4.939-3.704 8.943-9.294 12.013-16.765 3.068-7.477 4.605-16.283 4.605-26.43 0-12.077-2.521-22.323-7.559-30.733-5.039-8.408-11.479-13.895-19.319-16.465-7.841-2.568-19.904-3.853-36.187-3.853H381.03V198.19zm-21.022 0V93.785h-18.919V76.366h53.853c14.882 0 26.345.768 34.386 2.302 8.041 1.538 15.832 5.004 23.374 10.41 7.54 5.405 13.563 12.831 18.069 22.275 4.505 9.444 6.757 20.203 6.757 32.281 0 13.746-2.17 25.694-6.507 35.836-4.34 10.143-10.027 17.718-17.068 22.725-7.043 5.005-15.416 8.49-25.126 10.459-9.709 1.971-22.071 2.955-37.087 2.955h-50.651V198.19h18.919zM506.957 85.773c0-3.066 1.084-5.739 3.254-8.008 2.168-2.267 4.921-3.404 8.259-3.404 3.135 0 5.838 1.106 8.108 3.305 2.269 2.205 3.404 4.908 3.404 8.107 0 3.204-1.135 5.926-3.404 8.16-2.27 2.236-4.973 3.357-8.108 3.357-3.204 0-5.923-1.136-8.159-3.409-2.237-2.264-3.354-4.967-3.354-8.108zm2.703 112.917v-63.065h-15.016v-16.914h34.036v79.979h15.014v16.918h-49.05V198.69h15.016zM682.237 158.049h60.062v19.02h-60.062v-19.02zM770.027 198.19V93.785H755.01V76.366h51.053v17.419h-15.015V198.19h15.015v17.419H755.01V198.19h15.017zM818.877 135.625v-16.914h12.613v-14.916l19.02-17.42v32.336h17.919v16.914H850.51v47.05c0 7.54.416 12.196 1.251 13.963.834 1.766 2.918 2.654 6.256 2.654 3.536 0 7.007-.665 10.412-2.001v17.315c-4.873 1.738-9.746 2.607-14.616 2.607-5.807 0-10.511-1.289-14.114-3.858-3.605-2.566-5.873-5.788-6.807-9.66-.936-3.869-1.402-10.544-1.402-20.021v-48.049h-12.613zM637.191 118.711v13.811c-4.314-4.395-8.886-7.84-13.72-10.343.211.616.453 1.218.642 1.848 1.974 6.549 2.845 12.875 2.635 18.879.447.39.898.761 1.334 1.177 6.272 6.044 9.41 14.033 9.41 23.976 0 9.808-3.138 17.835-9.41 24.076-6.274 6.24-13.749 9.359-22.423 9.359-8.877 0-16.167-3.104-21.873-9.311-5.706-6.204-8.558-14.212-8.558-24.021 0-7.313 1.638-13.521 4.859-18.662-2.889-3.282-5.496-6.924-7.979-10.41-.701-.984-1.396-1.961-2.086-2.914-.71-.973-1.446-1.99-2.198-3.016-8.507 9.207-12.818 20.985-12.818 35.404 0 14.01 4.37 25.824 13.115 35.432 8.741 9.608 20.051 14.416 33.934 14.416 7.608 0 14.615-1.705 21.021-5.105 6.408-3.405 11.111-7.01 14.115-10.811v8.81c0 6.404-.336 10.96-1.001 13.662-.668 2.702-2.153 5.557-4.455 8.557-2.302 3.008-5.789 5.558-10.46 7.659-4.672 2.101-9.745 3.152-15.216 3.152-9.877 0-19.019-3.267-27.428-9.809l-12.413 13.815c11.212 8.609 23.957 12.916 38.24 12.916 9.473 0 18.049-1.67 25.725-5.008 7.674-3.338 13.431-7.459 17.269-12.363 3.836-4.905 6.256-9.708 7.257-14.416 1.002-4.703 1.502-11.928 1.502-21.674v-72.172h17.417v-16.914h-36.437z" fill="#423D37"/><path d="M556.204 90.778c27.194-8.197 55.887 7.21 64.084 34.4 2.211 7.34 3.093 14.902 2.102 22.031a6.89 6.89 0 0 0 .01 1.217c-1.24.765-2.4 1.648-3.495 2.614-.238-2.488-.286-4.938-.245-7.306.15-8.551-22.522-43.712-59.839-44.707 24.236 4.325 39.689 17.516 46.576 24.785 7.347 7.744 16.768 27.221 1.388 31.854-16.123 4.863-25.113-10.242-33.527-21.838-12.943-17.826-27.961-37.703-43.399-24.606 6.355-8.517 15.393-15.14 26.345-18.444z" fill-rule="evenodd" fill="#87C145"/></g><clipPath id="d"><path d="M-144-351h1200V649H-144V-351z" fill="#FFF"/></clipPath><g fill-rule="evenodd" clip-path="url(#d)"><path d="M181.9 26.225c21.193 6.308 39.606 17.479 54.401 31.924-6.061-12.085-9.066-18.204-4.597-28.862a141.67 141.67 0 0 0-35.069-15.871C125.323-7.809 50.486 29.846 24.265 98.159 50.968 38.993 117.956 7.19 181.9 26.225zM275.483 139.594c1.635 16.521.155 33.63-4.874 50.524-20.758 69.754-94.141 109.472-163.895 88.71a131.836 131.836 0 0 1-33.859-15.546c12.691 9.265 27.147 16.562 43.067 21.305 74.881 22.283 153.653-20.351 175.942-95.232 5.871-19.737 7.232-39.741 4.685-58.913a1574.674 1574.674 0 0 0-21.066 9.152z" fill="#423D37"/><path d="M257.451 85.104c21.684-10.808 39.04-21.4 61.36-23.606-21.718 4.636-42.061 15.09-62.1 26.83l.181.005c-51.728 26.397-76.683 49.885-103.98 99.678-19.067-31.459-68.442-67.526-103.675-78.697 38.344 28.838 82.599 92.253 99.992 139.71 33.847-69.567 53.738-112.348 114.914-158.941 19.345-14.733 52.505 37.119 101.937-35.877-55.227-13.386-55.01-41.944-108.629 30.898z" fill="#87C145"/><path d="M252.48 82.03c2.7-14.54 4.563-28.983 2.645-42.992 3.501 13.844.91 26.531-.874 41.853 32.035-47.862 14.977-41.556-4.979-71.738-25.384 34.876-12.729 31.619 3.208 72.877zM148.77 67.076a117.538 117.538 0 0 0-22.334 30.667c-8.333 16.529-11.039 31.646-12 41.333 7.28 3.383 13.307 7.102 18.271 10.719l.69.507a106.616 106.616 0 0 1 15.373 13.892 94.217 94.217 0 0 1 31.666-24.785 96.315 96.315 0 0 0-7.666-38.666c-7.26-17.054-17.77-28.034-24-33.667z" fill="#87C145"/></g></g></g></svg>