<?xml version="1.0" standalone="no"?><!-- Generator: Gravit.io --><svg xmlns="http://www.w3.org/2000/svg" xmlns:xlink="http://www.w3.org/1999/xlink" style="isolation:isolate" viewBox="0 0 568 208" width="568" height="208"><defs><clipPath id="_clipPath_5fuw3tq8dyyNKYQDhv8Tps59wM90NslT"><rect width="568" height="208"/></clipPath></defs><g clip-path="url(#_clipPath_5fuw3tq8dyyNKYQDhv8Tps59wM90NslT)"><clipPath id="_clipPath_rfK7ucJ0duRJvXmCLW7zkbyQJMy0tpwm"><rect x="0" y="0" width="1200" height="1000" transform="matrix(1,0,0,1,0,0)" fill="rgb(255,255,255)"/></clipPath><g clip-path="url(#_clipPath_rfK7ucJ0duRJvXmCLW7zkbyQJMy0tpwm)"><g><clipPath id="_clipPath_wxdkjGLYBCANqbNIPYlU4JNBO8zdr1jC"><path d=" M -492 619 L 708 619 L 708 -381 L -492 -381 L -492 619 Z " fill="rgb(255,255,255)"/></clipPath><g clip-path="url(#_clipPath_wxdkjGLYBCANqbNIPYlU4JNBO8zdr1jC)"><g><path d=" M 60.03 135.19 L 71.039 135.19 C 83.318 135.19 93.045 134.424 100.219 132.888 C 107.392 131.354 113.449 128.733 118.388 125.031 C 123.327 121.327 127.331 115.737 130.401 108.266 C 133.469 100.789 135.006 91.983 135.006 81.836 C 135.006 69.759 132.485 59.513 127.447 51.103 C 122.408 42.695 115.968 37.208 108.128 34.638 C 100.287 32.07 88.224 30.785 71.941 30.785 L 60.03 30.785 L 60.03 135.19 Z  M 39.008 135.19 L 39.008 30.785 L 20.089 30.785 L 20.089 13.366 L 73.942 13.366 C 88.824 13.366 100.287 14.134 108.328 15.668 C 116.369 17.206 124.16 20.672 131.702 26.078 C 139.242 31.483 145.265 38.909 149.771 48.353 C 154.276 57.797 156.528 68.556 156.528 80.634 C 156.528 94.38 154.358 106.328 150.021 116.47 C 145.681 126.613 139.994 134.188 132.953 139.195 C 125.91 144.2 117.537 147.685 107.827 149.654 C 98.118 151.625 85.756 152.609 70.74 152.609 L 20.089 152.609 L 20.089 135.19 L 39.008 135.19 Z " fill="rgb(66,61,55)"/><path d=" M 185.957 22.773 C 185.957 19.707 187.041 17.034 189.211 14.765 C 191.379 12.498 194.132 11.361 197.47 11.361 C 200.605 11.361 203.308 12.467 205.578 14.666 C 207.847 16.871 208.982 19.574 208.982 22.773 C 208.982 25.977 207.847 28.699 205.578 30.933 C 203.308 33.169 200.605 34.29 197.47 34.29 C 194.266 34.29 191.547 33.154 189.311 30.881 C 187.074 28.617 185.957 25.914 185.957 22.773 Z  M 188.66 135.69 L 188.66 72.625 L 173.644 72.625 L 173.644 55.711 L 207.68 55.711 L 207.68 135.69 L 222.694 135.69 L 222.694 152.608 L 173.644 152.608 L 173.644 135.69 L 188.66 135.69 Z " fill="rgb(66,61,55)"/><path d=" M 361.237 95.049 L 421.299 95.049 L 421.299 114.069 L 361.237 114.069 L 361.237 95.049 Z " fill="rgb(66,61,55)"/><path d=" M 449.027 135.19 L 449.027 30.785 L 434.01 30.785 L 434.01 13.366 L 485.063 13.366 L 485.063 30.785 L 470.048 30.785 L 470.048 135.19 L 485.063 135.19 L 485.063 152.609 L 434.01 152.609 L 434.01 135.19 L 449.027 135.19 Z " fill="rgb(66,61,55)"/><path d=" M 497.877 72.625 L 497.877 55.711 L 510.49 55.711 L 510.49 40.795 L 529.51 23.375 L 529.51 55.711 L 547.429 55.711 L 547.429 72.625 L 529.51 72.625 L 529.51 119.675 C 529.51 127.215 529.926 131.871 530.761 133.638 C 531.595 135.404 533.679 136.292 537.017 136.292 C 540.553 136.292 544.024 135.627 547.429 134.291 L 547.429 151.606 C 542.556 153.344 537.683 154.213 532.813 154.213 C 527.006 154.213 522.302 152.924 518.699 150.355 C 515.094 147.789 512.826 144.567 511.892 140.695 C 510.956 136.826 510.49 130.151 510.49 120.674 L 510.49 72.625 L 497.877 72.625 Z " fill="rgb(66,61,55)"/><path d=" M 316.191 55.711 L 316.191 69.522 C 311.877 65.127 307.305 61.682 302.471 59.179 C 302.682 59.795 302.924 60.397 303.113 61.027 C 305.087 67.576 305.958 73.902 305.748 79.906 C 306.195 80.296 306.646 80.667 307.082 81.083 C 313.354 87.127 316.492 95.116 316.492 105.059 C 316.492 114.867 313.354 122.894 307.082 129.135 C 300.808 135.375 293.333 138.494 284.659 138.494 C 275.782 138.494 268.492 135.39 262.786 129.183 C 257.08 122.979 254.228 114.971 254.228 105.162 C 254.228 97.849 255.866 91.641 259.087 86.5 C 256.198 83.218 253.591 79.576 251.108 76.09 C 250.407 75.106 249.712 74.129 249.022 73.176 C 248.312 72.203 247.576 71.186 246.824 70.16 C 238.317 79.367 234.006 91.145 234.006 105.564 C 234.006 119.574 238.376 131.388 247.121 140.996 C 255.862 150.604 267.172 155.412 281.055 155.412 C 288.663 155.412 295.67 153.707 302.076 150.307 C 308.484 146.902 313.187 143.297 316.191 139.496 L 316.191 148.306 C 316.191 154.71 315.855 159.266 315.19 161.968 C 314.522 164.67 313.037 167.525 310.735 170.525 C 308.433 173.533 304.946 176.083 300.275 178.184 C 295.603 180.285 290.53 181.336 285.059 181.336 C 275.182 181.336 266.04 178.069 257.631 171.527 L 245.218 185.342 C 256.43 193.951 269.175 198.258 283.458 198.258 C 292.931 198.258 301.507 196.588 309.183 193.25 C 316.857 189.912 322.614 185.791 326.452 180.887 C 330.288 175.982 332.708 171.179 333.709 166.471 C 334.711 161.768 335.211 154.543 335.211 144.797 L 335.211 72.625 L 352.628 72.625 L 352.628 55.711 L 316.191 55.711 Z " fill="rgb(66,61,55)"/><path d=" M 235.204 27.778 C 262.398 19.581 291.091 34.988 299.288 62.178 C 301.499 69.518 302.381 77.08 301.39 84.209 C 301.353 84.598 301.365 85.01 301.4 85.426 C 300.16 86.191 299 87.074 297.905 88.04 C 297.667 85.552 297.619 83.102 297.66 80.734 C 297.81 72.183 275.138 37.022 237.821 36.027 C 262.057 40.352 277.51 53.543 284.397 60.812 C 291.744 68.556 301.165 88.033 285.785 92.666 C 269.662 97.529 260.672 82.424 252.258 70.828 C 239.315 53.002 224.297 33.125 208.859 46.222 C 215.214 37.705 224.252 31.082 235.204 27.778 Z " fill-rule="evenodd" fill="rgb(135,193,69)"/></g></g></g></g><g style="isolation:isolate"/></g></svg>