<?xml version="1.0" encoding="iso-8859-1"?>
<!-- Generator: Adobe Illustrator 19.0.0, SVG Export Plug-In . SVG Version: 6.00 Build 0)  -->
<svg version="1.1" id="Layer_1" xmlns="http://www.w3.org/2000/svg" xmlns:xlink="http://www.w3.org/1999/xlink" x="0px" y="0px"
	 viewBox="0 0 512 512" style="enable-background:new 0 0 512 512;" xml:space="preserve">
<circle style="fill:#FFEDB5;" cx="256" cy="256" r="256"/>
<path style="fill:#FEE187;" d="M369.778,144.218l-65.833,52.526l-68.072-68.072l-10.218,10.019l-44.177,36.237l75.61,75.611
	l-30.965,19.247l25.745,25.745v216.417c1.376,0.022,2.748,0.052,4.129,0.052c131.641,0,240.056-99.368,254.376-227.183
	L369.778,144.218z"/>
<path style="fill:#8BC180;" d="M317.393,183.748c-2.296-3.043-6.622-3.644-9.659-1.348l-46.158,34.847v-12.419
	c0-13.576-6.47-26.565-17.305-34.745l-33.871-25.572c-3.041-2.295-7.363-1.691-9.659,1.348c-2.295,3.039-1.689,7.363,1.348,9.659
	l33.871,25.572c7.404,5.589,11.823,14.464,11.823,23.74v164.948c0,3.808,3.088,6.896,6.896,6.896c3.808,0,6.896-3.088,6.896-6.896
	V234.525l54.467-41.12C319.085,191.112,319.69,186.789,317.393,183.748z"/>
<path style="fill:#6CAF5F;" d="M317.393,183.748c-2.296-3.043-6.622-3.644-9.659-1.348l-46.158,34.847v-12.419
	c0-8.966-2.838-17.668-7.875-24.907v196.655c0.322,0.047,0.645,0.098,0.979,0.098c3.808,0,6.896-3.088,6.896-6.896V234.525
	l54.467-41.12C319.085,191.112,319.69,186.789,317.393,183.748z"/>
<path style="fill:#3B9B27;" d="M285.775,155.681c25.636-19.323,84.004-11.462,84.004-11.462s-8.514,58.277-34.151,77.6
	s-44.918,10.642-58.685-7.623S260.139,175.006,285.775,155.681z"/>
<path style="fill:#2E821A;" d="M369.778,144.218c0,0-8.514,58.277-34.151,77.6s-44.918,10.642-58.685-7.623L369.778,144.218z"/>
<path style="fill:#3B9B27;" d="M231.441,125.004c-22.061-16.631-72.29-9.864-72.29-9.864s7.327,50.15,29.389,66.779
	s38.655,9.157,50.502-6.559C250.889,159.642,253.502,141.633,231.441,125.004z"/>
<path style="fill:#2E821A;" d="M159.151,115.14c0,0,7.327,50.15,29.389,66.779s38.655,9.157,50.502-6.559L159.151,115.14z"/>
<path style="fill:#3B9B27;" d="M249.477,244.193c-10.771-8.118-35.299-4.813-35.299-4.813s3.572,24.485,14.343,32.603
	c10.771,8.118,18.875,4.468,24.662-3.205C258.969,261.103,260.246,252.311,249.477,244.193z"/>
<path style="fill:#2E821A;" d="M214.176,239.38c0,0,3.572,24.485,14.343,32.603c10.771,8.118,18.875,4.468,24.662-3.205
	L214.176,239.38z"/>
<path style="fill:#FFC61B;" d="M19.082,353.113C57.337,446.336,148.992,512,256,512s198.663-65.664,236.918-158.887L19.082,353.113
	L19.082,353.113z"/>
<path style="fill:#EAA22F;" d="M253.702,353.113v158.842c0.767,0.007,1.527,0.045,2.298,0.045
	c107.008,0,198.663-65.664,236.918-158.887L253.702,353.113L253.702,353.113z"/>
<path style="fill:#D35933;" d="M247.777,353.023v25l-21.521,10.917l-17.205-12.65c-3.063-2.255-7.382-1.6-9.64,1.472
	c-2.257,3.067-1.598,7.383,1.472,9.64l11.597,8.526l-3.163,1.605c-1.993,1.012-3.374,2.927-3.701,5.139l-2.369,15.991l-23.14,6.539
	c-3.665,1.038-5.796,4.848-4.761,8.513c0.859,3.038,3.625,5.022,6.634,5.022c0.621,0,1.253-0.084,1.879-0.26l17.172-4.853
	l-2.31,15.594c-0.557,3.767,2.045,7.273,5.811,7.832c0.341,0.05,0.683,0.076,1.019,0.076c3.362,0,6.304-2.463,6.813-5.887
	l6.372-43.018l29.043-14.731v24.557c0,1.072,0.262,2.101,0.717,3.031c0.017,0.038,0.026,0.084,0.045,0.122l20.975,40.8
	c1.222,2.377,3.636,3.744,6.139,3.744c1.062,0,2.139-0.247,3.148-0.764c3.387-1.741,4.72-5.899,2.981-9.287l-11.028-21.451
	l27.638,14.462l6.892,21.444c0.941,2.924,3.648,4.787,6.565,4.787c0.698,0,1.41-0.109,2.112-0.331
	c3.627-1.167,5.622-5.051,4.456-8.675l-7.758-24.135c-0.555-1.724-1.764-3.162-3.368-3.999l-17.573-9.195l22.132-15.867
	c3.094-2.219,3.805-6.527,1.586-9.623c-2.22-3.094-6.53-3.803-9.623-1.586l-27.777,19.915l-14.464-7.568v-60.849L247.777,353.023
	L247.777,353.023z"/>
<path style="fill:#B54324;" d="M318.416,465.93l-7.758-24.135c-0.555-1.724-1.764-3.162-3.368-3.999l-17.574-9.195l22.132-15.867
	c3.094-2.219,3.805-6.527,1.586-9.623c-2.22-3.094-6.53-3.803-9.623-1.586l-27.777,19.915l-14.464-7.568v-60.849h-7.866v78.22
	L269.515,462c1.222,2.377,3.636,3.744,6.139,3.744c1.062,0,2.139-0.247,3.148-0.764c3.387-1.741,4.72-5.899,2.981-9.287
	l-11.028-21.451l27.638,14.462l6.892,21.444c0.941,2.924,3.648,4.787,6.565,4.787c0.698,0,1.41-0.109,2.112-0.331
	C317.585,473.44,319.579,469.556,318.416,465.93z"/>
<g>
</g>
<g>
</g>
<g>
</g>
<g>
</g>
<g>
</g>
<g>
</g>
<g>
</g>
<g>
</g>
<g>
</g>
<g>
</g>
<g>
</g>
<g>
</g>
<g>
</g>
<g>
</g>
<g>
</g>
</svg>
