<svg xmlns="http://www.w3.org/2000/svg" width="512" height="512"><path d="M341.041 46.871c-6.407-5.254-15.858-4.317-21.109 2.088C301.161 71.853 284.358 93.016 271 116.59V15.201c0-8.284-6.716-15-15-15-8.285 0-15 6.716-15 15v101.39c-13.359-23.575-30.161-44.737-48.932-67.631-5.253-6.406-14.703-7.343-21.109-2.088-6.406 5.252-7.342 14.704-2.089 21.11 42.478 51.808 70.51 90.991 71.302 157.269l-24.378 47.865c-7.16 14.06-6.66 30.61 1.339 44.275 7.805 13.333 21.59 21.663 36.877 22.284a50.571 50.571 0 0 0 4.003-.001c15.287-.627 29.072-8.963 36.874-22.3 7.993-13.662 8.489-30.21 1.329-44.264l-24.388-47.865c.795-66.274 28.826-105.454 71.302-157.262 5.253-6.408 4.317-15.86-2.089-21.112z" fill="#423e37"/><path d="M497 269.622H362.885c-28.771 0-39.215 23.269-39.215 38.91 0 37.098-30.394 67.278-67.753 67.278-37.99 0-67.75-29.324-67.75-66.771-.011-15.845-10.465-39.417-39.215-39.417H15c-8.284 0-15 6.716-15 15v142.161h512v-142.16c0-8.285-6.716-15.001-15-15.001zM0 456.783v10.08C0 491.64 20.159 511.8 44.938 511.8h422.123c24.779 0 44.938-20.159 44.938-44.938v-10.079H0z" fill="#423e37"/></svg>