<?xml version="1.0" encoding="iso-8859-1"?>
<!-- Generator: Adobe Illustrator 19.0.0, SVG Export Plug-In . SVG Version: 6.00 Build 0)  -->
<svg version="1.1" id="Layer_1" xmlns="http://www.w3.org/2000/svg" xmlns:xlink="http://www.w3.org/1999/xlink" x="0px" y="0px"
	 viewBox="0 0 512 512" style="enable-background:new 0 0 512 512;" xml:space="preserve">
<circle style="fill:#91E8ED;" cx="256" cy="256" r="256"/>
<path style="fill:#38C6D9;" d="M228.007,285.793l-10.414,23.847l-71.552-12.336l104.955,104.741l0.102,1.005l94.074,92.981
	c81.744-30.38,143.77-101.312,161.611-188.359L312.889,113.778l-59.492,53.153l-37.836,43.654l36.704,35.999l-0.053,63.223
	L228.007,285.793z"/>
<path style="fill:#6CAF5F;" d="M260.125,378.82l-30.861-91.045c-0.71-2.095-2.734-3.455-4.942-3.322l-75.002,4.546
	c-5.554,0.336-6.346,8.197-0.971,9.635l36.031,9.631c0.936,0.25,1.776,0.772,2.415,1.498l65,73.869
	C255.34,387.66,261.847,383.897,260.125,378.82z"/>
<g>
	<path style="fill:#477F3C;" d="M256.688,339.739l42.444-63.666c0.977-1.465,2.813-2.095,4.484-1.538l56.735,18.911
		c4.201,1.4,3.194,7.608-1.234,7.608h-29.686c-0.771,0-1.524,0.228-2.165,0.655l-65.164,68.067
		C258.551,372.145,254.319,343.29,256.688,339.739z"/>
	<path style="fill:#477F3C;" d="M256,405.118c-3.808,0-6.896-3.087-6.896-6.896V199.111c0-3.808,3.088-6.896,6.896-6.896
		c3.808,0,6.896,3.088,6.896,6.896v199.111C262.896,402.03,259.808,405.118,256,405.118z"/>
</g>
<path style="fill:#2E5E24;" d="M256,192.215c-0.197,0-0.381,0.041-0.574,0.059v212.787c0.193,0.016,0.378,0.059,0.574,0.059
	c3.808,0,6.896-3.087,6.896-6.896V199.111C262.896,195.303,259.808,192.215,256,192.215z"/>
<polygon style="fill:#C92F00;" points="256,226.263 215.774,142.222 256,101.995 296.227,142.222 "/>
<polygon style="fill:#930000;" points="296.227,142.222 256,101.995 256,226.263 "/>
<path style="fill:#FF7F4F;" d="M256,227.556L256,227.556c-31.418,0-56.889-25.471-56.889-56.889v-56.889l0,0
	c31.418,0,56.889,25.471,56.889,56.889V227.556z"/>
<path style="fill:#B54324;" d="M256,227.556L256,227.556c31.418,0,56.889-25.471,56.889-56.889v-56.889l0,0
	c-31.418,0-56.889,25.471-56.889,56.889V227.556z"/>
<g>
</g>
<g>
</g>
<g>
</g>
<g>
</g>
<g>
</g>
<g>
</g>
<g>
</g>
<g>
</g>
<g>
</g>
<g>
</g>
<g>
</g>
<g>
</g>
<g>
</g>
<g>
</g>
<g>
</g>
</svg>
