<?xml version="1.0" encoding="iso-8859-1"?>
<!-- Generator: Adobe Illustrator 19.0.0, SVG Export Plug-In . SVG Version: 6.00 Build 0)  -->
<svg xmlns="http://www.w3.org/2000/svg" xmlns:xlink="http://www.w3.org/1999/xlink" version="1.1" id="Capa_1" x="0px" y="0px" viewBox="0 0 512.001 512.001" style="enable-background:new 0 0 512.001 512.001;" xml:space="preserve" width="512px" height="512px">
<g>
	<g>
		<path d="M358.932,434.37H336.39c-12.962-25.496-37.406-43.399-65.393-48.174v-45.45c1.422-1.418,3.383-3.373,9.818-9.789    c-4.211-1.007-8.236-2.208-9.818-2.77V298.39l88.209-87.982c5.859-5.849,15.356-5.84,21.205,0.03    c5.849,5.859,5.839,15.359-0.03,21.208l-99.566,99.311c45.59,11.007,94.9-1.632,129.769-36.427    c36.391-36.297,49.448-89.322,34.082-138.398c-1.47-4.69-5.149-8.369-9.848-9.829c-49.158-15.319-102.286-2.3-138.657,33.977    c-10.353,10.335-18.749,21.952-25.164,34.373v-11.835c0-9.349-3.649-18.138-10.277-24.758l-8.328-8.299    c-0.72,2.99-1.54,5.969-2.469,8.929c-1.47,4.69-5.159,8.369-9.848,9.829c-2.949,0.92-5.919,1.74-8.898,2.45l8.358,8.339    c0.95,0.94,1.47,2.19,1.47,3.51v183.378c-27.987,4.775-52.431,22.678-65.393,48.174H153.07c-34.427,0-62.435,28.097-62.435,62.632    c0,8.283,6.714,14.999,14.996,14.999H406.37c8.282,0,14.996-6.715,14.996-14.999C421.367,462.466,393.359,434.37,358.932,434.37z" fill="#423E37"/>
	</g>
</g>
<g>
	<g>
		<path d="M152.795,70.419l99.596,99.341c11.237-46.486-2.359-95.362-36.551-129.469C179.468,4.015,126.341-9.004,77.183,6.315    c-4.699,1.46-8.378,5.14-9.848,9.829c-15.366,49.076-2.309,102.101,34.082,138.398c33.785,33.713,82.685,47.793,129.759,36.427    L131.62,91.657c-5.869-5.849-5.879-15.348-0.03-21.208C137.439,64.58,146.936,64.57,152.795,70.419z" fill="#423E37"/>
	</g>
</g>
<g>
</g>
<g>
</g>
<g>
</g>
<g>
</g>
<g>
</g>
<g>
</g>
<g>
</g>
<g>
</g>
<g>
</g>
<g>
</g>
<g>
</g>
<g>
</g>
<g>
</g>
<g>
</g>
<g>
</g>
</svg>
