<svg xmlns="http://www.w3.org/2000/svg" viewBox="0 0 512.001 512.001" width="512" height="512"><path d="M358.932 434.37H336.39c-12.962-25.496-37.406-43.399-65.393-48.174v-45.45l9.818-9.789c-4.211-1.007-8.236-2.208-9.818-2.77V298.39l88.209-87.982c5.859-5.849 15.356-5.84 21.205.03 5.849 5.859 5.839 15.359-.03 21.208l-99.566 99.311c45.59 11.007 94.9-1.632 129.769-36.427 36.391-36.297 49.448-89.322 34.082-138.398a14.986 14.986 0 0 0-9.848-9.829c-49.158-15.319-102.286-2.3-138.657 33.977a137.986 137.986 0 0 0-25.164 34.373v-11.835c0-9.349-3.649-18.138-10.277-24.758l-8.328-8.299c-.72 2.99-1.54 5.969-2.469 8.929a15.006 15.006 0 0 1-9.848 9.829c-2.949.92-5.919 1.74-8.898 2.45l8.358 8.339a4.91 4.91 0 0 1 1.47 3.51v183.378c-27.987 4.775-52.431 22.678-65.393 48.174H153.07c-34.427 0-62.435 28.097-62.435 62.632 0 8.283 6.714 14.999 14.996 14.999H406.37c8.282 0 14.996-6.715 14.996-14.999.001-34.536-28.007-62.632-62.434-62.632zM152.795 70.419l99.596 99.341c11.237-46.486-2.359-95.362-36.551-129.469C179.468 4.015 126.341-9.004 77.183 6.315a14.988 14.988 0 0 0-9.848 9.829c-15.366 49.076-2.309 102.101 34.082 138.398 33.785 33.713 82.685 47.793 129.759 36.427L131.62 91.657c-5.869-5.849-5.879-15.348-.03-21.208 5.849-5.869 15.346-5.879 21.205-.03z" fill="#423E37"/></svg>