<svg xmlns="http://www.w3.org/2000/svg" width="512" height="512"><path d="M473 311l-51 118-105-2-120-4-30-121c14-18 34-28 55-30a105 105 0 0 1 189 0c26 2 49 16 62 39z" data-original="#B35C4B" fill="#b35c4b"/><path d="M473 311l-51 118-105-2V212c40 0 77 24 94 60 26 2 49 16 62 39z" data-original="#8B432D" fill="#8b432d"/><path d="M506 350l-87 126c-17 23-44 36-87 36H60l-30-15V344l15-12h24c10 0 21-4 29-10a106 106 0 0 1 146 6c2 3 6 4 9 4h94c16 0 30 14 30 30 0 17-14 30-30 30H227c-8 0-15 7-15 15s7 15 15 15h130c6 0 16-4 22-10l81-100a30 30 0 0 1 46 38z" data-original="#FEDBAB" fill="#fedbab"/><path d="M60 512H15c-8 0-15-7-15-15V317c0-8 7-15 15-15h15c17 0 30 13 30 30v180z" data-original="#CD5360" data-old_color="#180608" fill="#cd5360"/><path d="M347 392h-30v-60h30c16 0 30 14 30 30 0 17-14 30-30 30z" data-original="#FEC478" fill="#fec478"/><path d="M506 350l-87 126c-17 23-44 36-87 36h-15v-90h40c6 0 16-4 22-10l81-100a30 30 0 0 1 46 38z" data-original="#FEC478" fill="#fec478"/><path d="M407 182h-60c-8 0-15-7-15-15v-30c0-58 47-107 105-107 15 0 30-6 41-17l8-9c5-4 11-5 17-3a15 15 0 0 1 9 14v62c0 58-47 105-105 105z" data-original="#6F9F38" data-old_color="#87C145" fill="#6f9f38"/><path d="M287 182h-60c-58 0-105-47-105-105V15a15 15 0 0 1 9-14c6-2 12-1 17 3l8 9c11 11 26 17 41 17 58 0 105 49 105 107v30c0 8-7 15-15 15z" data-original="#87C145" data-old_color="#6ECD24" fill="#87c145"/><path d="M432 118l-74 63a76 76 0 0 0-26 57v49c0 8-7 15-15 15s-15-7-15-15v-49c0-21-10-42-26-57l-74-63c-6-5-7-15-1-21 5-6 15-7 21-1l73 63c9 7 16 17 22 27 6-10 13-20 22-27l73-63c6-6 16-5 21 1 6 6 5 16-1 21z" data-original="#61902C" data-old_color="#3E5820" fill="#61902c"/><path d="M432 118l-74 63a76 76 0 0 0-26 57v49c0 8-7 15-15 15V186c6-10 13-20 22-27l73-63c6-6 16-5 21 1 6 6 5 16-1 21z" data-original="#3E5820" data-old_color="#5DAD1D" fill="#3e5820"/><path d="M350 322h-5c-6 0-12-3-14-10-1-4-6-10-14-10s-13 6-14 10a15 15 0 1 1-28-10c5-15 20-30 42-30s37 15 42 30c3 8-1 17-9 20z" data-original="#61902C" data-old_color="#3E5820" fill="#61902c"/><path d="M350 322h-5c-6 0-12-3-14-10-1-4-6-10-14-10v-30c22 0 37 15 42 30 3 8-1 17-9 20z" data-original="#3E5820" data-old_color="#5DAD1D" fill="#3e5820"/></svg>