<svg xmlns="http://www.w3.org/2000/svg" viewBox="0 0 512.002 512.002" width="512" height="512"><circle cx="256.001" cy="256" r="256" data-original="#273B7A" data-old_color="#273B7A" fill="#cd5360"/><path d="M510.055 287.639l-75.311-75.311-26.307 68.067-152.165-152.166-22.275 83.354-19.84 57.004 42.062 42.062-4.922 8.325 72.695 72.695-27.102 23.166L94.383 212.328l7.887 57.465 5.051 65.367 76.383 76.383-18.18 14.25 86.154 86.154c1.439.024 2.877.055 4.322.055 130.673-.002 238.467-97.908 254.055-224.363z" data-original="#121149" data-old_color="#CD5360" fill="#842f38"/><path d="M429.831 209.81a9.118 9.118 0 0 0-9.75 5.227c-.024.053-.048.107-.076.159l-30.66 61.264c.379.359.743.738 1.093 1.138 5.486 6.254 5.661 15.507.421 21.932l-24.823 30.577a4.507 4.507 0 0 1-6.342.659c-1.934-1.569-2.27-4.449-.659-6.342l24.823-30.577c2.436-3.031 2.377-7.363-.198-10.299a7.931 7.931 0 0 0-5.48-2.7 7.927 7.927 0 0 0-5.785 1.965l-39.176 34.38a30.617 30.617 0 0 0-9.218 14.498l-21.794 75.214 39.622 13.352 1.555-22.812a32.278 32.278 0 0 1 13.474-24.138l47.494-33.957a41.673 41.673 0 0 0 15.831-26.312l17.261-93.637c.312-4.649-2.998-8.84-7.613-9.591z" data-original="#FEE187" fill="#fee187"/><path data-original="#B54324" data-old_color="#0F00FF" fill="#0c048d" d="M296.107 415.514l5.28-28.097 54.724 10.284-5.28 28.097z"/><path d="M86.531 209.81a9.12 9.12 0 0 1 9.75 5.227c.024.053.048.107.076.159l30.66 61.264c-.379.359-.743.738-1.093 1.138-5.485 6.254-5.661 15.507-.421 21.932l24.823 30.577a4.507 4.507 0 0 0 6.342.659c1.934-1.569 2.27-4.449.659-6.342l-24.823-30.577c-2.436-3.031-2.377-7.363.198-10.299a7.931 7.931 0 0 1 5.48-2.7 7.927 7.927 0 0 1 5.785 1.965l39.176 34.38a30.617 30.617 0 0 1 9.218 14.498l21.794 75.214-39.622 13.352-1.555-22.812a32.278 32.278 0 0 0-13.474-24.138L112.01 339.35a41.673 41.673 0 0 1-15.831-26.312l-17.261-93.637c-.31-4.649 2.999-8.84 7.613-9.591z" data-original="#FFEDB5" fill="#ffedb5"/><path data-original="#D35933" class="active-path" data-old_color="#413D97" fill="#413d96" d="M165.515 425.786l-5.28-28.098 54.723-10.284 5.28 28.097z"/><path d="M255.429 320.359a6.897 6.897 0 0 1-6.896-6.896v-94.239a6.897 6.897 0 0 1 13.792 0v94.239a6.899 6.899 0 0 1-6.896 6.896z" data-original="#8BC180" fill="#8bc180"/><path d="M255.429 212.328a6.897 6.897 0 0 1 6.896 6.896v94.239a6.897 6.897 0 0 1-6.896 6.896V212.328z" data-original="#6CAF5F" fill="#6caf5f"/><path d="M200.86 227.049c.033-42.899 55.411-98.819 55.411-98.819s55.296 56.003 55.263 98.902c-.033 42.899-24.817 56.473-55.38 56.451-30.561-.025-55.327-13.635-55.294-56.534z" data-original="#3B9B27" fill="#3b9b27"/><path d="M256.272 128.229s55.296 56.003 55.263 98.902c-.033 42.899-24.817 56.473-55.38 56.451l.117-155.353z" data-original="#2E821A" fill="#2e821a"/></svg>