<svg xmlns="http://www.w3.org/2000/svg" viewBox="0 0 90 90" width="512" height="512"><path d="M2.97 21.428l37.499 20.144c1.259.676 2.889 1.002 4.531 1.002 1.643 0 3.271-.326 4.531-1.002 1.258-.676 35.058-18.831 37.498-20.144 2.443-1.311 4.755-5.428.268-5.428H2.703c-4.484 0-2.176 4.117.267 5.428zm85.094 10c-2.773 1.447-36.835 19.26-38.533 20.144-1.699.887-2.889 1.002-4.531 1.002s-2.832-.115-4.531-1.002c-1.698-.884-35.758-18.697-38.533-20.144C-.017 30.411 0 31.604 0 32.526v36.679C0 71.301 2.792 74 4.959 74h80.082C87.208 74 90 71.301 90 69.205V32.526c0-.922.02-2.115-1.936-1.098z" fill="#fff"/></svg>