<svg xmlns="http://www.w3.org/2000/svg" viewBox="0 0 512.002 512.002" width="512" height="512"><path d="M256.001 120.06c-8.275 0-14.998 6.723-14.998 14.998 0 8.275 6.723 14.998 14.998 14.998s14.998-6.723 14.998-14.998c0-8.275-6.723-14.998-14.998-14.998z" fill="#423e37"/><path d="M405.979 302.033h-86.387l2.999-1.5c7.499-3.899 10.499-12.9 6.9-20.098-3.899-7.499-12.898-10.497-20.096-6.898L271 292.734v-30.495c7.199-5.999 18.597-16.498 25.197-30.896 14.998 5.699 32.394 6.3 47.392 3.301 5.999-1.201 10.799-5.999 11.999-11.999.601-3.3 4.798-26.696-3.001-47.694 20.399-9.299 33.895-28.795 35.995-31.495a15.485 15.485 0 0 0 0-16.798c-2.1-2.699-15.597-22.197-35.995-31.495 7.799-20.997 3.601-44.392 3.001-47.694-1.199-5.998-5.999-10.798-11.999-11.997-3.299-.601-26.695-4.8-47.692 2.999-9.299-20.397-28.797-33.895-31.495-35.995a15.494 15.494 0 0 0-16.799 0c-2.699 2.1-22.197 15.599-31.495 35.995-20.997-7.799-44.392-3.599-47.692-2.999-5.999 1.199-10.799 5.999-11.999 11.997-.601 3.3-4.798 26.696 3.001 47.694-20.399 9.299-33.895 28.797-35.995 31.495-3.3 5.1-3.3 11.698 0 16.798 2.1 2.701 15.597 22.197 35.995 31.495-7.799 20.997-3.602 44.394-3.001 47.694 1.199 5.999 5.999 10.798 11.999 11.999 14.998 2.999 32.394 2.399 47.392-3.301 6.6 14.399 17.998 24.897 25.197 30.896v30.495l-38.395-19.197c-7.199-3.599-16.197-.601-20.096 6.898-3.599 7.199-.599 16.199 6.9 20.098l2.999 1.5h-86.387c-8.4 0-14.998 6.598-14.998 14.998 0 19.197 13.198 37.494 32.696 43.194 3.897.899 8.098 1.8 12.297 1.8h239.964c4.199 0 8.4-.901 12.297-1.8 19.798-5.699 32.696-24.296 32.696-43.194-.001-8.4-6.599-14.998-14.999-14.998zM211.008 135.058c0-24.897 20.096-44.993 44.993-44.993 24.897 0 44.993 20.096 44.993 44.993 0 24.895-20.096 44.993-44.993 44.993-24.897 0-44.993-20.098-44.993-44.993zM131.895 392.02l19.723 108.584c1.5 6.598 7.499 11.398 14.397 11.398h179.973c6.898 0 12.898-4.8 14.397-11.398l19.798-108.584H131.895z" fill="#423e37"/></svg>