<svg xmlns="http://www.w3.org/2000/svg" height="512" viewBox="-31 0 511 512" width="512"><path d="M353.48 126.238c-41.222-10.383-84.859-.437-108.648 24.758-.957 1.012-2.297 1.457-3.398 2.281C247.352 100.953 291.37 60 345.246 60c8.293 0 15-6.71 15-15s-6.707-15-15-15c-43.844 0-82.48 21.332-107.152 53.809C228.258 36.039 185.879 0 135.246 0h-60c-8.289 0-15 6.71-15 15 0 57.89 47.11 104.988 105 104.988h53.293c-3.93 11.02-6.328 22.664-7.258 34.785-8.031-4.746-42.394-47.687-111.937-30.82-43.504 10.535-76.817 42.234-89.106 84.785C-.559 246.11-2.477 291.766 4.98 334c17.313 98.23 77.18 178 139.247 178 12.32 0 24.14-3.02 35.156-8.98 28.39-15.38 63.355-15.352 91.742 0 10.973 5.96 22.793 8.98 35.145 8.98 62.078 0 121.933-79.781 139.246-178.016 7.191-40.707 5.668-84.992-4.16-121.48-11.778-43.727-43.813-75.16-87.876-86.266zm0 0" fill="#423e37"/></svg>