<svg xmlns="http://www.w3.org/2000/svg" viewBox="0 0 511.187 511.187" width="512" height="512"><path d="M189.588 352.253l-24.533-4.267-3.2-1.067s-13.867-11.733-9.6-19.2c4.267-7.467 12.8 0 14.933 4.267 3.2 3.2 9.6 13.867 16 18.133l6.4 2.134z" data-original="#48B9A5" data-old_color="#87C145" fill="#74a73b"/><path d="M269.588 22.653s-7.467 14.933-6.4 27.733 1.067 13.867 1.067 18.133c-1.067 5.333 2.133 26.667 5.333 33.067 3.2 7.467 8.533 12.8 8.533 12.8l6.4 27.733-1.067 21.333s34.133 11.733 54.4 0 34.133-23.467 34.133-23.467-18.133-5.333-26.667-11.733c-9.6-6.4-12.8-17.067-12.8-22.4 0-5.333 1.067-19.2 2.133-23.467 1.067-3.2 5.333-53.333 5.333-53.333l-33.067-19.2c.002.001-26.665 3.201-37.331 12.801z" data-original="#FFD15C" data-old_color="#F26F5A" fill="#9a7428"/><path d="M263.188 57.853s-1.067-19.2 6.4-30.933c0 0 17.067-5.333 25.6-8.533s27.733-2.133 30.933 7.467-6.4 11.733-1.067 16c4.267 4.267 5.333 8.533 5.333 16s-2.133 12.8-2.133 12.8l2.133 1.067s3.2-11.733 9.6-9.6c0 0 4.267-6.4 5.333-17.067 1.067-10.667 0-20.267-8.533-24.533 0 0 0-19.2-27.733-20.267s-39.467 1.067-45.867 9.6c-6.399 7.466-9.599 30.933.001 47.999z" data-original="#425A6B" data-old_color="#425A6B" fill="#008f95"/><ellipse transform="rotate(-67.251 335.598 70.503)" cx="335.597" cy="70.502" rx="12.8" ry="6.4" data-original="#FFD15C" data-old_color="#F26F5A" fill="#9a7428"/><path d="M297.321 133.587c21.333-8.533 29.867-34.133 29.867-34.133-6.4 17.067-27.733 27.733-37.333 26.667-9.6-1.067-11.733-10.667-11.733-10.667l6.4 27.733-1.067 21.333s2.133 1.067 6.4 2.133c22.4-4.267 26.667-33.067 21.333-27.733-6.4 3.2-32 1.067-13.867-5.333z" data-original="#F5B54C" class="active-path" data-old_color="#775826" fill="#725424"/><path d="M284.521 142.12s-2.133 17.067 6.4 19.2c8.533 2.133 24.533 1.067 37.333-6.4 12.8-7.467 27.733-21.333 27.733-21.333s14.933 3.2 24.533 9.6c9.6 6.4 27.733 27.733 30.933 33.067s7.467 59.733 5.333 73.6c0 0-45.867 2.133-64 0 0 0 20.267 71.467 17.067 104.533l-135.467-8.533-12.8-92.8s7.467-46.933 10.667-60.8c2.133-13.867 2.133-21.333 9.6-25.6 7.468-3.201 38.401-13.867 42.668-24.534z" data-original="#E8EAE8" fill="#e8eae8"/><path d="M352.788 250.92s-1.067-5.333 0-11.733 14.933-18.133 14.933-21.333c1.067-3.2-13.867 16-13.867 16s3.2-14.933 5.333-22.4c3.2-7.467-5.333 7.467-5.333 10.667s0-22.4 2.133-28.8c2.133-6.4-6.4 8.533-6.4 22.4v20.267c-2.133 0-6.4-33.067-2.133-43.733 4.267-9.6-5.333 2.133-3.2 28.8 2.134 15.998 8.534 29.865 8.534 29.865z" data-original="#CED6E0" fill="#ced6e0"/><path d="M378.388 511.187H236.521s-3.2-16-3.2-30.933-2.133-94.933 1.067-109.867c3.2-14.933-1.067-122.667-1.067-122.667s7.467-32 8.533-41.6c1.067-8.533 14.933-45.867 14.933-45.867l21.333-11.733c-12.8 11.733-20.267 44.8-24.533 55.467-3.2 9.6-10.667 45.867-10.667 45.867h56.533l2.133-10.667c4.267-19.2 10.667-38.4 19.2-56.533 1.067-2.133 2.133-4.267 3.2-5.333 6.4-10.667 22.4-40.533 32-43.733l14.933 6.4s-6.4-2.133-22.4 22.4c-11.733 18.133-18.133 39.467-20.267 50.133 0 0 0 1.067-1.067 5.333-3.2 10.667-7.467 35.2-7.467 35.2 8.533-1.067 11.733 9.6 11.733 9.6s2.133 32 5.333 56.533 33.067 23.467 33.067 23.467 1.067 46.933 3.2 59.733c3.2 12.8 4.267 33.067 6.4 52.267 1.07 18.133-1.063 56.533-1.063 56.533z" data-original="#425A6B" data-old_color="#425A6B" fill="#008f95"/><path d="M139.454 255.187c-4.267-7.467 97.067-17.067 103.467-9.6l-25.6 28.8-77.867-19.2z" data-original="#F05640" fill="#f05640"/><path d="M238.654 250.92c0 4.267-21.333 8.533-46.933 10.667s-46.933 1.067-46.933-3.2 21.333-8.533 46.933-10.667c25.6-2.133 46.933-1.067 46.933 3.2z" data-original="#FFD15C" data-old_color="#F26F5A" fill="#9a7428"/><path d="M178.921 246.653s-8.533-23.467-17.067-33.067c-8.533-9.6-43.733-35.2-51.2-40.533-7.467-5.333-11.733-7.467-11.733-7.467l6.4-3.2s24.533 17.067 32 22.4c8.533 5.333 32 26.667 37.333 36.267 5.333 10.667 7.467 30.933 7.467 30.933l-3.2-5.333z" data-original="#67C5B8" data-old_color="#67C5B8" fill="#87c145"/><path d="M182.121 260.52s-1.067-20.267-18.133-25.6c-16-5.333-26.667-10.667-41.6-1.067-13.867 8.533-26.667 30.933-26.667 30.933s-4.267 1.067 0-6.4c4.267-8.533 18.133-27.733 29.867-32s32-3.2 42.667 3.2c11.733 6.401 12.799 21.334 13.866 30.934zM185.321 247.72s9.6-30.933 24.533-36.267c14.933-5.333 38.4-8.533 55.467-3.2 17.067 5.333 10.667-11.733-7.467-12.8-18.133-2.133-50.133 4.267-57.6 13.867-7.466 8.533-13.866 24.533-14.933 38.4z" data-original="#48B9A5" data-old_color="#87C145" fill="#74a73b"/><path d="M185.321 247.72l5.333-17.067s-3.2-24.533 2.133-36.267c5.333-11.733 12.8-16 12.8-18.133 0-3.2-3.2-3.2-7.467 1.067-3.2 4.267-10.667 13.867-12.8 23.467-2.133 9.6-7.467 41.6-3.2 60.8l3.201-13.867" data-original="#67C5B8" data-old_color="#67C5B8" fill="#87c145"/><path d="M205.588 257.32l-25.6 1.067s-2.133-23.467 13.867-25.6l7.467-1.067s-5.333 3.2-3.2 10.667c1.066 7.466 7.466 14.933 7.466 14.933z" data-original="#48B9A5" data-old_color="#87C145" fill="#74a73b"/><path d="M173.588 345.853l-34.133-90.667c43.733 7.467 103.467-9.6 103.467-9.6l-12.8 97.067c-.001 7.467-56.534 10.667-56.534 3.2z" data-original="#F26F5A" data-old_color="#F26F5A" fill="#cd5360"/><path d="M289.854 294.653c-1.067 3.2-3.2 5.333-6.4 7.467-3.2 1.067-6.4 1.067-9.6 1.067-6.4-1.067-11.733-5.333-16-10.667s-7.467-10.667-10.667-17.067c-9.6-14.933-21.333-26.667-36.267-36.267-4.267-3.2-9.6-5.333-13.867-6.4-5.333 0-10.667 2.133-13.867 6.4 1.067-1.067 2.133-2.133 2.133-3.2 4.267-4.267 7.467-8.533 12.8-10.667 4.267-1.067 7.467-1.067 11.733-1.067 17.067 1.067 34.133 7.467 48 19.2 12.8 10.667 20.267 25.6 28.8 40.533 2.136 3.202 4.269 6.402 3.202 10.668z" data-original="#67C5B8" data-old_color="#67C5B8" fill="#87c145"/><path d="M416.788 250.92s-45.867 2.133-64 0c0 0 1.067 32 12.8 48 0 0 2.133 5.333-2.133 8.533-4.267 3.2-23.467 10.667-43.733 20.267-20.267 9.6-62.933 8.533-62.933 8.533l-1.067 23.467s37.333 0 48 2.133c10.667 2.133 35.2 4.267 58.667 0 22.4-4.267 32-3.2 35.2-3.2 3.2 0 8.533-2.133 10.667-9.6 1.067-7.467 5.333-29.867 6.4-46.933 2.132-16 2.132-51.2 2.132-51.2z" data-original="#FFD15C" data-old_color="#F26F5A" fill="#9a7428"/><path d="M294.121 511.187h-17.067s-4.267-20.267-5.333-29.867c-1.067-9.6 3.2-5.333 0-18.133-3.2-11.733-10.667-28.8-6.4-21.333s8.533 23.467 9.6 26.667c1.067 3.2 4.267 12.8 7.467 19.2 4.267 6.4 7.467 11.733 9.6 16 2.133 4.266 2.133 7.466 2.133 7.466z" data-original="#344A5E" fill="#344a5e"/><path d="M273.854 330.92v3.2c0 5.333-1.067 23.467-1.067 26.667v4.267s-25.6-1.067-32-2.133c-6.4-1.067-11.733-2.133-14.933-3.2-3.2-1.067-12.8 1.067-37.333-1.067-5.333 0-9.6-1.067-18.133-6.4-7.467-4.267-16-12.8-18.133-18.133-1.067-5.333 6.4-6.4 10.667-2.133s8.533 9.6 13.867 11.733c5.333 2.133 25.6 4.267 25.6 4.267s-6.4 0-13.867-4.267c-7.467-4.267-6.4-7.467-5.333-9.6s5.333-8.533 18.133-6.4c12.8 3.2 22.4 5.333 26.667 3.2 4.267-2.133 17.067-1.067 22.4-3.2 5.332-1.068 19.199 3.199 23.465 3.199z" data-original="#67C5B8" data-old_color="#67C5B8" fill="#87c145"/><path d="M197.054 349.053c1.067 0 2.133 0 3.2 1.067h3.2c-3.2 0-4.266-1.067-6.4-1.067z" data-original="#F5B54C" class="active-path" data-old_color="#775826" fill="#725424"/><path d="M206.654 349.053c-1.067 1.067-2.133 1.067-4.267 1.067h7.467c3.2 0 2.133 0 6.4 1.067s5.333 0 5.333 0c-1.067 0-6.4-1.067-9.6-1.067-3.199-1.067-3.199-1.067-5.333-1.067z" data-original="#48B9A5" data-old_color="#87C145" fill="#74a73b"/></svg>