<svg xmlns="http://www.w3.org/2000/svg" viewBox="0 0 512.001 512.001" width="512" height="512"><path d="M58.078 427.46L5.481 480.057c-7.308 7.308-7.308 19.156 0 26.463 7.308 7.308 19.156 7.308 26.463 0l52.597-52.597a47.366 47.366 0 0 1-26.463-26.463zM477.478 38.895l-.472-3.902-3.902-.472c-31.443-3.807-67.927 10.781-95.216 38.07-27.286 27.29-41.874 63.774-38.069 95.216l.472 3.902 3.902.472c3.306.4 6.669.597 10.07.597 28.944 0 60.727-14.249 85.145-38.668 27.288-27.288 41.876-63.773 38.07-95.215zM343.797 4.449c-5.931-5.932-15.547-5.932-21.478 0l-45.391 45.392c-23.702 17.472-40.802 48.736-45.331 83.724-4.954 38.272 5.766 76.075 27.976 98.654l2.756 2.803 3.379-2.008c27.226-16.182 47.217-50.009 52.17-88.281 3.724-28.775-1.413-57.283-13.63-79.257l39.549-39.549c5.931-5.931 5.931-15.547 0-21.478zM106.802 229.18l-2.756-2.802-3.379 2.008c-27.226 16.181-47.217 50.008-52.171 88.281-4.954 38.273 5.766 76.074 27.976 98.654l2.756 2.802 3.379-2.008c27.226-16.182 47.217-50.009 52.17-88.281 4.954-38.272-5.765-76.075-27.975-98.654zM198.359 137.623l-2.756-2.802-3.379 2.008c-27.226 16.181-47.217 50.008-52.171 88.281-4.954 38.273 5.766 76.075 27.976 98.654l2.756 2.802 3.379-2.008c27.226-16.182 47.217-50.009 52.17-88.281 4.954-38.272-5.765-76.075-27.975-98.654zM282.822 405.198c-22.58-22.209-60.385-32.928-98.654-27.975-38.272 4.954-72.1 24.945-88.281 52.171l-2.008 3.379 2.802 2.756c18.933 18.623 48.569 29.167 80.21 29.167 6.094 0 12.264-.392 18.444-1.192 38.273-4.954 72.1-24.944 88.281-52.171l2.008-3.379-2.802-2.756zM374.379 313.642c-22.58-22.21-60.387-32.931-98.654-27.976-38.272 4.954-72.1 24.945-88.281 52.171l-2.008 3.379 2.802 2.756c18.933 18.623 48.569 29.167 80.21 29.167 6.094 0 12.264-.391 18.444-1.191 38.273-4.954 72.1-24.944 88.281-52.171l2.008-3.379-2.802-2.756zM507.552 168.204c-5.931-5.932-15.547-5.932-21.478 0l-39.549 39.549c-21.975-12.218-50.485-17.356-79.257-13.631-38.272 4.954-72.1 24.945-88.281 52.171l-2.008 3.379 2.802 2.756c18.933 18.623 48.569 29.167 80.21 29.167 6.094 0 12.264-.391 18.444-1.191 34.989-4.529 66.254-21.629 83.726-45.332l45.39-45.39c5.932-5.931 5.932-15.547.001-21.478z" fill="#423e37"/></svg>