<svg xmlns="http://www.w3.org/2000/svg" width="512" height="512"><path d="M133.146 392l19.659 108.633A14.994 14.994 0 0 0 167.351 512h180a14.995 14.995 0 0 0 14.546-11.367L381.555 392H133.146zM407.35 300h-300c-8.291 0-15 6.709-15 15 0 24.814 20.186 47 45 47h240c24.814 0 45-22.186 45-47 0-8.291-6.709-15-15-15zM267.55 139.502c-1.802-6.806-3.965-12.73-11.7-10.8-11.176-3.196-50.064 14.442-70.201 48.9-5.383-15.737-8.519-24.692-15.3-40.5 43.5-27.9 61.201-80.091 38.701-128.391-3.963-7.927-13.008-10.745-20.101-7.2-27.026 12.548-48.499 31.956-56.999 65.99-15.752-23.627-28.201-38.02-47.4-61.8-5.099-6.601-14.699-7.5-21-2.401-6.599 5.099-7.5 14.699-2.399 21 12.308 15.384 23.614 29.174 33.6 42.9-23.101-5.7-47.1-3.6-68.701 6.598-7.5 3.301-10.8 12.301-7.5 19.801 12 25.499 33.001 44.7 59.401 54.3 23.638 8.488 44.095 7.705 65.099 1.8 4.256 9.493 9.31 22.225 14.099 37.8-22.903-14.319-52.712-20.017-81.899-12.301-7.213 2.407-12.645 9.311-10.499 18.6 7.2 27.001 24.6 49.501 48.9 63.6 10.499 6.001 21.9 10.201 33.6 12.001 1.2.301 2.399.601 3.6.601h54.3c.037-.014.073-.031.109-.045.156-.062.312-.125.467-.185 34.627-14.093 77.515-71.42 61.823-130.268zM485.951 73.798c-22.2-10.499-46.5-11.999-68.699-6.599 10.165-13.982 21.678-27.997 33.6-42.9 5.1-6.301 4.2-15.901-2.4-21-6.301-5.099-15.899-4.2-21 2.401-19.199 23.779-31.649 38.171-47.399 61.8-8.555-34.186-30.095-53.56-57.001-66.052-7.519-3.47-16.219-.562-20.099 7.2-22.5 48.3-4.801 100.552 38.699 128.452-5.7 13.2-10.8 26.699-15.3 40.5-6.899-11.701-15.899-22.2-26.999-30.601 4.799 30-.901 60.3-16.201 87-2.1 3.6-4.499 7.2-6.899 10.8C281.728 253 295.451 265.501 306.85 270c.126-.018 55.752-.036 55.878-.055 12.462-1.829 24.336-6.012 35.623-12.547 24.3-14.099 41.7-36.599 48.9-63.6 2.136-9.266-3.241-16.177-10.501-18.6-29.099-7.5-58.2-2.399-81.899 12.301 4.2-12.9 8.699-25.501 14.099-37.8 54.143 15.222 103.721-11.948 124.501-56.1 3.3-7.5 0-16.5-7.5-19.801z" fill="#423e37"/></svg>