<svg xmlns="http://www.w3.org/2000/svg" width="512" height="512"><path d="M406.083 299.882H105.915c-8.296 0-15.008 6.713-15.008 15.008 0 19.375 13.23 39.578 32.843 45.139v.002c3.9 1.105 7.932 1.885 12.182 1.885h240.134c4.248 0 8.281-.78 12.182-1.885v-.002c19.994-5.669 32.843-26.119 32.843-45.139 0-8.295-6.712-15.008-15.008-15.008zM131.73 391.933l19.812 108.661c1.501 6.603 7.504 11.406 14.407 11.406H346.05c6.903 0 12.907-4.804 14.407-11.406l19.812-108.661H131.73zM430.472 168.104c-.909-.732-17.719-14.027-42.826-23.553 16.987-20.813 24.887-40.746 25.312-41.83 3.493-8.963-2.241-18.835-11.711-20.284-1.129-.161-22.352-3.269-48.88 1.012 4.309-26.514 1.188-47.722 1.012-48.88-1.46-9.537-11.4-15.16-20.284-11.711-1.085.425-21.018 8.325-41.83 25.312-9.526-25.107-22.821-41.918-23.553-42.827-5.687-7.123-17.735-7.123-23.421 0-.732.909-14.027 17.72-23.553 42.827-20.813-16.987-40.746-24.887-41.83-25.312-8.725-3.435-18.804 2.037-20.284 11.711-.176 1.158-3.298 22.366 1.012 48.88-26.529-4.323-47.752-1.188-48.88-1.012-9.47 1.45-15.203 11.321-11.711 20.284.425 1.085 8.325 21.018 25.312 41.83-25.107 9.526-41.918 22.821-42.827 23.553-7.494 5.983-7.494 17.438 0 23.421.894.732 17.413 13.792 42.124 23.289-16.005 17.837-23.568 32.391-23.978 33.198-4.64 9 .856 20.038 10.978 21.662 2.125.308 52.763 8.062 96.367-17.09 13.869-8.011 24.927-18.31 33.974-28.685v45.965h30.017v-45.965c9.047 10.375 20.105 20.674 33.974 28.685 28.741 16.599 67.654 21.623 96.367 17.09 10.122-1.625 15.618-12.662 10.978-21.662-.41-.806-7.973-15.361-23.978-33.198 24.711-9.497 41.229-22.557 42.123-23.289 7.491-5.983 7.491-17.436-.004-23.421z" fill="#423e37"/></svg>