<svg xmlns="http://www.w3.org/2000/svg" width="512" height="512"><path d="M129.709 362.002l21.588 137.943c1.406 7.002 7.559 12.056 14.707 12.056h179.997c7.148 0 13.301-5.054 14.707-12.056l21.588-137.943H129.709zM406 270.003H106.004c-8.291 0-15 6.709-15 15 0 24.814 20.186 46.999 44.999 46.999H376c24.814 0 44.999-22.186 44.999-46.999.001-8.291-6.708-15-14.999-15zM211.427 113.735c-16.143-27.568-48.661-41.879-67.221-48.09-3.074 15.496-5.488 41.416 2.272 65.289 12.846 3.775 35.857 12.241 57.116 27.677 4.417-9.84 9.483-19.008 14.822-26.765-1.912-6.405-3.875-12.795-6.989-18.111zM367.841 65.675c-34.684 11.699-63.711 30.839-74.257 66.168 5.339 7.756 10.408 16.926 14.826 26.768 21.264-15.438 44.279-23.904 57.122-27.678 7.812-23.965 5.398-49.812 2.309-65.258zM111.182 193.448c-10.675.015-20.495.983-28.821 2.239.033.04.06.081.093.121-15.037 2.271-25.303 5.403-26.065 5.641-7.588 2.446-11.924 10.4-9.888 18.105.203.76 2.58 8.99 7.864 20.449h64.487c-5.649-15.686-7.633-31.811-7.67-46.555zM370.468 180.31c-.002-.026-.018-.046-.02-.071-.002-.029.011-.053.009-.082-.604-6.996-1.575-13.352-2.602-18.492-13.266 4.462-33.452 13.391-49.906 27.92.954 5.689 1.802 11.431 1.802 17.417 0 11.596-2.117 22.615-5.332 33.003h45.859v-.001c10.373-19.35 11.726-41.739 10.19-59.694z" fill="#423e37"/><g fill="#423e37"><path d="M194.055 189.58c-16.516-14.597-36.629-23.494-49.848-27.931-3.651 18.395-6.936 51.541 7.418 78.353h45.96c-3.215-10.388-5.332-21.406-5.332-33.002 0-5.987.848-11.731 1.802-17.42zM197.585 240.002v.001z"/></g><path d="M455.613 201.45c-.754-.255-11.01-3.393-26.045-5.663l.057-.073c-8.326-1.251-18.142-2.219-28.802-2.239-.04 14.736-2.025 30.853-7.672 46.53h64.485c4.915-10.655 7.231-18.252 7.705-19.915.035-.125.135-.456.159-.549l.002-.005c2.024-7.699-2.308-15.642-9.889-18.086zM256.031 132.456c-12.891 14.546-33.779 42.978-33.779 74.545 0 11.662 3.159 22.701 7.412 33.003h52.675c4.254-10.302 7.412-21.341 7.412-33.003.001-31.729-20.829-60.058-33.72-74.545zM111.404 97.505h-.3c-29.7.3-53.398 7.5-54.599 8.101-7.5 2.1-11.699 9.6-10.199 17.1.299 1.8 5.098 22.5 17.698 45.898 12.301-2.699 29.702-5.4 49.5-5.099 1.5-10.501 3.6-18.001 4.799-22.2-4.799-14.701-6.599-29.999-6.899-43.8zM308.545 62.636l-.002.002zM265.92 3.757c-5.654-5.01-14.18-5.01-19.834 0-1.32 1.161-27.268 24.615-42.624 58.884 20.12 14.591 29.563 27.441 37.041 42.548 7.846-7.89 15.87-13.889 25.417-5.429.388.341 2.664 2.498 5.576 5.424 7.434-15.059 16.923-27.953 37.049-42.547C293.186 28.37 267.24 4.918 265.92 3.757zM455.499 105.606c-1.201-.601-24.901-8.101-54.599-8.101h-.3c-.3 13.801-2.1 29.099-6.899 43.8 1.199 4.199 3.3 11.699 4.799 22.2 20.099-.301 37.198 2.4 49.499 5.099 12.599-23.399 17.399-44.098 17.699-45.898 1.5-7.5-2.699-15-10.199-17.1z" fill="#423e37"/></svg>