<svg xmlns="http://www.w3.org/2000/svg" width="512" height="512"><path d="M346.293 229.292C355.873 214.775 361 197.783 361 180c0-38.599-24.814-72.627-60.469-85.02C295.463 41.763 250.521 0 196 0 141.918 0 97.27 41.089 91.732 94.893 55.932 107.212 30 141.313 30 180c0 17.783 5.127 34.775 14.707 49.292C17.08 248.745 0 280.693 0 315c0 57.891 48.109 105 106 105h75v-68.789l-55.605-55.605c-5.859-5.859-5.859-15.352 0-21.211s15.352-5.859 21.211 0L181 308.789v-77.578l-55.605-55.605c-5.859-5.859-5.859-15.352 0-21.211 5.859-5.859 15.352-5.859 21.211 0L181 188.789V105c0-8.291 6.709-15 15-15s15 6.709 15 15v143.789l34.395-34.395c5.859-5.859 15.352-5.859 21.211 0s5.859 15.352 0 21.211L211 291.211V420h75c57.891 0 105-47.109 105-105 0-34.307-17.08-66.255-44.707-85.708z" data-original="#000000" class="active-path" data-old_color="#000000" fill="#423E37"/><path d="M467.293 229.292C476.873 214.775 482 197.783 482 180c0-38.599-24.814-72.627-60.469-85.02C416.463 41.763 371.521 0 317 0c-10.305 0-20.327 1.906-30.022 4.808 20.034 17.988 35.004 41.693 41.448 69.313C367.303 94.893 392 135.63 392 180c0 14.531-2.52 28.594-7.5 41.924C408.465 246.973 422 280.327 422 315c0 42.627-20.246 80.24-51.194 105H407c57.891 0 105-47.109 105-105 0-34.307-17.08-66.255-44.707-85.708zM406 482h-75v-30h-30v30h-90v-30h-30v30h-75c-8.401 0-15 6.599-15 15s6.599 15 15 15h300c8.401 0 15-6.599 15-15s-6.599-15-15-15z" data-original="#000000" class="active-path" data-old_color="#000000" fill="#423E37"/></svg>