<svg xmlns="http://www.w3.org/2000/svg" viewBox="0 0 511.999 511.999" width="512" height="512"><path d="M203.271 92.915c-.493 0-.985.01-1.477.016l-5.121 13.178 44.17 34.042c7.051 5.434 8.359 15.553 2.926 22.604a16.09 16.09 0 0 1-12.777 6.281 16.048 16.048 0 0 1-9.827-3.354l-27.767-21.4v29.012c0 8.901-7.216 16.117-16.117 16.117s-16.117-7.216-16.117-16.117v-29.013l-27.766 21.4a16.043 16.043 0 0 1-9.827 3.354 16.092 16.092 0 0 1-12.777-6.281c-5.432-7.051-4.125-17.169 2.926-22.604l50.168-38.664 3.015-7.762a153.088 153.088 0 0 0-15.608-.808c-44.894 0-80.666 11.223-106.325 33.358C15.13 152.017 0 191.558 0 243.79c0 71.125 42.108 132.589 102.697 160.805l136.181-232.307c14.711-25.094 36.334-43.59 61.373-53.109-24.557-17.28-57.102-26.264-96.98-26.264z" fill="#423e37"/><path d="M204.61 41.202c-8.294-3.222-17.636.887-20.859 9.184l-16.845 43.337 34.89-.793.869-2.238 11.127-28.63c3.226-8.296-.885-17.635-9.182-20.86zM511.878 187.62c-1.107-9.953-9.533-17.312-19.316-17.312-.717 0-1.441.04-2.171.122l-43.375 4.819 37.389-37.39c7.599-7.599 7.599-19.916 0-27.516a19.398 19.398 0 0 0-13.757-5.7c-4.98 0-9.959 1.9-13.759 5.7l-37.39 37.39 4.821-43.374c1.187-10.679-6.509-20.3-17.19-21.486a19.457 19.457 0 0 0-2.173-.121c-9.783 0-18.209 7.36-19.314 17.31l-6.876 61.886c-12.27-7.242-25.753-11.089-39.284-11.089a71.32 71.32 0 0 0-8.404.515c-.202.026-.406.032-.608.058-23.544 3.021-44.693 17.795-58.023 40.534l-29.023 49.51 42.511 42.511c7.597 7.597 7.597 19.918-.001 27.516-7.597 7.597-19.917 7.597-27.516 0h-.001l-35.33-35.331-82.676 141.034-14.885 25.39a19.452 19.452 0 0 0 3.026 23.596 19.443 19.443 0 0 0 13.765 5.701c3.373 0 6.767-.877 9.832-2.672l235.427-138.006-39.587-39.589-24.758-24.76c-7.599-7.597-7.6-19.919-.001-27.516 7.597-7.597 19.919-7.597 27.517 0l3.806 3.806 65.787 65.788c12.695-12.376 20.827-27.905 22.976-44.667 2.117-16.494-1.664-33.3-10.516-48.297l61.888-6.876c10.68-1.187 18.375-10.806 17.189-21.484z" fill="#423e37"/></svg>