<svg xmlns="http://www.w3.org/2000/svg" width="512" height="512" viewBox="0 0 136.492 136.492"><path d="M121.036 78.928c-13.526-14.684-30.95-14.207-47.129-12.3a2.081 2.081 0 0 0-1.266-.292c-4.219.458-9.566-.227-11.18-6.275-.937-3.562 1.187-7.235 4.725-8.174 2.624-.709 5.332.878 6.027 3.493.491 1.867-.622 3.789-2.476 4.282a2.384 2.384 0 0 1-1.891-.324c.562-1.081.304-2.426-.701-3.169a2.51 2.51 0 0 0-3.536.511c-.01.016-.01.04-.021.056-.768.496-1.179 1.419-.937 2.354.947 3.541 4.622 5.69 8.182 4.757 4.158-1.103 6.643-5.39 5.545-9.563-1.308-4.915-6.381-7.852-11.295-6.576-5.843 1.553-9.336 7.586-7.796 13.461.793 2.987 2.386 5.323 4.588 6.966-1.965.227-3.913.433-5.838.572-19.478 1.506-30.855 1.822-38.333-9.207-2.354-3.473-3.483-7.528-3.369-11.687 1.782 4.688 5.679 8.248 11.625 10.563 2.742 1.071 5.276 1.592 7.744 1.592 9.671 0 17.133-7.992 26.757-21.808 4.422-6.357 10.167-11.962 23.838-18.686.143-.069.227-.209.349-.312.079-.066.152-.124.227-.2.132-.129.248-.259.337-.427.158-.269.285-.567.296-.917.011-.356-.09-.691-.232-1-.037-.097-.1-.15-.143-.232a1.942 1.942 0 0 0-.554-.577c-.053-.037-.068-.098-.115-.114C83.399 15.051 58.057 0 35.935 0 21.926 0 12.332 5.957 7.417 17.708c-1.155 2.777-1.139 7.863 1.179 11.826 1.339 2.299 3.298 3.899 5.695 4.822-1.804 2.716-3.13 5.746-3.789 8.976-1.345 6.555-.056 13.165 3.639 18.592 9.255 13.634 24.542 12.458 42.245 11.093 3.995-.316 8.092-.834 12.229-1.382 17.494-2.265 35.588-4.609 49.272 10.22a29.45 29.45 0 0 1 5.437 8.438c-.005.116-.047.211-.042.327.69 10.515-3.617 17.323-12.145 19.147-6.603 1.439-13.157-2.8-14.57-9.402-1.076-5.073 2.151-10.072 7.208-11.148 1.852-.385 3.724-.053 5.311.971a6.97 6.97 0 0 1 3.074 4.472c.27 1.234.026 2.474-.563 3.565-.228-.338-.448-.686-.786-.949-1.756-1.461-4.366-1.203-5.822.563a4.138 4.138 0 0 0 .575 5.827c.459.369.98.623 1.524.781.501.506 1.223.785 1.972.633a9.466 9.466 0 0 0 6.007-4.166 9.445 9.445 0 0 0 1.312-7.178 11.351 11.351 0 0 0-4.967-7.193c-2.548-1.65-5.585-2.188-8.554-1.555-7.378 1.565-12.103 8.869-10.531 16.284 1.683 7.763 8.569 13.089 16.211 13.089 1.149 0 2.325-.111 3.49-.364 6.318-1.351 10.827-4.941 13.337-10.235-.881 8.849-5.864 17.254-13.711 23.087-5.759 4.282-12.852 6.075-19.955 5.021-7.093-1.045-13.373-4.794-17.655-10.558a2.174 2.174 0 0 0-3.029-.443 2.17 2.17 0 0 0-.448 3.027c4.976 6.687 12.258 11.048 20.5 12.266 1.535.222 3.075.332 4.609.332 6.66 0 13.109-2.125 18.558-6.175 8.88-6.598 14.512-16.189 15.456-26.325.848-9.188-2.221-18.09-8.654-25.066zM20.945 7.966c2.17-1.284 4.627-2.226 7.338-2.824L23.637 24.83c-1.748 1.031-3.33 2.159-4.653 3.436l2.02-19.672c.026-.222-.022-.423-.059-.628zm18.154 46.322L20.252 33.816c1.152-1.205 2.399-2.31 3.813-3.22.432-.274.704-.691.854-1.139l19.765 21.065c-1.936 1.745-3.76 3.024-5.532 3.847-.021-.023-.027-.055-.053-.081zm-5.394 1.365c-1.917 0-3.937-.427-6.173-1.289-4.777-1.87-7.873-4.602-9.191-8.124-1.113-2.964-.81-6.041-.243-8.385L34.411 55.58c-.232.01-.469.073-.706.073zm14.029-8.187L28.589 27.061a49.226 49.226 0 0 1 6.088-2.339l17.65 17.216c-1.623 2.117-3.153 3.957-4.593 5.528zM46.632 5.487c2.305.448 4.591.988 6.842 1.627L44.99 17.858c-1.695.309-3.386.633-5.044 1.016l6.61-13.115c.05-.087.045-.18.076-.272zm17.35 5.189l-6.265 5.218c-.103.087-.156.197-.243.306-2.041.189-4.124.427-6.215.704l6.637-8.419c2.107.691 4.132 1.421 6.086 2.191zm10.542 4.636c-2.816.037-6.146.135-9.774.338l3.746-3.114c2.214.964 4.255 1.905 6.028 2.776zm-5.822 8.411l-3.932-3.736c3.629-.216 7.069-.335 10.181-.361a71.385 71.385 0 0 0-6.249 4.097zm-7.378 6.486l-9.746-8.996c2.468-.33 4.936-.588 7.38-.805l6.315 6.015a48.594 48.594 0 0 0-3.949 3.786zm-6.397 8.24L39.502 23.406a98.383 98.383 0 0 1 6.61-1.358l12.411 11.449a50.052 50.052 0 0 0-1.605 2.193c-.696 1-1.334 1.846-1.991 2.759zM42.237 4.733l-7.862 15.593a58.744 58.744 0 0 0-5.714 2.025l4.213-17.874c.997-.077 1.991-.161 3.045-.161 2.078 0 4.19.151 6.318.417zM12.31 27.369c-1.622-2.781-1.577-6.426-.917-7.992 1.263-3.024 2.943-5.537 4.952-7.652l-1.843 17.969a6.953 6.953 0 0 1-2.192-2.325z" fill="#423e37"/></svg>