<svg xmlns="http://www.w3.org/2000/svg" width="512" height="512"><circle cx="256" cy="256" r="256" data-original="#273B7A" data-old_color="#273B7A" fill="#ff0"/><path d="M237.396 304.038l-83.261 39.207 161.704 161.704c104.12-24.936 183.513-113.481 194.781-222.267L373.224 145.289l-43.56 56.858-111.59-111.592-25.414 39.024 109.054 109.054-56.632 56.715-7.686 8.69z" data-original="#121149" class="active-path" data-old_color="#FFFF00" fill="#a3a305"/><circle cx="256" cy="253.966" r="135.447" data-original="#71E2EF" fill="#71e2ef"/><path d="M256 118.522c-.193 0-.383.014-.574.016v270.876c.193 0 .383.016.574.016 74.809 0 135.452-60.644 135.452-135.452 0-74.812-60.643-135.456-135.452-135.456z" data-original="#38C6D9" fill="#38c6d9"/><path d="M222.068 269.845c-26.269-8.209-25.176-36.667-4.925-42.141 20.249-5.473 9.85-13.683 19.154-35.573 9.304-21.892-4.925-14.229-14.777-34.478-6.208-12.76-4.591-25.95-2.546-33.964-49.607 14.072-87.605 55.679-96.44 107.275 27.403 28.16 62.704-7.871 68.887 14.803 6.568 24.08-2.189 33.383-2.189 33.383s-14.777 24.628-14.777 39.952c0 10.624 32.296 46.233 52.108 67.081 4.046.896 8.161 1.607 12.335 2.132-1.046-10.923.531-25.693 14.365-33.092 23.533-12.588 27.912-59.106 27.912-59.106l-21.892-15.87c.001-.004-10.944-2.193-37.215-10.402z" data-original="#477F3C" fill="#477f3c"/><path d="M281.176 296.114l-21.892-15.872s-1.253-.253-3.86-.884v74.578c21.644-14.18 25.752-57.822 25.752-57.822zM294.238 124.032c-5.006 9.135-18.946 36.442-13.062 47.302 7.115 13.134 4.925-4.379 22.987 0 18.06 4.379 31.742 9.85 43.782 8.209 12.04-1.641 22.438 24.628 7.663 31.742-14.777 7.115 13.134 58.011 13.134 58.011l18.313 19.003a135.693 135.693 0 0 0 4.399-34.326c-.002-61.523-41.034-113.433-97.216-129.941z" data-original="#2E5E24" fill="#2e5e24"/><path d="M170.667 111.752c0-15.71 12.734-28.444 28.444-28.444s28.444 12.734 28.444 28.444c0 23.488-28.444 61.199-28.444 61.199s-28.444-37.064-28.444-61.199z" data-original="#FFC61B" fill="#ffc61b"/><path d="M199.13 83.308v89.617c.396-.528 28.425-37.852 28.425-61.173.001-15.705-12.725-28.434-28.425-28.444z" data-original="#EAA22F" fill="#eaa22f"/><path d="M198.075 131.777a1.253 1.253 0 0 0 2.072 0c3.962-5.844 17.927-13.102 17.927-22.499 0-6.48-4.244-9.481-9.481-9.481s-9.481 4.244-9.481 9.481c0-5.237-4.244-9.481-9.481-9.481s-9.481 3.001-9.481 9.481c-.002 9.397 13.963 16.655 17.925 22.499z" data-original="#FF314F" fill="#ff314f"/><path d="M208.593 99.797c-5.113 0-9.269 4.049-9.463 9.114v23.411a1.232 1.232 0 0 0 1.017-.545c3.962-5.844 17.927-13.102 17.927-22.499 0-6.481-4.244-9.481-9.481-9.481z" data-original="#A30F44" fill="#a30f44"/><path d="M325.818 166.486c0-15.71 12.734-28.444 28.444-28.444 15.71 0 28.444 12.734 28.444 28.444 0 23.488-28.444 61.199-28.444 61.199s-28.444-37.064-28.444-61.199z" data-original="#FFC61B" fill="#ffc61b"/><path d="M354.282 138.042v89.617c.396-.528 28.425-37.852 28.425-61.175 0-15.703-12.726-28.432-28.425-28.442z" data-original="#EAA22F" fill="#eaa22f"/><path d="M353.227 186.511a1.253 1.253 0 0 0 2.072 0c3.962-5.844 17.927-13.102 17.927-22.499 0-6.48-4.244-9.481-9.481-9.481s-9.482 4.244-9.482 9.481c0-5.237-4.244-9.481-9.481-9.481s-9.481 3.001-9.481 9.481c-.001 9.397 13.964 16.655 17.926 22.499z" data-original="#FF314F" fill="#ff314f"/><path d="M363.744 154.531c-5.113 0-9.269 4.049-9.463 9.114v23.411a1.232 1.232 0 0 0 1.017-.545c3.962-5.844 17.927-13.102 17.927-22.499.001-6.481-4.244-9.481-9.481-9.481z" data-original="#A30F44" fill="#a30f44"/><path d="M211.609 263.025c0-15.71 12.734-28.444 28.444-28.444s28.444 12.734 28.444 28.444c0 23.488-28.444 61.199-28.444 61.199s-28.444-37.064-28.444-61.199z" data-original="#FFC61B" fill="#ffc61b"/><path d="M240.073 234.58v89.617c.396-.527 28.425-37.852 28.425-61.174 0-15.703-12.726-28.432-28.425-28.443z" data-original="#EAA22F" fill="#eaa22f"/><path d="M239.018 283.05a1.253 1.253 0 0 0 2.072 0c3.962-5.844 17.927-13.102 17.927-22.499 0-6.48-4.244-9.481-9.481-9.481a9.48 9.48 0 0 0-9.481 9.481c0-5.237-4.244-9.481-9.481-9.481s-9.481 3.001-9.481 9.481c-.002 9.397 13.963 16.655 17.925 22.499z" data-original="#FF314F" fill="#ff314f"/><path d="M249.535 251.07c-5.113 0-9.269 4.049-9.463 9.114v23.411a1.232 1.232 0 0 0 1.017-.545c3.962-5.844 17.927-13.102 17.927-22.499.001-6.482-4.243-9.481-9.481-9.481z" data-original="#A30F44" fill="#a30f44"/></svg>