<svg xmlns="http://www.w3.org/2000/svg" viewBox="0 0 511.999 511.999" width="512" height="512"><path d="M472.695 310.702L421.996 429.2l-104.998-2.699-119.997-3.001-29.999-121.498c13.5-17.999 33.599-28.499 55.498-29.999 17.1-36.3 54-59.999 94.499-59.999s77.399 23.699 94.499 59.999c25.498 1.801 48.598 16.2 61.197 38.699z" data-original="#B35C4B" fill="#b35c4b"/><path d="M472.695 310.702L421.996 429.2l-104.998-2.699V212.005c40.498 0 77.399 23.699 94.499 59.999 25.499 1.8 48.599 16.199 61.198 38.698z" data-original="#8B432D" fill="#8b432d"/><path d="M505.995 350.002L418.998 476c-16.8 22.5-43.8 35.999-86.999 35.999H60.004l-29.999-15V344.302l15-12.299h24.3c9.6 0 20.9-3.6 28.399-9.901 19.501-17.399 44.098-25.799 68.698-25.799 34.5 0 54.9 12.599 77.098 32.099 2.701 2.1 6.901 3.6 9.901 3.6h93.598c16.5 0 29.999 13.5 29.999 29.999 0 16.5-13.5 29.999-29.999 29.999H227c-8.401 0-15 6.599-15 15s6.599 15 15 15h129.898c5.7 0 16.5-3.6 22.2-9.6l80.998-100.798c10.199-11.1 27.298-12.9 39.599-3.9 13.499 9.901 16.2 29.1 6.3 42.3z" data-original="#FEDBAB" fill="#fedbab"/><path d="M60.004 511.999h-45c-8.284 0-15-6.716-15-15V317.003c0-8.284 6.716-15 15-15h15c16.569 0 29.999 13.431 29.999 29.999v179.997z" data-original="#CD5360" data-old_color="#180608" fill="#cd5360"/><path d="M346.998 392.002h-29.999v-59.999h29.999c16.5 0 29.999 13.5 29.999 29.999 0 16.5-13.499 30-29.999 30z" data-original="#FEC478" fill="#fec478"/><path d="M505.995 350.002L418.998 476c-16.8 22.5-43.8 35.999-86.999 35.999h-15V422h39.9c5.7 0 16.5-3.6 22.2-9.6l80.998-100.798c10.199-11.1 27.298-12.9 39.599-3.9 13.498 9.901 16.199 29.1 6.299 42.3z" data-original="#FEC478" fill="#fec478"/><path d="M406.997 182.006h-59.999c-8.291 0-15-6.709-15-15v-29.999c0-57.89 47.108-106.998 104.998-106.998 15.117 0 29.911-6.123 40.604-16.816l8.789-8.789c4.307-4.292 10.752-5.596 16.348-3.252a14.984 14.984 0 0 1 9.258 13.857v61.999c0 57.889-47.108 104.998-104.998 104.998z" data-original="#6F9F38" data-old_color="#87C145" fill="#6f9f38"/><path d="M286.999 182.006H227c-57.89 0-104.998-47.108-104.998-104.998V15.009a14.983 14.983 0 0 1 9.258-13.857c5.64-2.329 12.041-1.025 16.348 3.252l8.789 8.789c10.693 10.693 25.488 16.816 40.604 16.816 57.89 0 104.998 49.108 104.998 106.998v29.999c0 8.291-6.709 15-15 15z" data-original="#87C145" data-old_color="#6ECD24" fill="#87c145"/><path d="M431.896 118.407l-73.8 62.998c-16.5 14.401-26.099 35.1-26.099 57v48.599c0 8.401-6.599 15-15 15s-15-6.599-15-15v-48.599c0-21.899-9.6-42.598-26.099-57l-73.8-62.998c-6.299-5.4-6.899-15-1.5-21.301 5.4-6.299 15-6.899 21.301-1.5l73.499 62.998c8.699 7.8 15.899 17.1 21.599 27 5.7-9.901 12.9-19.2 21.599-27l73.499-62.998c6.301-5.4 15.901-4.799 21.301 1.5 5.4 6.301 4.799 15.901-1.5 21.301z" data-original="#61902C" data-old_color="#3E5820" fill="#61902c"/><path d="M431.896 118.407l-73.8 62.998c-16.5 14.401-26.099 35.1-26.099 57v48.599c0 8.401-6.599 15-15 15V185.606c5.7-9.901 12.9-19.2 21.599-27l73.499-62.998c6.301-5.4 15.901-4.799 21.301 1.5 5.4 6.299 4.799 15.899-1.5 21.299z" data-original="#3E5820" data-old_color="#5DAD1D" fill="#3e5820"/><path d="M349.997 321.504c-1.8.599-3.3.899-5.099.899-6 0-11.999-3.9-14.099-10.199-1.201-3.9-5.7-10.201-13.801-10.201s-12.599 6.301-13.801 10.201c-2.699 7.798-11.1 11.999-19.199 9.3-7.8-2.701-12.001-11.4-9.3-19.2 5.4-15 20.4-30.299 42.298-30.299s36.898 15.3 42.298 30.299c2.704 7.799-1.497 16.499-9.297 19.2z" data-original="#61902C" data-old_color="#3E5820" fill="#61902c"/><path d="M349.997 321.504c-1.8.599-3.3.899-5.099.899-6 0-11.999-3.9-14.099-10.199-1.201-3.9-5.7-10.201-13.801-10.201v-29.999c21.899 0 36.898 15.3 42.298 30.299 2.702 7.8-1.499 16.5-9.299 19.201z" data-original="#3E5820" data-old_color="#5DAD1D" fill="#3e5820"/></svg>