<svg xmlns="http://www.w3.org/2000/svg" width="512" height="512"><path d="M406 270H106c-8.291 0-15 6.709-15 15 0 25.031 21.211 46 45 46h240c25.059 0 45-22.282 45-46 0-8.291-6.709-15-15-15zM121 0C96.099 0 76 20.099 76 45v30c0 52.8 39.3 96.599 90 103.801V45c0-24.901-20.099-45-45-45zM391 60c-24.901 0-45 20.099-45 45v30c0 8.401-6.599 15-15 15h-15V60c0-32.999-27.001-60-60-60-32.999 0-60 27.001-60 60v180h135c57.9 0 105-47.1 105-105v-30c0-24.901-20.099-45-45-45zM129.699 362L151.3 499.999C152.8 506.901 158.8 512 166 512h180c7.2 0 13.2-5.099 14.7-12.001L382.301 362H129.699z" fill="#423e37"/></svg>