<?xml version="1.0" encoding="iso-8859-1"?>
<!-- Generator: Adobe Illustrator 19.0.0, SVG Export Plug-In . SVG Version: 6.00 Build 0)  -->
<svg xmlns="http://www.w3.org/2000/svg" xmlns:xlink="http://www.w3.org/1999/xlink" version="1.1" id="Capa_1" x="0px" y="0px" viewBox="0 0 512 512" style="enable-background:new 0 0 512 512;" xml:space="preserve" width="512px" height="512px">
<g>
	<g>
		<path d="M406,270H106c-8.291,0-15,6.709-15,15c0,25.031,21.211,46,45,46h240c25.059,0,45-22.282,45-46    C421,276.709,414.291,270,406,270z" fill="#423e37"/>
	</g>
</g>
<g>
	<g>
		<path d="M121,0C96.099,0,76,20.099,76,45v30c0,52.8,39.3,96.599,90,103.801V45C166,20.099,145.901,0,121,0z" fill="#423e37"/>
	</g>
</g>
<g>
	<g>
		<path d="M391,60c-24.901,0-45,20.099-45,45v30c0,8.401-6.599,15-15,15h-15V60c0-32.999-27.001-60-60-60c-32.999,0-60,27.001-60,60    v180h135c57.9,0,105-47.1,105-105v-30C436,80.099,415.901,60,391,60z" fill="#423e37"/>
	</g>
</g>
<g>
	<g>
		<path d="M129.699,362L151.3,499.999C152.8,506.901,158.8,512,166,512h180c7.2,0,13.2-5.099,14.7-12.001L382.301,362H129.699z" fill="#423e37"/>
	</g>
</g>
<g>
</g>
<g>
</g>
<g>
</g>
<g>
</g>
<g>
</g>
<g>
</g>
<g>
</g>
<g>
</g>
<g>
</g>
<g>
</g>
<g>
</g>
<g>
</g>
<g>
</g>
<g>
</g>
<g>
</g>
</svg>
