<?xml version="1.0" encoding="iso-8859-1"?>
<!-- Generator: Adobe Illustrator 19.0.0, SVG Export Plug-In . SVG Version: 6.00 Build 0)  -->
<svg version="1.1" id="Layer_1" xmlns="http://www.w3.org/2000/svg" xmlns:xlink="http://www.w3.org/1999/xlink" x="0px" y="0px"
	 viewBox="0 0 512.002 512.002" style="enable-background:new 0 0 512.002 512.002;" xml:space="preserve">
<circle style="fill:#273B7A;" cx="256.001" cy="256" r="256"/>
<path style="fill:#121149;" d="M510.055,287.639l-75.311-75.311l-26.307,68.067L256.272,128.229l-22.275,83.354l-19.84,57.004
	l42.062,42.062l-4.922,8.325l72.695,72.695l-27.102,23.166L94.383,212.328l7.887,57.465l5.051,65.367l76.383,76.383l-18.18,14.25
	l86.154,86.154c1.439,0.024,2.877,0.055,4.322,0.055C386.673,512,494.467,414.094,510.055,287.639z"/>
<path style="fill:#FEE187;" d="M429.831,209.81c-4.049-0.66-8.056,1.493-9.75,5.227c-0.024,0.053-0.048,0.107-0.076,0.159
	l-30.66,61.264c0.379,0.359,0.743,0.738,1.093,1.138c5.486,6.254,5.661,15.507,0.421,21.932l-24.823,30.577
	c-1.569,1.934-4.41,2.229-6.342,0.659c-1.934-1.569-2.27-4.449-0.659-6.342l24.823-30.577c2.436-3.031,2.377-7.363-0.198-10.299
	c-1.407-1.602-3.353-2.562-5.48-2.7c-2.129-0.14-4.184,0.56-5.785,1.965l-39.176,34.38c-4.398,3.863-7.587,8.875-9.218,14.498
	l-21.794,75.214l39.622,13.352l1.555-22.812c0.662-9.688,5.57-18.487,13.474-24.138l47.494-33.957
	c8.454-6.47,14.076-15.813,15.831-26.312l17.261-93.637C437.756,214.752,434.446,210.561,429.831,209.81z"/>
<rect x="311.812" y="378.768" transform="matrix(0.1847 -0.9828 0.9828 0.1847 -133.7383 652.0044)" style="fill:#B54324;" width="28.589" height="55.682"/>
<path style="fill:#FFEDB5;" d="M86.531,209.81c4.049-0.66,8.054,1.493,9.75,5.227c0.024,0.053,0.048,0.107,0.076,0.159l30.66,61.264
	c-0.379,0.359-0.743,0.738-1.093,1.138c-5.485,6.254-5.661,15.507-0.421,21.932l24.823,30.577c1.569,1.934,4.41,2.229,6.342,0.659
	c1.934-1.569,2.27-4.449,0.659-6.342l-24.823-30.577c-2.436-3.031-2.377-7.363,0.198-10.299c1.407-1.602,3.353-2.562,5.48-2.7
	c2.129-0.14,4.184,0.56,5.785,1.965l39.176,34.38c4.398,3.863,7.587,8.875,9.218,14.498l21.794,75.214l-39.622,13.352l-1.555-22.812
	c-0.662-9.688-5.57-18.487-13.474-24.138l-47.494-33.957c-8.454-6.47-14.076-15.813-15.831-26.312l-17.261-93.637
	C78.608,214.752,81.917,210.561,86.531,209.81z"/>
<rect x="175.94" y="378.754" transform="matrix(-0.1847 -0.9828 0.9828 -0.1847 -174.2288 668.6552)" style="fill:#D35933;" width="28.589" height="55.682"/>
<path style="fill:#8BC180;" d="M255.429,320.359c-3.808,0-6.896-3.088-6.896-6.896v-94.239c0-3.808,3.088-6.896,6.896-6.896
	c3.808,0,6.896,3.088,6.896,6.896v94.239C262.324,317.271,259.235,320.359,255.429,320.359z"/>
<path style="fill:#6CAF5F;" d="M255.429,212.328c3.808,0,6.896,3.088,6.896,6.896v94.239c0,3.808-3.088,6.896-6.896,6.896V212.328z"
	/>
<path style="fill:#3B9B27;" d="M200.86,227.049c0.033-42.899,55.411-98.819,55.411-98.819s55.296,56.003,55.263,98.902
	c-0.033,42.899-24.817,56.473-55.38,56.451C225.593,283.558,200.827,269.948,200.86,227.049z"/>
<path style="fill:#2E821A;" d="M256.272,128.229c0,0,55.296,56.003,55.263,98.902c-0.033,42.899-24.817,56.473-55.38,56.451
	L256.272,128.229z"/>
<g>
</g>
<g>
</g>
<g>
</g>
<g>
</g>
<g>
</g>
<g>
</g>
<g>
</g>
<g>
</g>
<g>
</g>
<g>
</g>
<g>
</g>
<g>
</g>
<g>
</g>
<g>
</g>
<g>
</g>
</svg>
