<?xml version="1.0" encoding="iso-8859-1"?>
<!-- Generator: Adobe Illustrator 19.0.0, SVG Export Plug-In . SVG Version: 6.00 Build 0)  -->
<svg xmlns="http://www.w3.org/2000/svg" xmlns:xlink="http://www.w3.org/1999/xlink" version="1.1" id="Capa_1" x="0px" y="0px" viewBox="0 0 512.002 512.002" style="enable-background:new 0 0 512.002 512.002;" xml:space="preserve" width="512px" height="512px">
<g>
	<g>
		<path d="M256.001,120.06c-8.275,0-14.998,6.723-14.998,14.998c0,8.275,6.723,14.998,14.998,14.998s14.998-6.723,14.998-14.998    C270.999,126.783,264.276,120.06,256.001,120.06z" fill="#423e37"/>
	</g>
</g>
<g>
	<g>
		<path d="M405.979,302.033h-86.387l2.999-1.5c7.499-3.899,10.499-12.9,6.9-20.098c-3.899-7.499-12.898-10.497-20.096-6.898    l-38.395,19.197v-30.495c7.199-5.999,18.597-16.498,25.197-30.896c14.998,5.699,32.394,6.3,47.392,3.301    c5.999-1.201,10.799-5.999,11.999-11.999c0.601-3.3,4.798-26.696-3.001-47.694c20.399-9.299,33.895-28.795,35.995-31.495    c3.301-5.098,3.301-11.697,0-16.798c-2.1-2.699-15.597-22.197-35.995-31.495c7.799-20.997,3.601-44.392,3.001-47.694    c-1.199-5.998-5.999-10.798-11.999-11.997c-3.299-0.601-26.695-4.8-47.692,2.999c-9.299-20.397-28.797-33.895-31.495-35.995    c-5.1-3.299-11.698-3.299-16.799,0c-2.699,2.1-22.197,15.599-31.495,35.995c-20.997-7.799-44.392-3.599-47.692-2.999    c-5.999,1.199-10.799,5.999-11.999,11.997c-0.601,3.3-4.798,26.696,3.001,47.694c-20.399,9.299-33.895,28.797-35.995,31.495    c-3.3,5.1-3.3,11.698,0,16.798c2.1,2.701,15.597,22.197,35.995,31.495c-7.799,20.997-3.602,44.394-3.001,47.694    c1.199,5.999,5.999,10.798,11.999,11.999c14.998,2.999,32.394,2.399,47.392-3.301c6.6,14.399,17.998,24.897,25.197,30.896v30.495    l-38.395-19.197c-7.199-3.599-16.197-0.601-20.096,6.898c-3.599,7.199-0.599,16.199,6.9,20.098l2.999,1.5h-86.387    c-8.4,0-14.998,6.598-14.998,14.998c0,19.197,13.198,37.494,32.696,43.194c3.897,0.899,8.098,1.8,12.297,1.8h239.964    c4.199,0,8.4-0.901,12.297-1.8c19.798-5.699,32.696-24.296,32.696-43.194C420.977,308.631,414.379,302.033,405.979,302.033z     M211.008,135.058c0-24.897,20.096-44.993,44.993-44.993c24.897,0,44.993,20.096,44.993,44.993    c0,24.895-20.096,44.993-44.993,44.993C231.104,180.051,211.008,159.953,211.008,135.058z" fill="#423e37"/>
	</g>
</g>
<g>
	<g>
		<path d="M131.895,392.02l19.723,108.584c1.5,6.598,7.499,11.398,14.397,11.398h179.973c6.898,0,12.898-4.8,14.397-11.398    l19.798-108.584H131.895z" fill="#423e37"/>
	</g>
</g>
<g>
</g>
<g>
</g>
<g>
</g>
<g>
</g>
<g>
</g>
<g>
</g>
<g>
</g>
<g>
</g>
<g>
</g>
<g>
</g>
<g>
</g>
<g>
</g>
<g>
</g>
<g>
</g>
<g>
</g>
</svg>
