<svg xmlns="http://www.w3.org/2000/svg" viewBox="0 0 512 512"><circle cx="256" cy="256" r="256" fill="#d35933"/><path d="M268.486 511.693c129.065-6.199 233.072-107.97 242.774-236.087L365.868 130.213l-4.293 33.063-33.063-33.063-4.899 32.456-32.456-32.456-5.646 93.713-97.501-97.501-23.952 115.783-30.158 39.379 43.446 43.444-11.938 83.585 103.078 103.077z" fill="#b54324"/><path d="M322.07 234.537c6.06 0 10.973 4.913 10.973 10.973v108.565c0 6.06-4.913 10.973-10.973 10.973-6.06 0-10.973-4.913-10.973-10.973V245.51c.001-6.06 4.914-10.973 10.973-10.973z" fill="#a6a8aa"/><path d="M322.082 234.539v130.507c6.054-.007 10.959-4.917 10.959-10.971V245.51c.002-6.056-4.904-10.966-10.959-10.971z" fill="#808183"/><path d="M304.556 308.002h35.03v91.731c0 7.377-5.98 13.357-13.357 13.357h-8.314c-7.377 0-13.357-5.98-13.357-13.357v-91.731h-.002z" fill="#386895"/><path d="M322.082 308.002V413.09h4.144c7.377 0 13.357-5.98 13.357-13.357v-91.729h-17.501v-.002z" fill="#273b7a"/><g fill="#fff"><path d="M278.014 130.207h13.136v93.884h-13.136zM315.371 130.207h13.136v93.884h-13.136z"/></g><g fill="#d0d1d3"><path d="M322.077 130.207h6.428v93.884h-6.428zM352.728 130.207h13.136v93.884h-13.136z"/><path d="M365.866 214.685v18.263c0 10.099-8.187 18.287-18.287 18.287h-51.272c-10.099 0-18.287-8.187-18.287-18.287v-18.263h87.846z"/></g><path d="M322.082 214.685v36.549h25.497c10.099 0 18.287-8.187 18.287-18.287v-18.263h-43.784v.001z" fill="#a6a8aa"/><path d="M212.959 286.263H146.08c-10.099 0-18.287-8.187-18.287-18.287v-83.184a36.536 36.536 0 0 1 10.7-25.833l32.535-32.535c4.689-4.689 12.291-4.689 16.98 0l32.535 32.535a36.534 36.534 0 0 1 10.7 25.833v83.184c.003 10.1-8.183 18.287-18.284 18.287z" fill="#d0d1d3"/><g fill="#a6a8aa"><path d="M220.546 158.96l-32.535-32.535a11.97 11.97 0 0 0-8.439-3.515v163.352h33.387c10.099 0 18.287-8.187 18.287-18.287v-83.184a36.535 36.535 0 0 0-10.7-25.831z"/><path d="M179.521 234.537c6.06 0 10.973 4.913 10.973 10.973v108.565c0 6.06-4.913 10.973-10.973 10.973-6.06 0-10.973-4.913-10.973-10.973V245.51c0-6.06 4.913-10.973 10.973-10.973z"/></g><path d="M179.574 234.541v130.503c6.035-.029 10.919-4.927 10.919-10.969V245.51c0-6.042-4.885-10.942-10.919-10.969z" fill="#808183"/><path d="M162.006 308.002h35.03v91.731c0 7.377-5.98 13.357-13.357 13.357h-8.314c-7.377 0-13.357-5.98-13.357-13.357v-91.731h-.002z" fill="#386895"/><path d="M179.574 308.002V413.09h4.105c7.377 0 13.357-5.98 13.357-13.357v-91.729h-17.461v-.002z" fill="#273b7a"/></svg>