<svg xmlns="http://www.w3.org/2000/svg" height="512" viewBox="0 -46 512 512" width="512"><path d="M497 390.012h-60.352v-30c0-120.703 22.582-187.176 42.36-221.688a14.99 14.99 0 0 0-2.668-18.328c-5.008-4.742-12.625-5.508-18.426-1.758-51.21 32.77-112.266 101.325-112.266 241.774v30h-45.386C292.52 154.442 117.598 5.145 115.609 3.484c-5.625-4.675-13.812-4.601-19.351.13-5.567 4.745-6.887 12.831-3.137 19.105.715 1.195 51.32 88.125 75.352 232.539 7.84 30.16 12.527 64.785 12.527 104.754v30h-30v-30c0-140.45-61.055-209.004-112.266-241.774-5.8-3.75-13.418-2.984-18.43 1.758a14.995 14.995 0 0 0-2.663 18.328C37.414 172.836 61 239.31 61 360.012v30H15c-8.29 0-15 6.71-15 15 0 8.293 6.71 15 15 15h482c8.29 0 15-6.707 15-15 0-8.29-6.71-15-15-15zm0 0" fill="#423e37"/><path d="M384.71 143.016c23.349-75.938 48.68-119.489 49.165-120.297 3.75-6.274 2.434-14.356-3.133-19.106-5.539-4.758-13.726-4.832-19.351-.129-4.938 4.118-79.211 67.184-132.23 175.778C296 215.574 310.18 256.234 319.452 300.8c9.32-71.446 35.106-122.09 65.258-157.785zm0 0" fill="#423e37"/></svg>