<?xml version="1.0"?>
<svg xmlns="http://www.w3.org/2000/svg" height="512px" viewBox="0 -46 512 512" width="512px"><path d="m497 390.011719h-60.351562v-30c0-120.703125 22.582031-187.175781 42.359374-221.6875 3.441407-5.992188 2.34375-13.550781-2.667968-18.328125-5.007813-4.742188-12.625-5.507813-18.425782-1.757813-51.210937 32.769531-112.265624 101.324219-112.265624 241.773438v30h-45.386719c-7.742188-235.570313-182.664063-384.867188-184.652344-386.527344-5.625-4.675781-13.8125-4.601563-19.351563.128906-5.566406 4.746094-6.886718 12.832031-3.136718 19.105469.714844 1.195312 51.320312 88.125 75.351562 232.539062 7.839844 30.160157 12.527344 64.785157 12.527344 104.753907v30h-30v-30c0-140.449219-61.054688-209.003907-112.265625-241.773438-5.800781-3.75-13.417969-2.984375-18.429687 1.757813-5.007813 4.777344-6.105469 12.335937-2.664063 18.328125 19.773437 34.511719 43.359375 100.984375 43.359375 221.6875v30h-46c-8.289062 0-15 6.710937-15 15 0 8.292969 6.710938 15 15 15h482c8.289062 0 15-6.707031 15-15 0-8.289063-6.710938-15-15-15zm0 0" fill="#423e37"/><path d="m384.710938 143.015625c23.347656-75.9375 48.679687-119.488281 49.164062-120.296875 3.75-6.273438 2.433594-14.355469-3.132812-19.105469-5.539063-4.757812-13.726563-4.832031-19.351563-.128906-4.9375 4.117187-79.210937 67.183594-132.230469 175.777344 16.839844 36.3125 31.019532 76.972656 40.292969 121.539062 9.320313-71.445312 35.105469-122.089843 65.257813-157.785156zm0 0" fill="#423e37"/></svg>
