<?xml version="1.0" encoding="iso-8859-1"?>
<!-- Generator: Adobe Illustrator 19.0.0, SVG Export Plug-In . SVG Version: 6.00 Build 0)  -->
<svg xmlns="http://www.w3.org/2000/svg" xmlns:xlink="http://www.w3.org/1999/xlink" version="1.1" id="Capa_1" x="0px" y="0px" viewBox="0 0 512 512" style="enable-background:new 0 0 512 512;" xml:space="preserve" width="512px" height="512px">
<g>
	<g>
		<path d="M133.146,392l19.659,108.633c1.67,6.68,7.661,11.367,14.546,11.367h180c6.885,0,12.876-4.688,14.546-11.367L381.555,392    H133.146z" fill="#423e37"/>
	</g>
</g>
<g>
	<g>
		<path d="M407.35,300c-36.851,0-263.091,0-300,0c-8.291,0-15,6.709-15,15c0,24.814,20.186,47,45,47h240c24.814,0,45-22.186,45-47    C422.35,306.709,415.641,300,407.35,300z" fill="#423e37"/>
	</g>
</g>
<g>
	<g>
		<path d="M267.55,139.502c-1.802-6.806-3.965-12.73-11.7-10.8c-11.176-3.196-50.064,14.442-70.201,48.9    c-5.383-15.737-8.519-24.692-15.3-40.5c43.5-27.9,61.201-80.091,38.701-128.391c-3.963-7.927-13.008-10.745-20.101-7.2    c-27.026,12.548-48.499,31.956-56.999,65.99c-15.752-23.627-28.201-38.02-47.4-61.8c-5.099-6.601-14.699-7.5-21-2.401    c-6.599,5.099-7.5,14.699-2.399,21c12.308,15.384,23.614,29.174,33.6,42.9c-23.101-5.7-47.1-3.6-68.701,6.598    c-7.5,3.301-10.8,12.301-7.5,19.801c12,25.499,33.001,44.7,59.401,54.3c23.638,8.488,44.095,7.705,65.099,1.8    c4.256,9.493,9.31,22.225,14.099,37.8c-22.903-14.319-52.712-20.017-81.899-12.301c-7.213,2.407-12.645,9.311-10.499,18.6    c7.2,27.001,24.6,49.501,48.9,63.6c10.499,6.001,21.9,10.201,33.6,12.001c1.2,0.301,2.399,0.601,3.6,0.601c0,0,51.612,0,54.3,0    c0.037-0.014,0.073-0.031,0.109-0.045c0.156-0.062,0.312-0.125,0.467-0.185C240.354,255.677,283.242,198.35,267.55,139.502z" fill="#423e37"/>
	</g>
</g>
<g>
	<g>
		<path d="M485.951,73.798c-22.2-10.499-46.5-11.999-68.699-6.599c10.165-13.982,21.678-27.997,33.6-42.9    c5.1-6.301,4.2-15.901-2.4-21c-6.301-5.099-15.899-4.2-21,2.401c-19.199,23.779-31.649,38.171-47.399,61.8    c-8.555-34.186-30.095-53.56-57.001-66.052c-7.519-3.47-16.219-0.562-20.099,7.2c-22.5,48.3-4.801,100.552,38.699,128.452    c-5.7,13.2-10.8,26.699-15.3,40.5c-6.899-11.701-15.899-22.2-26.999-30.601c4.799,30-0.901,60.3-16.201,87    c-2.1,3.6-4.499,7.2-6.899,10.8C281.728,253,295.451,265.501,306.85,270c0.126-0.018,55.752-0.036,55.878-0.055    c12.462-1.829,24.336-6.012,35.623-12.547c24.3-14.099,41.7-36.599,48.9-63.6c2.136-9.266-3.241-16.177-10.501-18.6    c-29.099-7.5-58.2-2.399-81.899,12.301c4.2-12.9,8.699-25.501,14.099-37.8c54.143,15.222,103.721-11.948,124.501-56.1    C496.751,86.099,493.451,77.099,485.951,73.798z" fill="#423e37"/>
	</g>
</g>
<g>
</g>
<g>
</g>
<g>
</g>
<g>
</g>
<g>
</g>
<g>
</g>
<g>
</g>
<g>
</g>
<g>
</g>
<g>
</g>
<g>
</g>
<g>
</g>
<g>
</g>
<g>
</g>
<g>
</g>
</svg>
