<svg xmlns="http://www.w3.org/2000/svg" viewBox="0 0 512.001 512.001" width="512" height="512"><path d="M131.805 392.001l19.658 108.633a14.994 14.994 0 0 0 14.546 11.367h180a14.995 14.995 0 0 0 14.546-11.367l19.658-108.633H131.805zM406.009 302.001h-300c-8.291 0-15 6.709-15 15 0 24.814 20.186 45 45 45h240c24.814 0 45-20.186 45-45 0-8.291-6.709-15-15-15z" fill="#423e37"/><path d="M262.161 218.71c-30.659-24.507-68.745-37.939-107.373-37.939-44.945 0-96.854 22.364-126.18 61.831-23.099 30.3-32.799 70.499-26.799 106.8 1.199 7.2 7.5 12.599 14.7 12.599 7.5 0 13.801-5.4 14.7-12.599 5.897-36.859 32.423-70.177 70.6-77.401 10.501-2.401 21.3-2.401 31.201-.3.298 0 .899.3 1.199.3h172.919c-11.739-20.607-26.739-39.049-44.967-53.291zM49.309 32.301c-7.2-1.5-14.399 2.1-17.1 9-3 6.601-.299 14.399 5.7 18.299 35.7 22.2 66.601 54.3 91.501 93.001 23.805 0 22.895-4.625 53.399.3l9.6-48.001c-44.699-36.598-93.9-61.199-143.1-72.599zM270.709 12.001C269.209 5.1 263.209 0 256.009 0s-13.2 5.099-14.7 12.001c-14.46 72.28-17.724 90.08-29.101 147.499 15.3 4.799 30 11.1 44.101 19.501 13.799-8.1 28.2-14.401 43.501-19.2-11.079-56.499-1.369-9.183-29.101-147.8zM481.61 41.3c-3.001-6.899-10.201-10.499-17.401-9-49.799 11.4-99.3 36.599-144.6 73.799l9.6 47.1c17.999-2.998 36.001-3.298 53.7-.898.3.3.901.3 1.201.3 25.199-38.701 56.1-70.801 91.5-93.001 6.301-3.9 8.699-11.699 6-18.3zM485.109 242.602c-19.904-26.786-50.032-46.121-83.139-55.428-7.289-1.992-14.559-4.083-22.158-5.026-32.474-4.294-65.618 1.631-95.074 15.833 24.066 19.662 43.874 45.112 57.504 74.02 41.999 0 38.767-.3 38.767-.3 10.199-2.1 20.7-2.1 31.199.3 37.571 7.307 63.71 40.094 69.6 77.401 2.131 17.028 25.224 16.637 28 0 6.3-36.902-1.298-75.901-24.699-106.8z" fill="#423e37"/></svg>