<?xml version="1.0" encoding="iso-8859-1"?>
<!-- Generator: Adobe Illustrator 19.0.0, SVG Export Plug-In . SVG Version: 6.00 Build 0)  -->
<svg xmlns="http://www.w3.org/2000/svg" xmlns:xlink="http://www.w3.org/1999/xlink" version="1.1" id="Capa_1" x="0px" y="0px" viewBox="0 0 512.001 512.001" style="enable-background:new 0 0 512.001 512.001;" xml:space="preserve" width="512px" height="512px">
<g>
	<g>
		<path d="M131.805,392.001l19.658,108.633c1.67,6.68,7.661,11.367,14.546,11.367h180c6.885,0,12.876-4.688,14.546-11.367    l19.658-108.633H131.805z" fill="#423e37"/>
	</g>
</g>
<g>
	<g>
		<path d="M406.009,302.001h-300c-8.291,0-15,6.709-15,15c0,24.814,20.186,45,45,45h240c24.814,0,45-20.186,45-45    C421.009,308.71,414.3,302.001,406.009,302.001z" fill="#423e37"/>
	</g>
</g>
<g>
	<g>
		<path d="M262.161,218.71c-30.659-24.507-68.745-37.939-107.373-37.939c-44.945,0-96.854,22.364-126.18,61.831    c-23.099,30.3-32.799,70.499-26.799,106.8c1.199,7.2,7.5,12.599,14.7,12.599c7.5,0,13.801-5.4,14.7-12.599    c5.897-36.859,32.423-70.177,70.6-77.401c10.501-2.401,21.3-2.401,31.201-0.3c0.298,0,0.899,0.3,1.199,0.3h172.919    C295.389,251.394,280.389,232.952,262.161,218.71z" fill="#423e37"/>
	</g>
</g>
<g>
	<g>
		<path d="M49.309,32.301c-7.2-1.5-14.399,2.1-17.1,9c-3,6.601-0.299,14.399,5.7,18.299c35.7,22.2,66.601,54.3,91.501,93.001    c23.805,0,22.895-4.625,53.399,0.3l9.6-48.001C147.71,68.302,98.509,43.701,49.309,32.301z" fill="#423e37"/>
	</g>
</g>
<g>
	<g>
		<path d="M270.709,12.001C269.209,5.1,263.209,0,256.009,0s-13.2,5.099-14.7,12.001c-14.46,72.28-17.724,90.08-29.101,147.499    c15.3,4.799,30,11.1,44.101,19.501c13.799-8.1,28.2-14.401,43.501-19.2C288.731,103.302,298.441,150.618,270.709,12.001z" fill="#423e37"/>
	</g>
</g>
<g>
	<g>
		<path d="M481.61,41.3c-3.001-6.899-10.201-10.499-17.401-9c-49.799,11.4-99.3,36.599-144.6,73.799l9.6,47.1    c17.999-2.998,36.001-3.298,53.7-0.898c0.3,0.3,0.901,0.3,1.201,0.3c25.199-38.701,56.1-70.801,91.5-93.001    C481.911,55.7,484.309,47.901,481.61,41.3z" fill="#423e37"/>
	</g>
</g>
<g>
	<g>
		<path d="M485.109,242.602c-19.904-26.786-50.032-46.121-83.139-55.428c-7.289-1.992-14.559-4.083-22.158-5.026    c-32.474-4.294-65.618,1.631-95.074,15.833c24.066,19.662,43.874,45.112,57.504,74.02c41.999,0,38.767-0.3,38.767-0.3    c10.199-2.1,20.7-2.1,31.199,0.3c37.571,7.307,63.71,40.094,69.6,77.401c2.131,17.028,25.224,16.637,28,0    C516.108,312.5,508.51,273.501,485.109,242.602z" fill="#423e37"/>
	</g>
</g>
<g>
</g>
<g>
</g>
<g>
</g>
<g>
</g>
<g>
</g>
<g>
</g>
<g>
</g>
<g>
</g>
<g>
</g>
<g>
</g>
<g>
</g>
<g>
</g>
<g>
</g>
<g>
</g>
<g>
</g>
</svg>
