<?xml version="1.0" encoding="iso-8859-1"?>
<!-- Generator: Adobe Illustrator 19.0.0, SVG Export Plug-In . SVG Version: 6.00 Build 0)  -->
<svg xmlns="http://www.w3.org/2000/svg" xmlns:xlink="http://www.w3.org/1999/xlink" version="1.1" id="Capa_1" x="0px" y="0px" viewBox="0 0 512 512" style="enable-background:new 0 0 512 512;" xml:space="preserve" width="512px" height="512px">
<g>
	<g>
		<path d="M129.709,362.002l21.588,137.943c1.406,7.002,7.559,12.056,14.707,12.056h179.997c7.148,0,13.301-5.054,14.707-12.056    l21.588-137.943H129.709z" fill="#423e37"/>
	</g>
</g>
<g>
	<g>
		<path d="M406,270.003H106.004c-8.291,0-15,6.709-15,15c0,24.814,20.186,46.999,44.999,46.999H376    c24.814,0,44.999-22.186,44.999-46.999C421,276.712,414.291,270.003,406,270.003z" fill="#423e37"/>
	</g>
</g>
<g>
	<g>
		<path d="M211.427,113.735c-16.143-27.568-48.661-41.879-67.221-48.09c-3.074,15.496-5.488,41.416,2.272,65.289    c12.846,3.775,35.857,12.241,57.116,27.677c4.417-9.84,9.483-19.008,14.822-26.765    C216.504,125.441,214.541,119.051,211.427,113.735z" fill="#423e37"/>
	</g>
</g>
<g>
	<g>
		<path d="M367.841,65.675c-34.684,11.699-63.711,30.839-74.257,66.168c5.339,7.756,10.408,16.926,14.826,26.768    c21.264-15.438,44.279-23.904,57.122-27.678C373.344,106.968,370.93,81.121,367.841,65.675z" fill="#423e37"/>
	</g>
</g>
<g>
	<g>
		<path d="M111.182,193.448c-10.675,0.015-20.495,0.983-28.821,2.239c0.033,0.04,0.06,0.081,0.093,0.121    c-15.037,2.271-25.303,5.403-26.065,5.641c-7.588,2.446-11.924,10.4-9.888,18.105c0.203,0.76,2.58,8.99,7.864,20.449h64.487    C113.203,224.317,111.219,208.192,111.182,193.448z" fill="#423e37"/>
	</g>
</g>
<g>
	<g>
		<path d="M370.468,180.31c-0.002-0.026-0.018-0.046-0.02-0.071c-0.002-0.029,0.011-0.053,0.009-0.082    c-0.604-6.996-1.575-13.352-2.602-18.492c-13.266,4.462-33.452,13.391-49.906,27.92c0.954,5.689,1.802,11.431,1.802,17.417    c0,11.596-2.117,22.615-5.332,33.003h45.859v-0.001C370.651,220.654,372.004,198.265,370.468,180.31z" fill="#423e37"/>
	</g>
</g>
<g>
	<g>
		<g>
			<path d="M194.055,189.58c-16.516-14.597-36.629-23.494-49.848-27.931c-3.651,18.395-6.936,51.541,7.418,78.353h45.96     c-3.215-10.388-5.332-21.406-5.332-33.002C192.253,201.013,193.101,195.269,194.055,189.58z" fill="#423e37"/>
			<polygon points="197.585,240.002 197.585,240.002 197.585,240.003    " fill="#423e37"/>
		</g>
	</g>
</g>
<g>
	<g>
		<path d="M455.613,201.45c-0.754-0.255-11.01-3.393-26.045-5.663c0.02-0.024,0.037-0.049,0.057-0.073    c-8.326-1.251-18.142-2.219-28.802-2.239c-0.04,14.736-2.025,30.853-7.672,46.53h64.485c4.915-10.655,7.231-18.252,7.705-19.915    c0.035-0.125,0.135-0.456,0.159-0.549l0.002-0.005C467.526,211.837,463.194,203.894,455.613,201.45z" fill="#423e37"/>
	</g>
</g>
<g>
	<g>
		<path d="M256.031,132.456c-12.891,14.546-33.779,42.978-33.779,74.545c0,11.662,3.159,22.701,7.412,33.003h52.675    c4.254-10.302,7.412-21.341,7.412-33.003C289.752,175.272,268.922,146.943,256.031,132.456z" fill="#423e37"/>
	</g>
</g>
<g>
	<g>
		<path d="M111.404,97.505c-0.3,0-0.3,0-0.3,0c-29.7,0.3-53.398,7.5-54.599,8.101c-7.5,2.1-11.699,9.6-10.199,17.1    c0.299,1.8,5.098,22.5,17.698,45.898c12.301-2.699,29.702-5.4,49.5-5.099c1.5-10.501,3.6-18.001,4.799-22.2    C113.504,126.604,111.704,111.306,111.404,97.505z" fill="#423e37"/>
	</g>
</g>
<g>
	<g>
		<polygon points="308.545,62.636 308.543,62.638 308.543,62.638   " fill="#423e37"/>
	</g>
</g>
<g>
	<g>
		<path d="M265.92,3.757c-5.654-5.01-14.18-5.01-19.834,0c-1.32,1.161-27.268,24.615-42.624,58.884    c20.12,14.591,29.563,27.441,37.041,42.548c7.846-7.89,15.87-13.889,25.417-5.429c0.388,0.341,2.664,2.498,5.576,5.424    c7.434-15.059,16.923-27.953,37.049-42.547C293.186,28.37,267.24,4.918,265.92,3.757z" fill="#423e37"/>
	</g>
</g>
<g>
	<g>
		<path d="M455.499,105.606c-1.201-0.601-24.901-8.101-54.599-8.101c0,0,0,0-0.3,0c-0.3,13.801-2.1,29.099-6.899,43.8    c1.199,4.199,3.3,11.699,4.799,22.2c20.099-0.301,37.198,2.4,49.499,5.099c12.599-23.399,17.399-44.098,17.699-45.898    C467.198,115.206,462.999,107.706,455.499,105.606z" fill="#423e37"/>
	</g>
</g>
<g>
</g>
<g>
</g>
<g>
</g>
<g>
</g>
<g>
</g>
<g>
</g>
<g>
</g>
<g>
</g>
<g>
</g>
<g>
</g>
<g>
</g>
<g>
</g>
<g>
</g>
<g>
</g>
<g>
</g>
</svg>
