<?xml version="1.0"?>
<svg xmlns="http://www.w3.org/2000/svg" xmlns:xlink="http://www.w3.org/1999/xlink" version="1.1" id="Capa_1" x="0px" y="0px" viewBox="0 0 512 512" style="enable-background:new 0 0 512 512;" xml:space="preserve" width="512px" height="512px" class=""><g><g>
	<g>
		<path d="M346.293,229.292C355.873,214.775,361,197.783,361,180c0-38.599-24.814-72.627-60.469-85.02    C295.463,41.763,250.521,0,196,0C141.918,0,97.27,41.089,91.732,94.893C55.932,107.212,30,141.313,30,180    c0,17.783,5.127,34.775,14.707,49.292C17.08,248.745,0,280.693,0,315c0,57.891,48.109,105,106,105h75v-68.789l-55.605-55.605    c-5.859-5.859-5.859-15.352,0-21.211s15.352-5.859,21.211,0L181,308.789v-77.578l-55.605-55.605    c-5.859-5.859-5.859-15.352,0-21.211c5.859-5.859,15.352-5.859,21.211,0L181,188.789V105c0-8.291,6.709-15,15-15s15,6.709,15,15    v143.789l34.395-34.395c5.859-5.859,15.352-5.859,21.211,0s5.859,15.352,0,21.211L211,291.211V420h75c57.891,0,105-47.109,105-105    C391,280.693,373.92,248.745,346.293,229.292z" data-original="#000000" class="active-path" data-old_color="#000000" fill="#423E37"/>
	</g>
</g><g>
	<g>
		<path d="M467.293,229.292C476.873,214.775,482,197.783,482,180c0-38.599-24.814-72.627-60.469-85.02    C416.463,41.763,371.521,0,317,0c-10.305,0-20.327,1.906-30.022,4.808c20.034,17.988,35.004,41.693,41.448,69.313    C367.303,94.893,392,135.63,392,180c0,14.531-2.52,28.594-7.5,41.924C408.465,246.973,422,280.327,422,315    c0,42.627-20.246,80.24-51.194,105H407c57.891,0,105-47.109,105-105C512,280.693,494.92,248.745,467.293,229.292z" data-original="#000000" class="active-path" data-old_color="#000000" fill="#423E37"/>
	</g>
</g><g>
	<g>
		<path d="M406,482h-75v-30h-30v30h-90v-30h-30v30h-75c-8.401,0-15,6.599-15,15s6.599,15,15,15h300c8.401,0,15-6.599,15-15    S414.401,482,406,482z" data-original="#000000" class="active-path" data-old_color="#000000" fill="#423E37"/>
	</g>
</g></g> </svg>
