<?xml version="1.0" encoding="iso-8859-1"?>
<!-- Generator: Adobe Illustrator 16.0.0, SVG Export Plug-In . SVG Version: 6.00 Build 0)  -->
<!DOCTYPE svg PUBLIC "-//W3C//DTD SVG 1.1//EN" "http://www.w3.org/Graphics/SVG/1.1/DTD/svg11.dtd">
<svg xmlns="http://www.w3.org/2000/svg" xmlns:xlink="http://www.w3.org/1999/xlink" version="1.1" id="Capa_1" x="0px" y="0px" width="512px" height="512px" viewBox="0 0 136.492 136.492" style="enable-background:new 0 0 136.492 136.492;" xml:space="preserve">
<g>
	<path d="M121.036,78.928c-13.526-14.684-30.95-14.207-47.129-12.3c-0.375-0.216-0.802-0.34-1.266-0.292   c-4.219,0.458-9.566-0.227-11.18-6.275c-0.937-3.562,1.187-7.235,4.725-8.174c2.624-0.709,5.332,0.878,6.027,3.493   c0.491,1.867-0.622,3.789-2.476,4.282c-0.681,0.171-1.35,0.026-1.891-0.324c0.562-1.081,0.304-2.426-0.701-3.169   c-1.118-0.849-2.7-0.612-3.536,0.511c-0.01,0.016-0.01,0.04-0.021,0.056c-0.768,0.496-1.179,1.419-0.937,2.354   c0.947,3.541,4.622,5.69,8.182,4.757c4.158-1.103,6.643-5.39,5.545-9.563c-1.308-4.915-6.381-7.852-11.295-6.576   c-5.843,1.553-9.336,7.586-7.796,13.461c0.793,2.987,2.386,5.323,4.588,6.966c-1.965,0.227-3.913,0.433-5.838,0.572   c-19.478,1.506-30.855,1.822-38.333-9.207c-2.354-3.473-3.483-7.528-3.369-11.687c1.782,4.688,5.679,8.248,11.625,10.563   c2.742,1.071,5.276,1.592,7.744,1.592l0,0c9.671,0,17.133-7.992,26.757-21.808c4.422-6.357,10.167-11.962,23.838-18.686   c0.143-0.069,0.227-0.209,0.349-0.312c0.079-0.066,0.152-0.124,0.227-0.2c0.132-0.129,0.248-0.259,0.337-0.427   c0.158-0.269,0.285-0.567,0.296-0.917c0.011-0.356-0.09-0.691-0.232-1c-0.037-0.097-0.1-0.15-0.143-0.232   c-0.142-0.232-0.332-0.422-0.554-0.577c-0.053-0.037-0.068-0.098-0.115-0.114C83.399,15.051,58.057,0,35.935,0   C21.926,0,12.332,5.957,7.417,17.708c-1.155,2.777-1.139,7.863,1.179,11.826c1.339,2.299,3.298,3.899,5.695,4.822   c-1.804,2.716-3.13,5.746-3.789,8.976c-1.345,6.555-0.056,13.165,3.639,18.592c9.255,13.634,24.542,12.458,42.245,11.093   c3.995-0.316,8.092-0.834,12.229-1.382c17.494-2.265,35.588-4.609,49.272,10.22c2.352,2.562,4.155,5.416,5.437,8.438   c-0.005,0.116-0.047,0.211-0.042,0.327c0.69,10.515-3.617,17.323-12.145,19.147c-6.603,1.439-13.157-2.8-14.57-9.402   c-1.076-5.073,2.151-10.072,7.208-11.148c1.852-0.385,3.724-0.053,5.311,0.971c1.588,1.023,2.685,2.605,3.074,4.472   c0.27,1.234,0.026,2.474-0.563,3.565c-0.228-0.338-0.448-0.686-0.786-0.949c-1.756-1.461-4.366-1.203-5.822,0.563   c-1.45,1.772-1.196,4.372,0.575,5.827c0.459,0.369,0.98,0.623,1.524,0.781c0.501,0.506,1.223,0.785,1.972,0.633   c2.5-0.544,4.625-2.015,6.007-4.166c1.382-2.131,1.851-4.684,1.312-7.178c-0.643-2.99-2.409-5.537-4.967-7.193   c-2.548-1.65-5.585-2.188-8.554-1.555c-7.378,1.565-12.103,8.869-10.531,16.284c1.683,7.763,8.569,13.089,16.211,13.089   c1.149,0,2.325-0.111,3.49-0.364c6.318-1.351,10.827-4.941,13.337-10.235c-0.881,8.849-5.864,17.254-13.711,23.087   c-5.759,4.282-12.852,6.075-19.955,5.021c-7.093-1.045-13.373-4.794-17.655-10.558c-0.712-0.955-2.062-1.149-3.029-0.443   c-0.957,0.718-1.157,2.067-0.448,3.027c4.976,6.687,12.258,11.048,20.5,12.266c1.535,0.222,3.075,0.332,4.609,0.332   c6.66,0,13.109-2.125,18.558-6.175c8.88-6.598,14.512-16.189,15.456-26.325C130.538,94.806,127.469,85.904,121.036,78.928z    M20.945,7.966c2.17-1.284,4.627-2.226,7.338-2.824L23.637,24.83c-1.748,1.031-3.33,2.159-4.653,3.436l2.02-19.672   C21.03,8.372,20.982,8.171,20.945,7.966z M39.099,54.288L20.252,33.816c1.152-1.205,2.399-2.31,3.813-3.22   c0.432-0.274,0.704-0.691,0.854-1.139l19.765,21.065c-1.936,1.745-3.76,3.024-5.532,3.847   C39.131,54.346,39.125,54.314,39.099,54.288z M33.705,55.653c-1.917,0-3.937-0.427-6.173-1.289   c-4.777-1.87-7.873-4.602-9.191-8.124c-1.113-2.964-0.81-6.041-0.243-8.385L34.411,55.58C34.179,55.59,33.942,55.653,33.705,55.653   L33.705,55.653z M47.734,47.466L28.589,27.061c1.859-0.864,3.889-1.653,6.088-2.339l17.65,17.216   C50.704,44.055,49.174,45.895,47.734,47.466z M46.632,5.487c2.305,0.448,4.591,0.988,6.842,1.627L44.99,17.858   c-1.695,0.309-3.386,0.633-5.044,1.016l6.61-13.115C46.606,5.672,46.601,5.579,46.632,5.487z M63.982,10.676l-6.265,5.218   c-0.103,0.087-0.156,0.197-0.243,0.306c-2.041,0.189-4.124,0.427-6.215,0.704l6.637-8.419C60.003,9.176,62.028,9.906,63.982,10.676   z M74.524,15.312c-2.816,0.037-6.146,0.135-9.774,0.338l3.746-3.114C70.71,13.5,72.751,14.441,74.524,15.312z M68.702,23.723   l-3.932-3.736c3.629-0.216,7.069-0.335,10.181-0.361C72.573,21.018,70.526,22.383,68.702,23.723z M61.324,30.209l-9.746-8.996   c2.468-0.33,4.936-0.588,7.38-0.805l6.315,6.015C63.771,27.715,62.466,28.978,61.324,30.209z M54.927,38.449L39.502,23.406   c2.133-0.52,4.343-0.968,6.61-1.358l12.411,11.449c-0.567,0.741-1.107,1.463-1.605,2.193C56.222,36.69,55.584,37.536,54.927,38.449   z M42.237,4.733l-7.862,15.593c-1.999,0.598-3.905,1.273-5.714,2.025l4.213-17.874c0.997-0.077,1.991-0.161,3.045-0.161   C37.997,4.316,40.109,4.467,42.237,4.733z M12.31,27.369c-1.622-2.781-1.577-6.426-0.917-7.992   c1.263-3.024,2.943-5.537,4.952-7.652l-1.843,17.969C13.615,29.112,12.882,28.34,12.31,27.369z" fill="#423e37"/>
</g>
<g>
</g>
<g>
</g>
<g>
</g>
<g>
</g>
<g>
</g>
<g>
</g>
<g>
</g>
<g>
</g>
<g>
</g>
<g>
</g>
<g>
</g>
<g>
</g>
<g>
</g>
<g>
</g>
<g>
</g>
</svg>
