<?xml version="1.0"?>
<svg xmlns="http://www.w3.org/2000/svg" xmlns:xlink="http://www.w3.org/1999/xlink" version="1.1" id="Capa_1" x="0px" y="0px" viewBox="0 0 513.109 513.109" style="enable-background:new 0 0 513.109 513.109;" xml:space="preserve" width="512px" height="512px"><g><g>
	<path d="M511.392,172.765c-0.52-11.163-5.75-21.657-14.351-28.791l-2.206-1.83c26.427-56.535,9.771-92.692-9.24-113.235   c-18.857-20.373-40.558-30.072-64.44-28.799c-28.152,1.488-51.896,18.648-67.021,33.006c-0.235,0.184-0.463,0.378-0.679,0.594   l-66.025,66.024L243.08,55.383c-2.93-2.928-7.678-2.928-10.607,0c-21.582,21.582-29.961,48.743-24.232,78.545   c4.229,22.002,14.67,37.625,15.192,38.397c0.136,0.202,21.745,26.272,21.745,26.272l-80.414,10.284   c-4.885-7.731-17.027-20.66-44.387-22.979c-4.083-0.335-7.697,2.659-8.098,6.744l-7.83,80.15c-0.206,2.109,0.537,4.289,1.98,5.84   c1.423,1.53,3.443,2.174,5.449,2.509c5.966,0.994,12.129,1.157,18.138,0.489c12.661-1.405,22.849-6.536,29.813-14.917   l53.692,12.671c4.037,0.953,8.174-1.67,9.053-5.718c0.856-3.941-1.686-7.956-5.607-8.882l-52.196-12.317l2.668-28.811   l89.079-11.392l63.797,76.911l-74.116-17.492c-4.026-0.95-8.07,1.544-9.022,5.577c-0.951,4.031,1.546,8.07,5.577,9.022   l93.619,22.095c11.584,12.201,30.103,15.801,45.411,8.815c4.31-1.967,8.263-4.704,11.613-8.054l50.422-50.421   c2.929-2.93,2.929-7.678,0-10.607c-2.929-2.927-7.677-2.929-10.607,0l-50.422,50.421c-4.996,4.996-11.624,7.566-18.694,7.24   c-7.059-0.328-13.431-3.504-17.942-8.942l-106.37-128.235l52.948-52.947c0.002-0.002,0.004-0.003,0.006-0.005   c0.002-0.002,0.003-0.004,0.005-0.006l66.491-66.49l121.624,100.886c0.005,0.004,0.01,0.009,0.015,0.013l6.595,5.471   c5.439,4.512,8.614,10.884,8.943,17.942c0.328,7.059-2.243,13.698-7.24,18.694l-31.653,31.654c-2.929,2.93-2.929,7.679,0,10.607   c2.93,2.928,7.678,2.929,10.607-0.001l31.653-31.653C507.677,194.861,511.911,183.927,511.392,172.765z M128.746,266.681   c-3.183,0.381-6.178,0.393-8.655,0.271l6.361-65.11c18.291,3.482,24.69,12.977,26.428,16.357l-3.472,37.5   C145.004,261.874,138.064,265.568,128.746,266.681z M421.947,15.089c19.247-1.005,36.953,7.061,52.641,24.01   c26.897,29.062,20.406,65.334,8.273,93.112l-13.856-11.493c11.275-28.53,8.855-52.602-7.121-69.86   c-12.197-13.179-24.959-19.237-39.023-18.482c-14.956,0.791-28.867,9.271-39.103,17.631l-13.521-11.215   C383.369,27.572,401.538,16.168,421.947,15.089z M395.554,59.791c8.009-6.179,18.022-11.904,28.098-12.437   c9.34-0.483,18.24,3.985,27.225,13.693c11.127,12.021,13.098,28.654,5.904,49.531L395.554,59.791z M231.339,155.826   c-2.87-5.848-6.402-14.498-8.368-24.729c-4.336-22.554,0.72-42.562,15.03-59.579l38.823,38.824L231.339,155.826z" data-original="#000000" class="active-path" data-old_color="#000000" fill="#423E37"/>
	<path d="M216.618,462.264c-24.783-24.175-53.633-37.84-83.867-39.84v-23.836c12.66-0.815,37.9-4.679,55.202-21.98   c23.419-23.419,22.225-61.406,22.162-63.012c-0.151-3.913-3.29-7.052-7.203-7.203c-1.607-0.063-39.591-1.258-63.012,22.162   c-6.711,6.711-11.393,14.617-14.668,22.522c-3.274-7.904-7.957-15.811-14.667-22.522c-23.42-23.42-61.4-22.221-63.012-22.162   c-3.913,0.151-7.052,3.289-7.203,7.203c-0.063,1.605-1.258,39.592,22.161,63.012c17.319,17.319,42.593,21.173,55.239,21.983v23.805   c-22.056,1.328-43.136,8.724-62.753,22.078c-3.424,2.331-4.309,6.997-1.979,10.421c2.331,3.424,6.996,4.31,10.421,1.98   c19.218-13.083,39.925-19.717,61.546-19.717c29.333,0,56.529,11.954,80.835,35.529c9.503,9.218,16.7,18.525,21.466,25.422H22.683   c4.311-6.241,10.612-14.454,18.809-22.783c2.905-2.952,2.867-7.701-0.085-10.606c-2.951-2.904-7.7-2.867-10.607,0.085   c-18.422,18.72-27.893,36.567-28.287,37.317c-2.579,4.909,1.106,10.987,6.64,10.987h231.663c5.533,0,9.219-6.078,6.64-10.987   C247.027,501.303,236.702,481.857,216.618,462.264z M150.507,339.163c13.247-13.247,33.521-16.656,44.368-17.513   c-0.837,10.831-4.222,31.043-17.53,44.35c-13.247,13.247-33.521,16.656-44.368,17.513   C133.814,372.682,137.199,352.47,150.507,339.163z M73.119,366c-13.246-13.245-16.655-33.521-17.512-44.368   c10.83,0.837,31.043,4.222,44.351,17.53c13.246,13.245,16.655,33.521,17.512,44.368C106.639,382.694,86.426,379.309,73.119,366z" data-original="#000000" class="active-path" data-old_color="#000000" fill="#423E37"/>
</g></g> </svg>
