<?xml version="1.0" encoding="iso-8859-1"?>
<!-- Generator: Adobe Illustrator 19.0.0, SVG Export Plug-In . SVG Version: 6.00 Build 0)  -->
<svg xmlns="http://www.w3.org/2000/svg" xmlns:xlink="http://www.w3.org/1999/xlink" version="1.1" id="Capa_1" x="0px" y="0px" viewBox="0 0 512 512" style="enable-background:new 0 0 512 512;" xml:space="preserve" width="512px" height="512px">
<g>
	<g>
		<path d="M210.687,3.529c-19.39,38.496-34.205,79.047-44.25,120.851c24.382,5.454,49.322,8.691,74.537,9.61V0    C230.752,0.587,220.643,1.764,210.687,3.529z" fill="#Ffffff"/>
	</g>
</g>
<g>
	<g>
		<path d="M351.802,153.811c-26.452,5.892-53.455,9.317-80.775,10.236v76.927h89.899    C360.143,211.626,357.089,182.481,351.802,153.811z" fill="#Ffffff"/>
	</g>
</g>
<g>
	<g>
		<path d="M301.305,3.528c-9.953-1.764-20.06-2.941-30.279-3.528v133.982c25.21-0.909,50.121-4.112,74.525-9.566    C335.502,82.593,320.678,42.007,301.305,3.528z" fill="#Ffffff"/>
	</g>
</g>
<g>
	<g>
		<path d="M271.026,378.018V512c10.224-0.587,20.335-1.765,30.292-3.53c18.851-37.396,33.989-77.839,44.316-120.868    C321.204,382.137,296.265,378.928,271.026,378.018z" fill="#Ffffff"/>
	</g>
</g>
<g>
	<g>
		<path d="M390.991,271.026c-0.8,31.883-4.138,63.573-9.976,94.722c29.881,8.867,58.626,20.866,86.083,35.959    c26.664-38.457,42.186-83.356,44.902-130.681H390.991z" fill="#Ffffff"/>
	</g>
</g>
<g>
	<g>
		<path d="M166.366,387.602c9.711,40.459,24.266,81.093,44.316,120.867c9.957,1.766,20.069,2.943,30.292,3.53V378.018    C215.736,378.928,190.796,382.137,166.366,387.602z" fill="#Ffffff"/>
	</g>
</g>
<g>
	<g>
		<path d="M160.202,153.781c-5.281,28.657-8.346,57.801-9.126,87.193h89.898v-76.912    C213.651,163.135,186.623,159.669,160.202,153.781z" fill="#Ffffff"/>
	</g>
</g>
<g>
	<g>
		<path d="M44.904,110.29C18.239,148.747,2.717,193.648,0,240.974h121.014c0.805-31.951,4.169-63.631,10.021-94.756    C101.198,137.374,72.327,125.355,44.904,110.29z" fill="#Ffffff"/>
	</g>
</g>
<g>
	<g>
		<path d="M137.291,395.246c-25.02,7.582-49.506,17.574-73.575,30.426c29.115,32.907,66.19,58.343,108.996,72.994    C157.717,465.359,145.858,430.769,137.291,395.246z" fill="#Ffffff"/>
	</g>
</g>
<g>
	<g>
		<path d="M63.725,86.318c23.547,12.564,48.209,22.737,73.636,30.43c8.566-35.485,20.409-70.106,35.4-103.431    C131.79,27.331,94.167,51.915,63.725,86.318z" fill="#Ffffff"/>
	</g>
</g>
<g>
	<g>
		<path d="M121.009,271.026H0c2.717,47.325,18.238,92.224,44.902,130.681c27.428-15.076,56.17-27.082,86.084-35.959    C125.147,334.599,121.809,302.909,121.009,271.026z" fill="#Ffffff"/>
	</g>
</g>
<g>
	<g>
		<path d="M339.232,13.316c14.979,33.322,26.819,67.969,35.388,103.466c25.584-7.746,50.055-17.847,73.664-30.453    C419.092,53.335,381.97,27.933,339.232,13.316z" fill="#Ffffff"/>
	</g>
</g>
<g>
	<g>
		<path d="M374.71,395.246c-8.564,35.509-20.421,70.099-35.421,103.42c42.814-14.654,79.887-40.094,108.996-72.994    C425.216,413.354,400.823,403.159,374.71,395.246z" fill="#Ffffff"/>
	</g>
</g>
<g>
	<g>
		<path d="M151.069,271.026c0.774,29.337,3.816,58.495,9.084,87.173c26.467-5.899,53.484-9.327,80.821-10.246v-76.927H151.069z" fill="#Ffffff"/>
	</g>
</g>
<g>
	<g>
		<path d="M467.098,110.293c-26.887,14.779-55.599,26.917-86.146,35.977c5.858,31.136,9.227,62.807,10.034,94.704H512    C509.283,193.649,493.762,148.75,467.098,110.293z" fill="#Ffffff"/>
	</g>
</g>
<g>
	<g>
		<path d="M271.026,271.026v76.927c27.336,0.919,54.354,4.347,80.821,10.246c5.268-28.678,8.31-57.836,9.084-87.173H271.026z" fill="#Ffffff"/>
	</g>
</g>
<g>
</g>
<g>
</g>
<g>
</g>
<g>
</g>
<g>
</g>
<g>
</g>
<g>
</g>
<g>
</g>
<g>
</g>
<g>
</g>
<g>
</g>
<g>
</g>
<g>
</g>
<g>
</g>
<g>
</g>
</svg>
