<svg xmlns="http://www.w3.org/2000/svg" width="512" height="512"><path d="M210.687 3.529c-19.39 38.496-34.205 79.047-44.25 120.851a409.763 409.763 0 0 0 74.537 9.61V0a258.301 258.301 0 0 0-30.287 3.529zM351.802 153.811c-26.452 5.892-53.455 9.317-80.775 10.236v76.927h89.899a563.522 563.522 0 0 0-9.124-87.163zM301.305 3.528A258.378 258.378 0 0 0 271.026 0v133.982a409.012 409.012 0 0 0 74.525-9.566c-10.049-41.823-24.873-82.409-44.246-120.888zM271.026 378.018V512a258.362 258.362 0 0 0 30.292-3.53c18.851-37.396 33.989-77.839 44.316-120.868a409.02 409.02 0 0 0-74.608-9.584zM390.991 271.026a595.375 595.375 0 0 1-9.976 94.722 435.599 435.599 0 0 1 86.083 35.959c26.664-38.457 42.186-83.356 44.902-130.681H390.991zM166.366 387.602c9.711 40.459 24.266 81.093 44.316 120.867a258.174 258.174 0 0 0 30.292 3.53V378.018a409.032 409.032 0 0 0-74.608 9.584zM160.202 153.781a563.543 563.543 0 0 0-9.126 87.193h89.898v-76.912a439.84 439.84 0 0 1-80.772-10.281zM44.904 110.29C18.239 148.747 2.717 193.648 0 240.974h121.014a593.677 593.677 0 0 1 10.021-94.756 436.445 436.445 0 0 1-86.131-35.928zM137.291 395.246c-25.02 7.582-49.506 17.574-73.575 30.426 29.115 32.907 66.19 58.343 108.996 72.994a587.142 587.142 0 0 1-35.421-103.42zM63.725 86.318a406.376 406.376 0 0 0 73.636 30.43 588.99 588.99 0 0 1 35.4-103.431C131.79 27.331 94.167 51.915 63.725 86.318zM121.009 271.026H0c2.717 47.325 18.238 92.224 44.902 130.681a435.674 435.674 0 0 1 86.084-35.959 595.26 595.26 0 0 1-9.977-94.722zM339.232 13.316a590.113 590.113 0 0 1 35.388 103.466c25.584-7.746 50.055-17.847 73.664-30.453-29.192-32.994-66.314-58.396-109.052-73.013zM374.71 395.246a587.27 587.27 0 0 1-35.421 103.42c42.814-14.654 79.887-40.094 108.996-72.994-23.069-12.318-47.462-22.513-73.575-30.426zM151.069 271.026a565.084 565.084 0 0 0 9.084 87.173c26.467-5.899 53.484-9.327 80.821-10.246v-76.927h-89.905zM467.098 110.293a435.617 435.617 0 0 1-86.146 35.977 593.378 593.378 0 0 1 10.034 94.704H512c-2.717-47.325-18.238-92.224-44.902-130.681zM271.026 271.026v76.927c27.336.919 54.354 4.347 80.821 10.246a565.084 565.084 0 0 0 9.084-87.173h-89.905z" fill="#Ffffff"/></svg>