<?xml version="1.0"?>
<svg xmlns="http://www.w3.org/2000/svg" xmlns:xlink="http://www.w3.org/1999/xlink" version="1.1" id="Capa_1" x="0px" y="0px" viewBox="0 0 512 512" style="enable-background:new 0 0 512 512;" xml:space="preserve" width="512px" height="512px"><g><g>
	<g>
		<path d="M461.174,215.562c-19.095-0.312-34.994,13.138-38.714,30.958h-36.599c-2.107-29.231-13.963-56.105-32.591-77.04    l33.244-33.243c6.42,4.153,13.793,6.229,21.176,6.229c34.477,0,52.171-41.916,27.566-66.537    c-15.207-15.197-39.934-15.197-55.142,0c-13.291,13.301-14.957,33.885-5.006,49.013l-33.223,33.213    c-22.149-19.47-49.609-30.289-77.451-32.06V77.133c17.654-3.715,30.949-19.405,30.949-38.148C295.383,17.489,277.894,0,256.397,0    c-21.497,0-38.984,17.489-38.984,38.985c0,18.75,13.306,34.447,30.971,38.153v48.897c-28.629,1.655-55.643,12.73-77.08,31.127    l-31.945-31.945c9.641-14.838,8.293-35.28-5.17-48.742c-15.236-15.236-39.894-15.238-55.134-0.001    c-24.578,24.579-6.933,66.537,27.567,66.533c7.478-0.001,14.959-2.135,21.436-6.4l31.73,31.73    c-4.133,4.534-7.975,9.389-11.486,14.545c-2.498,3.661-1.555,8.647,2.117,11.145c3.661,2.498,8.647,1.545,11.145-2.117    c42.523-62.405,131.685-66.794,180.341-11.064c43.956,50.235,35.517,126.922-17.675,166.589    c-3.551,2.648-4.283,7.674-1.635,11.225c2.677,3.598,7.738,4.254,11.225,1.645c3.551-2.648,6.942-5.457,10.172-8.416    l31.502,31.502c-9.769,15.098-8.051,35.521,5.166,48.738v0.001c15.198,15.198,39.932,15.201,55.135-0.001    c15.199-15.2,15.199-39.933-0.001-55.134c-13.292-13.292-33.875-14.96-48.998-5.004l-31.648-31.649    c19.018-22.28,29.479-49.805,30.876-77.772h36.448c1.458,6.981,4.832,13.644,10.157,19.129c0,0,0.001,0,0.001,0.001    c7.632,7.86,17.798,11.809,27.976,11.809c9.791,0,19.589-3.654,27.152-10.996C512.522,258.468,495.804,216.074,461.174,215.562z     M407.69,80.574c20.368,0,30.581,24.787,16.211,39.142c-8.938,8.948-23.493,8.948-32.431,0    C376.964,105.228,387.433,80.574,407.69,80.574z M122.839,120.258c-8.942,8.945-23.492,8.944-32.434,0    c-8.943-8.942-8.943-23.492,0-32.435c8.962-8.962,23.47-8.964,32.434,0c0,0.001,0,0.001,0.001,0.001    c4.331,4.332,6.717,10.091,6.717,16.218C129.557,110.167,127.171,115.926,122.839,120.258z M256.346,61.919    c-12.622-0.028-22.883-10.305-22.883-22.933c0-12.646,10.289-22.935,22.934-22.935c12.646,0,22.935,10.289,22.935,22.935    c0,12.623-10.253,22.897-22.869,22.933C256.318,61.918,256.353,61.919,256.346,61.919z M392.009,388.345    c8.941-8.943,23.492-8.943,32.435,0c8.943,8.942,8.943,23.492,0.001,32.435c-8.945,8.944-23.495,8.942-32.436,0v0.001    C383.066,411.837,383.066,397.287,392.009,388.345z M476.575,270.998c-9.073,8.809-23.622,8.595-32.432-0.478    c-14.161-14.587-3.624-39.151,16.793-38.91c6.125,0.091,11.85,2.562,16.116,6.957C485.863,247.64,485.648,262.189,476.575,270.998    z" data-original="#000000" class="active-path" data-old_color="#000000" fill="#423E37"/>
	</g>
</g><g>
	<g>
		<path d="M335.154,217.631c-34.268-70.41-137.413-64.28-162.576,10.483c-2.993,8.965-4.574,18.4-4.574,28.037    c0,4.393,0.348,9.113,1.073,13.693c0.692,4.384,4.805,7.363,9.189,6.671c4.374-0.692,7.363-4.805,6.661-9.179    c-0.251-1.575-0.441-3.17-0.582-4.765h20.184c0.619,10.413,2.68,20.557,6.058,30.084c-3.992,2.187-7.844,4.664-11.506,7.413    c-1.826-2.357-3.511-4.835-5.026-7.413c-2.247-3.812-7.172-5.086-10.984-2.829c-3.822,2.247-5.096,7.172-2.839,10.984    c37.822,64.126,135.053,55.682,159.246-16.893C346.53,262.788,345.589,239.11,335.154,217.631z M204.733,246.521h-20.028    c1.628-12.183,6.425-24.2,14.475-34.538c3.621,2.739,7.423,5.176,11.375,7.333C207.495,227.953,205.529,237.106,204.733,246.521z     M210.496,200.387c4.672-3.848,10.02-7.191,15.739-9.77c-3.431,4.364-6.49,9.048-9.148,13.974    C214.829,203.296,212.622,201.902,210.496,200.387z M210.385,311.683c2.177-1.545,4.434-2.979,6.741-4.293    c2.718,5.046,5.858,9.831,9.369,14.284C223.34,320.441,216.49,316.69,210.385,311.683z M247.983,321.256    c-6.513-5.884-11.867-12.765-16.11-20.346c5.21-1.678,10.609-2.799,16.11-3.359V321.256z M247.983,281.419    c-7.765,0.656-15.375,2.259-22.661,4.755c-2.557-7.499-4.139-15.444-4.704-23.604h27.364V281.419z M247.983,246.521h-27.128    c0.705-7.153,2.187-14.111,4.428-20.714c7.303,2.504,14.924,4.114,22.701,4.774V246.521z M247.983,214.45    c-5.517-0.564-10.932-1.689-16.16-3.368c4.203-7.498,9.584-14.427,16.16-20.354V214.45z M320.719,224.652    c3.391,6.992,5.618,14.315,6.621,21.868h-20.057c-0.797-9.414-2.762-18.568-5.822-27.205c3.952-2.157,7.754-4.604,11.385-7.333    C315.874,215.885,318.512,220.128,320.719,224.652z M301.519,200.387c-2.127,1.515-4.323,2.909-6.591,4.193    c-2.668-4.925-5.718-9.6-9.148-13.963C291.868,193.344,297.757,197.193,301.519,200.387z M264.033,190.729    c6.583,5.927,11.957,12.861,16.16,20.342c-5.228,1.686-10.643,2.815-16.16,3.379V190.729z M264.033,230.582    c7.782-0.657,15.403-2.263,22.701-4.776c2.242,6.604,3.723,13.561,4.428,20.714h-27.128V230.582z M264.033,262.57h27.364    c-0.565,8.159-2.147,16.104-4.704,23.604c-7.286-2.496-14.895-4.098-22.661-4.755V262.57z M264.033,321.259V297.55    c5.501,0.561,10.9,1.682,16.11,3.359C275.934,308.43,270.605,315.314,264.033,321.259z M289.191,319.909    c-0.02,0.02-0.04,0.02-0.05,0.03c-1.229,0.636-2.38,1.201-3.561,1.725c-0.02,0.02-0.05,0.03-0.07,0.03    c3.521-4.454,6.661-9.249,9.389-14.305c2.317,1.314,4.564,2.749,6.751,4.303C301.425,311.854,296.03,316.428,289.191,319.909z     M312.925,300.067c-3.661-2.759-7.503-5.226-11.496-7.413c3.379-9.527,5.439-19.67,6.058-30.084h20.184    C326.475,275.714,321.594,288.834,312.925,300.067z" data-original="#000000" class="active-path" data-old_color="#000000" fill="#423E37"/>
	</g>
</g><g>
	<g>
		<path d="M310.357,365.641c-1.705-4.083-6.41-6.019-10.493-4.303c-82.087,34.354-172.926-35.766-156.046-126.353    c1.164-6.169,2.829-12.268,4.965-18.126c1.515-4.173-0.632-8.777-4.795-10.292c-4.163-1.515-8.767,0.632-10.282,4.795    c-4.162,11.408-6.679,23.332-7.533,35.159H89.567c-3.71-17.661-19.403-30.962-38.151-30.962    c-21.497,0-38.985,17.488-38.985,38.984s17.489,38.985,38.985,38.985c18.745,0,34.438-13.299,38.15-30.957h36.417    c1.495,30.224,13.412,58.071,32.501,79.658l-30.144,30.144c-15.19-9.827-35.602-7.974-48.742,5.166    c-15.228,15.228-15.236,39.895,0,55.132c15.228,15.228,39.895,15.236,55.132,0c7.363-7.363,11.416-17.153,11.416-27.566    c0-7.734-2.237-15.127-6.41-21.437l30.094-30.094c22.164,19.596,50.011,30.759,78.534,32.381v48.912    c-17.655,3.714-30.951,19.405-30.951,38.148c0,21.497,17.488,38.985,38.984,38.985s38.985-17.489,38.985-38.985    c0-18.749-13.305-34.445-30.969-38.152v-48.938c14.305-0.913,28.278-4.193,41.64-9.78    C310.146,374.439,312.072,369.734,310.357,365.641z M51.417,277.478c-12.646,0-22.935-10.289-22.935-22.935    c0-12.645,10.289-22.934,22.935-22.934c12.645,0,22.934,10.289,22.934,22.934C74.351,267.189,64.062,277.478,51.417,277.478z     M107.164,428.036c-12.582,0-22.931-10.147-22.931-22.931c0-6.325,2.498-12.007,6.711-16.221c8.931-8.931,23.483-8.938,32.441,0    c4.333,4.333,6.711,10.091,6.711,16.221C130.096,417.89,119.746,428.036,107.164,428.036z M279.333,473.015    c0,12.646-10.289,22.935-22.935,22.935c-12.645,0-22.934-10.289-22.934-22.935c0-12.624,10.254-22.898,22.871-22.933    c0.006,0-0.032,0.001,0.116,0C269.072,450.109,279.333,460.386,279.333,473.015z" data-original="#000000" class="active-path" data-old_color="#000000" fill="#423E37"/>
	</g>
</g></g> </svg>
