<svg xmlns="http://www.w3.org/2000/svg" style="isolation:isolate" width="400" height="400"><defs><clipPath id="a"><path d="M0 0h400v400H0z"/></clipPath></defs><g clip-path="url(#a)"><clipPath id="b"><path fill="#FFF" d="M-133-300h1200V700H-133z"/></clipPath><g clip-path="url(#b)"><clipPath id="c"><path d="M-117-294h1200V706H-117V-294z" fill="#FFF"/></clipPath><g fill-rule="evenodd" clip-path="url(#c)"><path d="M208.9 83.225c21.193 6.308 39.606 17.479 54.401 31.924-6.061-12.085-9.066-18.204-4.597-28.862a141.67 141.67 0 0 0-35.069-15.871c-71.312-21.225-146.149 16.43-172.37 84.743C77.968 95.993 144.956 64.19 208.9 83.225zM302.483 196.594c1.635 16.521.155 33.63-4.874 50.524-20.758 69.754-94.141 109.472-163.895 88.71a131.836 131.836 0 0 1-33.859-15.546c12.691 9.265 27.147 16.562 43.067 21.305 74.881 22.283 153.653-20.351 175.942-95.232 5.871-19.737 7.232-39.741 4.685-58.913a1574.674 1574.674 0 0 0-21.066 9.152z" fill="#423D37"/><path d="M284.451 142.104c21.684-10.808 39.04-21.4 61.36-23.606-21.718 4.636-42.061 15.09-62.1 26.83l.181.005c-51.728 26.397-76.683 49.885-103.98 99.678-19.067-31.459-68.442-67.526-103.675-78.697 38.344 28.838 82.599 92.253 99.992 139.71 33.847-69.567 53.738-112.348 114.914-158.941 19.345-14.733 52.505 37.119 101.937-35.877-55.227-13.386-55.01-41.944-108.629 30.898z" fill="#87C145"/><path d="M279.48 139.03c2.7-14.54 4.563-28.983 2.645-42.992 3.501 13.844.91 26.531-.874 41.853 32.035-47.862 14.977-41.556-4.979-71.738-25.384 34.876-12.729 31.619 3.208 72.877zM175.77 124.076a117.538 117.538 0 0 0-22.334 30.667c-8.333 16.529-11.039 31.646-12 41.333 7.28 3.383 13.307 7.102 18.271 10.719l.69.507a106.616 106.616 0 0 1 15.373 13.892 94.217 94.217 0 0 1 31.666-24.785 96.315 96.315 0 0 0-7.666-38.666c-7.26-17.054-17.77-28.034-24-33.667z" fill="#87C145"/></g></g></g></svg>