<svg xmlns="http://www.w3.org/2000/svg" width="512" height="512"><path d="M346 0H166c-8.291 0-15 6.709-15 15 0 57.891 47.109 105 105 105S361 72.891 361 15c0-8.291-6.709-15-15-15zM106 0H76c-8.291 0-15 6.709-15 15s6.709 15 15 15h30c8.291 0 15-6.709 15-15s-6.709-15-15-15zM436 0h-30c-8.291 0-15 6.709-15 15s6.709 15 15 15h30c8.291 0 15-6.709 15-15s-6.709-15-15-15zM139.076 82.5c-4.131-7.192-13.359-9.653-20.479-5.493l-25.986 15c-7.178 4.146-9.639 13.315-5.479 20.493 4.081 7.121 13.237 9.65 20.479 5.493l25.986-15c7.178-4.145 9.639-13.315 5.479-20.493zM188.5 131.909c-7.148-4.101-16.348-1.684-20.479 5.493l-15 25.986c-4.16 7.178-1.699 16.348 5.479 20.493 7.242 4.156 16.397 1.628 20.479-5.493l15-25.986c4.16-7.178 1.699-16.348-5.479-20.493zM256 150c-8.291 0-15 6.709-15 15v30c0 8.291 6.709 15 15 15s15-6.709 15-15v-30c0-8.291-6.709-15-15-15zM358.979 163.388l-15-25.986c-4.102-7.192-13.301-9.638-20.479-5.493-7.178 4.146-9.639 13.315-5.479 20.493l15 25.986c4.081 7.121 13.237 9.65 20.479 5.493 7.178-4.146 9.639-13.315 5.479-20.493zM419.389 92.007l-25.986-15c-7.148-4.116-16.348-1.685-20.479 5.493-4.16 7.178-1.699 16.348 5.479 20.493 17.523 10.115 36.533 26.83 46.465 9.507 4.159-7.178 1.698-16.348-5.479-20.493zM271 393.516V377c0-15.352 5.977-31.766 16.816-42.605l5.094-5.094C347.534 325.666 391 280.525 391 225c0-8.291-6.709-15-15-15-55.525 0-100.666 43.466-104.301 98.09l-5.094 5.094c-3.994 3.986-7.504 8.32-10.605 12.887-3.102-4.567-6.612-8.901-10.605-12.887l-5.094-5.094C236.666 253.466 191.525 210 136 210c-8.291 0-15 6.709-15 15 0 55.525 43.466 100.666 98.09 104.301l5.094 5.094C235.023 345.234 241 361.648 241 377v16.516c-50.75 7.357-90 50.729-90 103.484 0 8.291 6.709 15 15 15h180c8.291 0 15-6.709 15-15 0-52.755-39.25-96.127-90-103.484z" fill="#423E37"/></svg>