<svg xmlns="http://www.w3.org/2000/svg" width="512" height="512"><path d="M505.991 183.008L264.994 3.01a14.94 14.94 0 0 0-17.988 0L6.01 183.008c-6.621 4.966-7.969 14.37-3.018 20.991 5.01 6.665 14.385 7.939 21.006 3.003l6.006-4.504v294.503c0 8.291 6.709 15 15 15h421.994c8.291 0 15-6.709 15-15V202.498l6.006 4.504c6.616 4.962 16.02 3.637 21.006-3.003 4.95-6.621 3.602-16.025-3.019-20.991zM360.999 437.002c0 8.291-6.709 15-15 15H166.001c-8.291 0-15-6.709-15-15 0-52.754 39.249-96.126 89.999-103.483v-18.516c0-20.81-8.636-32.424-21.91-45.698-54.623-3.635-98.089-48.775-98.089-104.3 0-8.291 6.709-15 15-15 55.524 0 100.665 43.465 104.3 98.089 6.583 6.583 10.312 10.049 15.699 17.981 5.388-7.932 9.116-11.398 15.699-17.981 3.635-54.623 48.775-98.089 104.3-98.089 8.291 0 15 6.709 15 15 0 55.524-43.465 100.665-98.089 104.3-13.274 13.274-21.91 24.89-21.91 45.698v18.516c50.749 7.357 89.999 50.728 89.999 103.483z" data-original="#000000" class="active-path" data-old_color="#000000" fill="#423E37"/><path d="M152.935 181.924c6.416 27.803 28.359 49.716 56.132 56.161-6.416-27.801-28.359-49.715-56.132-56.161zM256 362.003c-36.21 0-66.533 25.811-73.505 59.999h147.01c-6.973-34.189-37.294-59.999-73.505-59.999zM302.933 238.085c27.773-6.445 49.716-28.359 56.132-56.161-27.773 6.446-49.717 28.36-56.132 56.161z" data-original="#000000" class="active-path" data-old_color="#000000" fill="#423E37"/></svg>