<svg xmlns="http://www.w3.org/2000/svg" viewBox="0 0 297 297" width="512" height="512"><path d="M297 196.078v-49.729c0-5.548-4.498-10.046-10.046-10.046h-51.637c-10.397-25.116-23.203-50.088-30.193-61.189-8.231-13.073-16.863-20.666-26.388-23.215-4.919-1.317-9.891-1.264-15.01.156-7.164-20.311-6.602-32.942-6.582-33.333.377-5.506-3.762-10.291-9.274-10.703-5.513-.391-10.353 3.736-10.767 9.27-.04.537-.633 9.504 2.718 24.366-13.573-10.323-23.095-13.71-23.635-13.897-5.244-1.812-11 .956-12.813 6.199s.933 10.953 6.177 12.766c.137.05 13.46 5.009 30.843 21.951a27.514 27.514 0 0 0-3.883 9.815c-1.818 9.691 1.3 20.756 9.531 33.829 3.565 5.66 9.735 14.248 17.327 23.983H149.23a397.502 397.502 0 0 0-5.722-8.387c-15.994-22.823-34.751-45.266-44.28-54.796-16.346-16.343-31.593-20.782-45.475-13.303-11.499-18.237-13.746-30.688-13.809-31.057-.855-5.453-5.957-9.195-11.416-8.38-5.487.823-9.268 5.939-8.445 11.426.05.336.63 3.986 2.69 10.074-5.602-3.135-9.081-4.372-9.401-4.482-5.245-1.812-11 .956-12.813 6.199s.932 10.952 6.176 12.765c.134.049 12.879 4.795 29.699 20.849-2.444 4.615-3.56 9.387-3.369 14.405.375 9.853 5.866 19.953 16.789 30.876 3.536 3.536 8.857 8.346 15.31 13.812H38.307c-5.548 0-10.046 4.498-10.046 10.046v49.729c0 4.947 3.58 9.05 8.288 9.883v13.387c-4.708.833-8.288 4.936-8.288 9.883v49.729c0 5.548 4.498 10.046 10.046 10.046h248.647c5.548 0 10.046-4.498 10.046-10.046V229.23c0-4.947-3.58-9.05-8.288-9.883V205.96c4.708-.832 8.288-4.935 8.288-9.882zM56.641 219.185v-13.06h211.978v13.06H56.641zm120.166-98.34l4.342-2.734a7.035 7.035 0 0 0 2.204-9.699 7.035 7.035 0 0 0-9.699-2.204l-5.255 3.309c-2.178-3.06-3.992-5.739-5.356-7.904-6.641-10.547-7.355-16.381-6.785-19.419.358-1.909 1.479-4.547 7.012-8.031 3.901-2.457 6.475-3.117 8.312-3.117.768 0 1.408.116 1.961.264 2.985.799 7.938 3.964 14.579 14.509 4.569 7.256 12.126 21.514 19.77 38.007l-5.732 3.61c-3.015 1.9-4.087 5.711-2.645 8.866h-10.372a548.66 548.66 0 0 1-12.336-15.457zm-55.551 10.518c.682.931 1.362 1.865 2.04 2.804.526.729 1.022 1.428 1.527 2.136h-9.313a7.004 7.004 0 0 0 2.363-1.557l3.383-3.383zm-39.513-7.374l3.63-3.631a7.032 7.032 0 1 0-9.946-9.944l-4.39 4.39c-2.801-2.502-5.165-4.713-6.975-6.522C55.25 99.471 53.26 93.94 53.143 90.851c-.074-1.941.435-4.761 5.058-9.385 2.44-2.439 5.039-5.039 9.04-5.039 4.057 0 9.553 2.674 17.778 10.9 6.063 6.063 16.591 18.291 27.7 32.681l-4.79 4.79a7.034 7.034 0 0 0 2.363 11.503H97.158a550.475 550.475 0 0 1-15.415-12.312zm-33.39 32.406h228.554v29.637H48.353v-29.637zm228.554 112.519H48.353v-29.637h228.554v29.637z" fill="#423E37"/></svg>