<?xml version="1.0"?>
<svg xmlns="http://www.w3.org/2000/svg" xmlns:xlink="http://www.w3.org/1999/xlink" version="1.1" id="Layer_1" x="0px" y="0px" viewBox="0 0 512 512" style="enable-background:new 0 0 512 512;" xml:space="preserve" width="512px" height="512px" class=""><g><circle style="fill:#CD5360" cx="256" cy="256" r="256" data-original="#273B7A" class="" data-old_color="#273B7A"/><path style="fill:#B22303" d="M504.396,318.114L361.477,175.195l-79.551,124.544l-25.064-25.064l-14.339,12.381L124.107,168.639  l-31.67-19.877l29.606,29.606l-2.167,1.489l114.357,114.357l-7.937,6.854L91.419,166.193l-15.027,1.924l24.681,25l-2.617,1.019  l116.62,116.62l-101.298,87.466L225.77,510.214C235.685,511.381,245.77,512,256,512C375.961,512,476.636,429.482,504.396,318.114z" data-original="#121149" class="" data-old_color="#961E03"/><path style="fill:#6CAF5F;" d="M159.749,194.227c0,0-32.754-52.867-60.911-54.015c-28.158-1.15,13.215,22.409,13.215,22.409  s1.724,15.515,13.791,21.837C137.912,190.779,159.749,194.227,159.749,194.227z" data-original="#6CAF5F"/><path style="fill:#477F3C;" d="M162.547,194.136c0,0-17.537-47.502-39.814-52.996s6.901,20.028,6.901,20.028  s-1.146,12.659,7.452,19.663C145.687,187.835,162.547,194.136,162.547,194.136z" data-original="#477F3C" class=""/><path style="fill:#8BC180;" d="M130.295,206.072c0,0-25.797-43.573-48.699-44.97c-22.902-1.396,10.392,18.46,10.392,18.46  s1.15,12.659,10.869,18.001C112.576,202.907,130.295,206.072,130.295,206.072z" data-original="#8BC180"/><path style="fill:#EAA22F;" d="M179.491,188.316l48.064,96.128l-75.276-75.276c-5.554-5.554-5.554-14.558,0-20.113l4.436-4.436  C163.578,177.755,175.151,179.633,179.491,188.316z" data-original="#EAA22F"/><path style="fill:#FEE187;" d="M149.035,206.129l48.064,96.128l-75.278-75.276c-5.554-5.554-5.554-14.558,0-20.113l4.436-4.436  C133.122,195.568,144.694,197.446,149.035,206.129z" data-original="#FEE187"/><circle style="fill:#8BC180;" cx="318.923" cy="221.522" r="62.923" data-original="#8BC180"/><path style="fill:#2E5E24;" d="M346.078,164.748c-8.53,9.945-12.874,23.697-25.248,27.41c-20.959,8.383-43.194,12.941-64.367,21.852  c-0.293,2.465-0.462,4.968-0.462,7.513c0,34.75,28.172,62.923,62.923,62.923s62.923-28.172,62.923-62.923  C381.845,196.496,367.233,174.885,346.078,164.748z" data-original="#2E5E24"/><path style="fill:#477F3C;" d="M256,221.522c0,34.75,28.172,62.923,62.923,62.923c11.217,0,21.738-2.95,30.86-8.092  c-29.043-31.591-52.219-69.058-58.28-111.475C270.489,175.068,256,196.601,256,221.522z" data-original="#477F3C" class=""/><path style="fill:#6CAF5F;" d="M347.757,165.6c3.917,10.28,4.541,21.588,0.531,29.608c-16.779,28.982-51.864,41.186-71.694,67.117  c-0.874,1.112-1.691,2.232-2.476,3.36c11.409,11.578,27.265,18.76,44.804,18.76c34.751,0,62.923-28.172,62.923-62.923  C381.845,197.167,367.999,176.059,347.757,165.6z" data-original="#6CAF5F"/><circle style="fill:#8BC180;" cx="233.365" cy="233.503" r="53.631" data-original="#8BC180"/><path style="fill:#6CAF5F;" d="M270.22,194.517c-4.229-3.998-8.942-7.161-13.933-9.519v96.997c5.87-2.772,11.338-6.649,16.067-11.65  C292.705,248.816,291.75,214.866,270.22,194.517z" data-original="#6CAF5F"/><g>
	<path style="fill:#477F3C;" d="M194.393,196.651c-20.351,21.528-19.394,55.479,2.134,75.828   c6.949,6.568,15.195,10.904,23.855,13.057c0.507-36.576,8.09-73.361,29.174-103.188   C230.572,176.357,208.986,181.214,194.393,196.651z" data-original="#477F3C" class=""/>
	<path style="fill:#477F3C;" d="M283.984,215.738c-3.594,8.661-9.828,16.032-17.01,18.654c-27.367,8.13-56.248-4.856-83.718-0.403   c-1.191,0.178-2.355,0.393-3.501,0.631c0.291,13.853,5.908,27.588,16.774,37.859c21.528,20.349,55.477,19.394,75.828-2.134   C286.617,255.257,290.399,234.072,283.984,215.738z" data-original="#477F3C" class=""/>
</g><rect x="113.778" y="227.556" style="fill:#C92F00;" width="284.444" height="170.667" data-original="#C92F00" class=""/><rect x="255.862" y="227.556" style="fill:#930000;" width="142.36" height="170.667" data-original="#930000" class=""/><rect x="113.778" y="227.556" style="fill:#FF7F4F" width="284.444" height="42.667" data-original="#FF7F4F" class="active-path"/><rect x="255.862" y="227.556" style="fill:#D35933;" width="142.36" height="42.667" data-original="#D35933" class=""/><rect x="113.778" y="291.547" style="fill:#FF7F4F" width="284.444" height="42.667" data-original="#FF7F4F" class="active-path"/><rect x="255.862" y="291.547" style="fill:#D35933;" width="142.36" height="42.667" data-original="#D35933" class=""/><rect x="113.778" y="355.556" style="fill:#FF7F4F" width="284.444" height="42.667" data-original="#FF7F4F" class="active-path"/><rect x="255.862" y="355.556" style="fill:#D35933;" width="142.36" height="42.667" data-original="#D35933" class=""/><rect x="113.778" y="227.556" style="fill:#EAA22F;" width="28.444" height="170.667" data-original="#EAA22F"/><rect x="369.778" y="227.556" style="fill:#E09112" width="28.444" height="170.667" data-original="#E09112" class=""/></g> </svg>
