<?xml version="1.0" encoding="iso-8859-1"?>
<!-- Generator: Adobe Illustrator 19.0.0, SVG Export Plug-In . SVG Version: 6.00 Build 0)  -->
<svg xmlns="http://www.w3.org/2000/svg" xmlns:xlink="http://www.w3.org/1999/xlink" version="1.1" id="Capa_1" x="0px" y="0px" viewBox="0 0 512 512" style="enable-background:new 0 0 512 512;" xml:space="preserve" width="512px" height="512px">
<g>
	<g>
		<path d="M346,0H166c-8.291,0-15,6.709-15,15c0,57.891,47.109,105,105,105S361,72.891,361,15C361,6.709,354.291,0,346,0z" fill="#423E37"/>
	</g>
</g>
<g>
	<g>
		<path d="M106,0H76c-8.291,0-15,6.709-15,15s6.709,15,15,15h30c8.291,0,15-6.709,15-15S114.291,0,106,0z" fill="#423E37"/>
	</g>
</g>
<g>
	<g>
		<path d="M436,0h-30c-8.291,0-15,6.709-15,15s6.709,15,15,15h30c8.291,0,15-6.709,15-15S444.291,0,436,0z" fill="#423E37"/>
	</g>
</g>
<g>
	<g>
		<path d="M139.076,82.5c-4.131-7.192-13.359-9.653-20.479-5.493l-25.986,15c-7.178,4.146-9.639,13.315-5.479,20.493    c4.081,7.121,13.237,9.65,20.479,5.493l25.986-15C140.775,98.848,143.236,89.678,139.076,82.5z" fill="#423E37"/>
	</g>
</g>
<g>
	<g>
		<path d="M188.5,131.909c-7.148-4.101-16.348-1.684-20.479,5.493l-15,25.986c-4.16,7.178-1.699,16.348,5.479,20.493    c7.242,4.156,16.397,1.628,20.479-5.493l15-25.986C198.139,145.224,195.678,136.054,188.5,131.909z" fill="#423E37"/>
	</g>
</g>
<g>
	<g>
		<path d="M256,150c-8.291,0-15,6.709-15,15v30c0,8.291,6.709,15,15,15s15-6.709,15-15v-30C271,156.709,264.291,150,256,150z" fill="#423E37"/>
	</g>
</g>
<g>
	<g>
		<path d="M358.979,163.388l-15-25.986c-4.102-7.192-13.301-9.638-20.479-5.493c-7.178,4.146-9.639,13.315-5.479,20.493l15,25.986    c4.081,7.121,13.237,9.65,20.479,5.493C360.678,179.735,363.139,170.566,358.979,163.388z" fill="#423E37"/>
	</g>
</g>
<g>
	<g>
		<path d="M419.389,92.007l-25.986-15c-7.148-4.116-16.348-1.685-20.479,5.493c-4.16,7.178-1.699,16.348,5.479,20.493    c17.523,10.115,36.533,26.83,46.465,9.507C429.027,105.322,426.566,96.152,419.389,92.007z" fill="#423E37"/>
	</g>
</g>
<g>
	<g>
		<path d="M271,393.516V377c0-15.352,5.977-31.766,16.816-42.605l5.094-5.094C347.534,325.666,391,280.525,391,225    c0-8.291-6.709-15-15-15c-55.525,0-100.666,43.466-104.301,98.09l-5.094,5.094c-3.994,3.986-7.504,8.32-10.605,12.887    c-3.102-4.567-6.612-8.901-10.605-12.887l-5.094-5.094C236.666,253.466,191.525,210,136,210c-8.291,0-15,6.709-15,15    c0,55.525,43.466,100.666,98.09,104.301l5.094,5.094C235.023,345.234,241,361.648,241,377v16.516    c-50.75,7.357-90,50.729-90,103.484c0,8.291,6.709,15,15,15h180c8.291,0,15-6.709,15-15C361,444.245,321.75,400.873,271,393.516z" fill="#423E37"/>
	</g>
</g>
<g>
</g>
<g>
</g>
<g>
</g>
<g>
</g>
<g>
</g>
<g>
</g>
<g>
</g>
<g>
</g>
<g>
</g>
<g>
</g>
<g>
</g>
<g>
</g>
<g>
</g>
<g>
</g>
<g>
</g>
</svg>
