<svg xmlns="http://www.w3.org/2000/svg" width="512" height="512"><path d="M450.779 50.888a97274.664 97274.664 0 0 0-6.778-38.452C442.578 4.19 434.542-1.289 426.603.264c-86.267 15.208-298.294 52.59-384.648 67.821-8.147 1.443-13.596 9.227-12.161 17.393l6.778 38.463c.088.495.3.942.402 1.434 4.971 24.249 25.001 41.221 49.405 42.756l.096.245c4.166.26 8.4.181 12.707-.574l307.736-54.248c4.305-.763 8.325-2.147 12.168-3.831v-.007c23.317-10.195 35.801-35.511 31.693-58.828zM222.757 176.516h194.795l.807-35.146c-12.484 3.219-182.694 32.87-195.602 35.146zM467.413 206.559H76.854c-8.303 0-15.021 6.719-15.021 15.021v41.068c0 28.847 24.238 54.071 54.071 54.071h312.459c29.757 0 54.071-25.184 54.071-54.071V221.58c.001-8.302-6.718-15.021-15.021-15.021zM109.602 346.763l30.643 153.218c1.502 6.909 7.511 12.018 14.721 12.018h234.336c7.21 0 13.221-5.108 14.721-12.018l30.641-153.218H109.602z" fill="#423E37"/></svg>