<?xml version="1.0" encoding="iso-8859-1"?>
<!-- Generator: Adobe Illustrator 19.0.0, SVG Export Plug-In . SVG Version: 6.00 Build 0)  -->
<svg version="1.1" id="Layer_1" xmlns="http://www.w3.org/2000/svg" xmlns:xlink="http://www.w3.org/1999/xlink" x="0px" y="0px"
	 viewBox="0 0 512 512" style="enable-background:new 0 0 512 512;" xml:space="preserve">
<circle style="fill:#FEE187;" cx="256" cy="256" r="256"/>
<path style="fill:#FFC61B;" d="M286.894,510.138c115.536-13.9,207.382-104.744,222.808-219.805L380.121,160.754l-57.915,39.055
	l-56.463-57.858l-9.383,46.168l34.273,32.98l-83.396,56.241l-47.776,26.929l84.089,84.089l-44.439,33.999L286.894,510.138z"/>
<path style="fill:#477F3C;" d="M256,278.411l-41.908-48.269C209.436,165.05,256,133.603,256,133.603s46.564,31.447,41.908,96.539
	L256,278.411z"/>
<path style="fill:#2E5E24;" d="M256,133.603c0,0,46.564,31.447,41.908,96.539L256,278.411V133.603z"/>
<path style="fill:#6CAF5F;" d="M131.879,160.754c0,0,130.153,1.15,152.566,113.778l-87.792-0.045
	C196.653,274.487,209.024,234.308,131.879,160.754z"/>
<path style="fill:#8BC180;" d="M380.121,160.754c0,0-130.153,1.15-152.566,113.778l87.792-0.045
	C315.347,274.487,302.976,234.308,380.121,160.754z"/>
<path style="fill:#477F3C;" d="M113.778,187.906c0,0,149.133,1.376,174.814,136.189l-100.595-0.053
	C187.999,324.041,202.173,275.947,113.778,187.906z"/>
<path style="fill:#2E5E24;" d="M398.222,187.906c0,0-149.133,1.376-174.814,136.189l100.595-0.053
	C324.001,324.041,309.827,275.947,398.222,187.906z"/>
<polygon style="fill:#D35933;" points="312.889,422.357 199.111,422.357 170.667,280.135 341.333,280.135 "/>
<g>
	<polygon style="fill:#B54324;" points="341.333,280.135 256.288,280.135 256.288,422.357 312.889,422.357 	"/>
	<rect x="159.461" y="256" style="fill:#B54324;" width="193.077" height="48.269"/>
</g>
<rect x="256.293" y="256" style="fill:#930000;" width="96.251" height="48.269"/>
<g>
</g>
<g>
</g>
<g>
</g>
<g>
</g>
<g>
</g>
<g>
</g>
<g>
</g>
<g>
</g>
<g>
</g>
<g>
</g>
<g>
</g>
<g>
</g>
<g>
</g>
<g>
</g>
<g>
</g>
</svg>
