<?xml version="1.0" encoding="iso-8859-1"?>
<!-- Generator: Adobe Illustrator 19.0.0, SVG Export Plug-In . SVG Version: 6.00 Build 0)  -->
<svg xmlns="http://www.w3.org/2000/svg" xmlns:xlink="http://www.w3.org/1999/xlink" version="1.1" id="Capa_1" x="0px" y="0px" viewBox="0 0 512 512" style="enable-background:new 0 0 512 512;" xml:space="preserve" width="512px" height="512px">
<g>
	<g>
		<path d="M450.779,50.888c-2.604-14.792-4.532-25.721-6.778-38.452c-1.423-8.246-9.459-13.725-17.398-12.172    C340.336,15.472,128.309,52.854,41.955,68.085c-8.147,1.443-13.596,9.227-12.161,17.393l6.778,38.463    c0.088,0.495,0.3,0.942,0.402,1.434c4.971,24.249,25.001,41.221,49.405,42.756l0.096,0.245c4.166,0.26,8.4,0.181,12.707-0.574    l307.736-54.248c4.305-0.763,8.325-2.147,12.168-3.831v-0.007C442.403,99.521,454.887,74.205,450.779,50.888z" fill="#423E37"/>
	</g>
</g>
<g>
	<g>
		<path d="M222.757,176.516h194.795l0.807-35.146C405.875,144.589,235.665,174.24,222.757,176.516z" fill="#423E37"/>
	</g>
</g>
<g>
	<g>
		<path d="M467.413,206.559H76.854c-8.303,0-15.021,6.719-15.021,15.021v41.068c0,28.847,24.238,54.071,54.071,54.071h312.459    c29.757,0,54.071-25.184,54.071-54.071v-41.068C482.435,213.278,475.716,206.559,467.413,206.559z" fill="#423E37"/>
	</g>
</g>
<g>
	<g>
		<path d="M109.602,346.763l30.643,153.218c1.502,6.909,7.511,12.018,14.721,12.018h234.336c7.21,0,13.221-5.108,14.721-12.018    l30.641-153.218H109.602z" fill="#423E37"/>
	</g>
</g>
<g>
</g>
<g>
</g>
<g>
</g>
<g>
</g>
<g>
</g>
<g>
</g>
<g>
</g>
<g>
</g>
<g>
</g>
<g>
</g>
<g>
</g>
<g>
</g>
<g>
</g>
<g>
</g>
<g>
</g>
</svg>
