<svg xmlns="http://www.w3.org/2000/svg" width="512" height="512"><path d="M323.19 242.557a14.993 14.993 0 0 0-16.72 0c-3.748 2.519-36.616 25.504-36.616 57.42s32.868 54.902 36.616 57.42a14.995 14.995 0 0 0 8.359 2.548c2.913 0 5.827-.85 8.36-2.548 3.748-2.519 36.616-25.504 36.616-57.42s-32.867-54.903-36.615-57.42zM451.295 368.715a14.994 14.994 0 0 0-11.83-11.816c-4.407-.864-43.907-7.833-66.483 14.714-22.576 22.561-15.578 62.076-14.714 66.512a14.993 14.993 0 0 0 11.83 11.815c1.786.352 9.267 1.684 19.048 1.684 14.465 0 33.966-2.942 47.435-16.397 22.575-22.561 15.577-62.076 14.714-66.512zM316.645 431.852c-22.59-22.59-62.076-15.607-66.497-14.714a14.997 14.997 0 0 0-11.815 11.815c-.864 4.436-7.862 43.951 14.714 66.497 13.47 13.47 32.941 16.412 47.42 16.412 9.795 0 17.291-1.347 19.077-1.698a14.977 14.977 0 0 0 11.815-11.815c.864-4.436 7.862-43.937-14.714-66.497zM502.735 138.067s-.024-.016-.033-.029l-71.94-95.91C411.071 15.833 379.682.139 346.813.139H203.079c-33.732 0-67.2 10.614-94.798 29.969l-3.352.029-89.937-.014C6.705 30.122 0 36.828 0 45.114v119.935c0 8.287 6.705 14.992 14.992 14.992h114.269c50.102 44.064 104.259 50.12 156.99 3.748a15.018 15.018 0 0 1 9.912-3.748h50.65c16.56 0 29.984-13.426 29.984-29.984 0-16.56-13.424-29.984-29.984-29.984h-78.569c-17.159 0-32.575-9.531-40.217-24.875-3.704-7.408-.688-16.412 6.72-20.101 7.437-3.748 16.427-.674 20.101 6.72 2.548 5.109 7.686 8.272 13.396 8.272h88.612c12.459 0 24.45 5.226 32.926 14.333l74.035 79.48c24.607 26.412 66.993-8.472 38.918-45.835z" fill="#423E37"/></svg>