<?xml version="1.0" encoding="iso-8859-1"?>
<!-- Generator: Adobe Illustrator 19.0.0, SVG Export Plug-In . SVG Version: 6.00 Build 0)  -->
<svg version="1.1" id="Layer_1" xmlns="http://www.w3.org/2000/svg" xmlns:xlink="http://www.w3.org/1999/xlink" x="0px" y="0px"
	 viewBox="0 0 512 512" style="enable-background:new 0 0 512 512;" xml:space="preserve">
<circle style="fill:#386895;" cx="256" cy="256" r="256"/>
<g>
	<path style="fill:#273B7A;" d="M512,256c0-1.838-0.031-3.668-0.069-5.496L394.533,133.106l-13.672,53.527l-8.783-8.783h-87.345
		l-98.778,52.121l105.693,105.693l-8.442,4.808l122.902,122.902C470.264,416.854,512,341.307,512,256z"/>
	<path style="fill:#273B7A;" d="M233.639,328.145l150.678,149.411c4.129-2.396,8.18-4.911,12.159-7.528L244.367,317.337
		L233.639,328.145z"/>
</g>
<path style="fill:#FFC61B;" d="M19.082,353.113C57.337,446.336,148.992,512,256,512s198.663-65.664,236.918-158.887L19.082,353.113
	L19.082,353.113z"/>
<path style="fill:#EAA22F;" d="M255.857,353.113v158.884c0.048,0,0.095,0.003,0.143,0.003c107.008,0,198.663-65.664,236.918-158.887
	L255.857,353.113L255.857,353.113z"/>
<g>
	<path style="fill:#C92F00;" d="M238.994,315.111c-4.203,0-7.625,3.42-7.625,7.625s3.42,7.625,7.625,7.625s7.625-3.42,7.625-7.625
		S243.197,315.111,238.994,315.111z"/>
	<path style="fill:#C92F00;" d="M257.593,252.554c-4.203,0-7.625,3.42-7.625,7.625c0,4.205,3.42,7.625,7.625,7.625
		s7.625-3.42,7.625-7.625C265.218,255.974,261.796,252.554,257.593,252.554z"/>
	<path style="fill:#C92F00;" d="M213.632,414.863c-4.203,0-7.625,3.42-7.625,7.625s3.42,7.625,7.625,7.625s7.627-3.42,7.627-7.625
		S217.836,414.863,213.632,414.863z"/>
	<path style="fill:#C92F00;" d="M288.023,414.863c-4.203,0-7.625,3.42-7.625,7.625s3.42,7.625,7.625,7.625
		c4.205,0,7.627-3.42,7.627-7.625S292.23,414.863,288.023,414.863z"/>
	<path style="fill:#C92F00;" d="M288.025,326.946c-4.203,0-7.625,3.42-7.625,7.625s3.42,7.625,7.625,7.625s7.625-3.42,7.625-7.625
		S292.23,326.946,288.025,326.946z"/>
</g>
<path style="fill:#FFEDB5;" d="M185.954,229.971c2.396,3.331,6.751,4.641,10.592,3.198c0.055-0.021,0.11-0.04,0.165-0.059l65-21.64
	c-0.014-0.522-0.003-1.048,0.031-1.577c0.543-8.301,6.961-14.969,15.21-15.806l39.172-4.068c2.477-0.259,4.694,1.543,4.951,4.018
	c0.259,2.477-1.541,4.751-4.018,4.951l-39.172,4.068c-3.867,0.421-6.887,3.525-7.142,7.423c-0.138,2.127,0.56,4.182,1.967,5.784
	c1.407,1.603,3.353,2.562,5.482,2.701l52.01,3.391c5.841,0.379,11.64-0.91,16.768-3.734l68.594-37.772l-18.577-37.459l-17.23,15.032
	c-7.318,6.384-17.012,9.133-26.595,7.54l-57.594-9.571c-10.554-1.403-21.135,1.229-29.799,7.411l-78.417,54.005
	C183.846,220.874,183.224,226.176,185.954,229.971z"/>
<path style="fill:#FEE187;" d="M396.988,143.391l-17.23,15.032c-7.318,6.384-17.011,9.133-26.595,7.54l-57.225-9.511v35.661
	l20.187-2.096c2.477-0.259,4.694,1.543,4.951,4.018c0.259,2.477-1.541,4.751-4.018,4.951l-21.12,2.193v18.941l34.263,2.234
	c5.841,0.379,11.64-0.91,16.768-3.734l68.594-37.772L396.988,143.391z"/>
<rect x="384.164" y="136.319" transform="matrix(-0.8256 0.5643 -0.5643 -0.8256 820.0515 74.8431)" style="fill:#D35933;" width="28.59" height="55.684"/>
<g>
</g>
<g>
</g>
<g>
</g>
<g>
</g>
<g>
</g>
<g>
</g>
<g>
</g>
<g>
</g>
<g>
</g>
<g>
</g>
<g>
</g>
<g>
</g>
<g>
</g>
<g>
</g>
<g>
</g>
</svg>
