<?xml version="1.0" encoding="iso-8859-1"?>
<!-- Generator: Adobe Illustrator 19.0.0, SVG Export Plug-In . SVG Version: 6.00 Build 0)  -->
<svg version="1.1" id="Layer_1" xmlns="http://www.w3.org/2000/svg" xmlns:xlink="http://www.w3.org/1999/xlink" x="0px" y="0px"
	 viewBox="0 0 512 512" style="enable-background:new 0 0 512 512;" xml:space="preserve">
<circle style="fill:#273B7A;" cx="256" cy="256" r="256"/>
<path style="fill:#121149;" d="M508.292,299.563L309.8,101.071l-55.648,30.465l-19.77,166.262l-43.889,107.894l103.672,103.472
	C403.189,492.868,489.729,407.83,508.292,299.563z"/>
<path style="fill:#FFEDB5;" d="M282.793,131.096c0,0,0.86,28.425,17.305,39.933c0,0-29.72-7.877-38.135-25.803
	C253.549,127.298,282.793,131.096,282.793,131.096z"/>
<path style="fill:#FFC61B;" d="M256.969,179.924l8.485-26.452c2.379-7.418,6.989-13.134,12.686-15.732l31.661-14.441v-22.228
	h-79.057c-2.963,0-5.872,1.071-8.421,3.098L204.5,118.346c-5.055,4.02-5.735,13.481-1.345,18.725l30.555,36.502L256.969,179.924z"/>
<path style="fill:#EAA22F;" d="M243.359,101.071v75.136l13.61,3.715l8.485-26.452c2.379-7.418,6.989-13.134,12.686-15.732
	l31.661-14.441v-22.226H243.359z"/>
<polygon style="fill:#FEE187;" points="309.8,101.071 291.738,101.071 291.738,131.536 309.8,123.299 "/>
<path style="fill:#71E2EF;" d="M204.488,195.572c-13.929,46.997-36.893,141.409-18.398,202.899
	c2.238,7.439,9.19,12.459,16.958,12.459h107.618c8.585,0,15.953-6.125,17.477-14.574c4.489-24.867,10.549-75.264-7.827-100.707
	c-17.584-24.347-30.884-63.921-36.211-95.27c-3.279-19.296-19.928-33.439-39.502-33.439h-1.722
	C225.158,166.938,209.525,178.574,204.488,195.572z"/>
<g>
	<path style="fill:#38C6D9;" d="M320.319,295.648c-17.584-24.348-30.884-63.921-36.211-95.27
		c-3.279-19.296-19.928-33.439-39.502-33.439h-1.248v243.99h67.308c8.585,0,15.953-6.125,17.477-14.574
		C332.633,371.486,338.694,321.09,320.319,295.648z"/>
	<path style="fill:#38C6D9;" d="M308.92,305.64c-5.248-7.292-15.026-9.775-22.914-5.477c-11.812,6.435-23.926,11.611-37.1,13.257
		c-12.055,1.167-24.033,0.753-35.947-0.738c-10.042-1.257-19.111,6.323-19.735,16.424c-1.288,20.808-0.369,41.207,4.367,58.647
		c2.093,7.709,9.142,13.028,17.13,13.028h83.708c8.678,0,16.07-6.266,17.52-14.822c3.606-21.283,7.539-60.14-6.942-80.193
		C308.981,305.724,308.951,305.683,308.92,305.64z"/>
</g>
<path style="fill:#02B2B2;" d="M309.012,305.766c-0.031-0.041-0.06-0.083-0.09-0.126c-5.248-7.292-15.026-9.775-22.914-5.477
	c-11.812,6.435-23.926,11.611-37.1,13.257c-1.851,0.179-3.699,0.309-5.548,0.415v86.945h55.074c8.678,0,16.07-6.266,17.52-14.822
	C319.559,364.675,323.493,325.816,309.012,305.766z"/>
<g>
</g>
<g>
</g>
<g>
</g>
<g>
</g>
<g>
</g>
<g>
</g>
<g>
</g>
<g>
</g>
<g>
</g>
<g>
</g>
<g>
</g>
<g>
</g>
<g>
</g>
<g>
</g>
<g>
</g>
</svg>
