<svg xmlns="http://www.w3.org/2000/svg" width="512" height="512"><path d="M396.918 68.291l-30-60A15.006 15.006 0 0 0 353.5 0h-240c-8.291 0-15 6.709-15 15v60c0 8.291 6.709 15 15 15h42.914c-4.644 25.003-19.938 46.74-43.295 58.418-7.412 3.706-10.4 12.715-6.709 20.127a15.006 15.006 0 0 0 20.127 6.709c33.693-16.846 56.072-48.69 60.923-85.254h31.04c8.262 0 15 6.724 15 15v15h-15c-8.291 0-15 6.709-15 15v45h150v-45c0-8.291-6.709-15-15-15h-15v-15c0-8.276 6.738-15 15-15h45c11.036 0 18.426-11.66 13.418-21.709zM353.5 242.578V210h-60v60h64.774c-2.899-8.769-4.774-17.911-4.774-27.422zM203.5 210v32.578c0 9.51-1.875 18.653-4.774 27.422H263.5v-60h-60zM375.491 301H293.5v136c0 8.291-6.709 15-15 15s-15-6.709-15-15V301h-81.991c-23.026 26.171-38.009 48.73-38.009 87.422V467c0 24.814 20.186 45 45 45h180c24.814 0 45-20.186 45-45v-78.578c0-38.69-14.984-61.251-38.009-87.422z" fill="#423E37"/></svg>