<?xml version="1.0" encoding="iso-8859-1"?>
<!-- Generator: Adobe Illustrator 19.0.0, SVG Export Plug-In . SVG Version: 6.00 Build 0)  -->
<svg xmlns="http://www.w3.org/2000/svg" xmlns:xlink="http://www.w3.org/1999/xlink" version="1.1" id="Capa_1" x="0px" y="0px" viewBox="0 0 512 512" style="enable-background:new 0 0 512 512;" xml:space="preserve" width="512px" height="512px">
<g>
	<g>
		<path d="M396.918,68.291l-30-60C364.369,3.208,359.184,0,353.5,0h-180h-60c-8.291,0-15,6.709-15,15v60c0,8.291,6.709,15,15,15    h42.914c-4.644,25.003-19.938,46.74-43.295,58.418c-7.412,3.706-10.4,12.715-6.709,20.127c3.655,7.288,12.534,10.453,20.127,6.709    c33.693-16.846,56.072-48.69,60.923-85.254h31.04c8.262,0,15,6.724,15,15v15h-15c-8.291,0-15,6.709-15,15v45h150v-45    c0-8.291-6.709-15-15-15h-15v-15c0-8.276,6.738-15,15-15h45C394.536,90,401.926,78.34,396.918,68.291z" fill="#423E37"/>
	</g>
</g>
<g>
	<g>
		<path d="M353.5,242.578V210h-60v60h64.774C355.375,261.231,353.5,252.089,353.5,242.578z" fill="#423E37"/>
	</g>
</g>
<g>
	<g>
		<path d="M203.5,210v32.578c0,9.51-1.875,18.653-4.774,27.422H263.5v-60H203.5z" fill="#423E37"/>
	</g>
</g>
<g>
	<g>
		<path d="M375.491,301H293.5v136c0,8.291-6.709,15-15,15c-8.291,0-15-6.709-15-15V301h-81.991    c-23.026,26.171-38.009,48.73-38.009,87.422V467c0,24.814,20.186,45,45,45h180c24.814,0,45-20.186,45-45v-78.578    C413.5,349.732,398.516,327.171,375.491,301z" fill="#423E37"/>
	</g>
</g>
<g>
</g>
<g>
</g>
<g>
</g>
<g>
</g>
<g>
</g>
<g>
</g>
<g>
</g>
<g>
</g>
<g>
</g>
<g>
</g>
<g>
</g>
<g>
</g>
<g>
</g>
<g>
</g>
<g>
</g>
</svg>
