<?xml version="1.0"?>
<svg xmlns="http://www.w3.org/2000/svg" xmlns:xlink="http://www.w3.org/1999/xlink" version="1.1" id="Layer_1" x="0px" y="0px" viewBox="0 0 512 512" style="enable-background:new 0 0 512 512;" xml:space="preserve" width="512px" height="512px" class=""><g><circle style="fill:#008F95" cx="256" cy="256" r="256" data-original="#273B7A" class="" data-old_color="#CD5360"/><path style="fill:#03393B" d="M347.253,495.237c59.082-22.549,107.668-66.341,136.402-122.053L284.446,174.976l-3.437,45.746  l-86.723-85.676l-20.458,85.432l-27.627,72.507l80.749,79.612l-2.769,0.703L347.253,495.237z" data-original="#121149" class="active-path" data-old_color="#02383A"/><path style="fill:#38C6D9;" d="M126.305,244.91c0-37.543,67.979-109.866,67.979-109.866s67.979,72.321,67.979,109.866  s-30.434,67.979-67.977,67.979S126.305,282.453,126.305,244.91z" data-original="#38C6D9" class=""/><path style="fill:#02B2B2;" d="M194.286,135.044c0,0,67.979,72.321,67.979,109.866s-30.436,67.979-67.979,67.979V135.044z" data-original="#02B2B2" class=""/><path style="fill:#8CEFF4;" d="M199.113,312.889c0-47.128,85.333-137.912,85.333-137.912s85.333,90.784,85.333,137.912  s-38.205,85.333-85.333,85.333S199.113,360.017,199.113,312.889z" data-original="#8CEFF4" class=""/><path style="fill:#71E2EF" d="M284.446,174.976c0,0,85.333,90.784,85.333,137.912s-38.205,85.333-85.333,85.333V174.976z" data-original="#71E2EF" class=""/></g> </svg>
