<?xml version="1.0" encoding="iso-8859-1"?>
<!-- Generator: Adobe Illustrator 19.0.0, SVG Export Plug-In . SVG Version: 6.00 Build 0)  -->
<svg xmlns="http://www.w3.org/2000/svg" xmlns:xlink="http://www.w3.org/1999/xlink" version="1.1" id="Capa_1" x="0px" y="0px" viewBox="0 0 512 512" style="enable-background:new 0 0 512 512;" xml:space="preserve" width="512px" height="512px">
<g>
	<g>
		<path d="M478.945,462.928L477.953,452H154.031l-0.992,10.913C150.653,489.161,171.369,512,197.834,512H434.15    C460.614,512,481.335,489.174,478.945,462.928z" fill="#423e37"/>
	</g>
</g>
<g>
	<g>
		<path d="M345.992,0c-75.346,0-139.864,50.858-159.514,120h32.345c18.527-52.234,68.634-90,127.169-90    c60.374,0,112.008,40.093,129.22,94.856c5.943,6.341,13.557,112.685,14.344,121.34c14.077-24.602,22.436-52.31,22.436-81.196    C511.992,74.019,436.959,0,345.992,0z" fill="#423e37"/>
	</g>
</g>
<g>
	<g>
		<path d="M117.56,152.314c-11.221-4.629-24.053-2.109-32.695,6.504L8.81,234.873c-8.613,8.613-11.162,21.445-6.504,32.695    c7.877,19.023,22.275,18.53,40.161,18.53l93.609-93.629C136.076,174.584,136.574,160.212,117.56,152.314z" fill="#423e37"/>
	</g>
</g>
<g>
	<g>
		<polygon points="142.292,228.679 78.665,292.319 133.271,346.917 143.874,230.261   " fill="#423e37"/>
	</g>
</g>
<g>
	<g>
		<path d="M315.992,248.232c-15.908,19.878-30,42.203-30,51.768c0,16.538,13.447,30,30,30c16.553,0,30-13.462,30-30    C345.992,290.713,331.929,268.213,315.992,248.232z" fill="#423e37"/>
	</g>
</g>
<g>
	<g>
		<path d="M451.904,163.537C451.15,155.872,444.719,150,436.992,150c-110.098,0-152.959,0-255.682,0l-24.551,272h318.463    L451.904,163.537z M315.992,360c-33.076,0-60-26.909-60-60c0-29.121,40.693-75.938,48.838-85.02    c5.684-6.328,16.641-6.328,22.324,0c8.145,9.082,48.838,55.898,48.838,85.02C375.992,333.091,349.068,360,315.992,360z" fill="#423e37"/>
	</g>
</g>
<g>
</g>
<g>
</g>
<g>
</g>
<g>
</g>
<g>
</g>
<g>
</g>
<g>
</g>
<g>
</g>
<g>
</g>
<g>
</g>
<g>
</g>
<g>
</g>
<g>
</g>
<g>
</g>
<g>
</g>
</svg>
