<svg xmlns="http://www.w3.org/2000/svg" width="512" height="512"><path d="M478.945 462.928L477.953 452H154.031l-.992 10.913C150.653 489.161 171.369 512 197.834 512H434.15c26.464 0 47.185-22.826 44.795-49.072zM345.992 0c-75.346 0-139.864 50.858-159.514 120h32.345c18.527-52.234 68.634-90 127.169-90 60.374 0 112.008 40.093 129.22 94.856 5.943 6.341 13.557 112.685 14.344 121.34 14.077-24.602 22.436-52.31 22.436-81.196 0-90.981-75.033-165-166-165zM117.56 152.314a29.987 29.987 0 0 0-32.695 6.504L8.81 234.873a29.914 29.914 0 0 0-6.504 32.695c7.877 19.023 22.275 18.53 40.161 18.53l93.609-93.629c0-17.885.498-32.257-18.516-40.155zM142.292 228.679l-63.627 63.64 54.606 54.598 10.603-116.656zM315.992 248.232c-15.908 19.878-30 42.203-30 51.768 0 16.538 13.447 30 30 30s30-13.462 30-30c0-9.287-14.063-31.787-30-51.768z" fill="#423e37"/><path d="M451.904 163.537c-.754-7.665-7.185-13.537-14.912-13.537H181.31l-24.551 272h318.463l-23.318-258.463zM315.992 360c-33.076 0-60-26.909-60-60 0-29.121 40.693-75.938 48.838-85.02 5.684-6.328 16.641-6.328 22.324 0 8.145 9.082 48.838 55.898 48.838 85.02 0 33.091-26.924 60-60 60z" fill="#423e37"/></svg>